<svg width="48" height="49" viewBox="0 0 48 49" fill="none" xmlns="http://www.w3.org/2000/svg">
<path d="M37.8709 0.913086H10.2608C4.82688 0.913086 0.567871 5.1721 0.567871 10.606V38.363C0.567871 43.6501 4.82688 48.0559 10.2608 48.0559H38.0178C43.3049 48.0559 47.7107 43.7969 47.7107 38.363V10.606C47.7107 5.31896 43.4517 0.913086 38.0178 0.913086H37.8709ZM25.3876 10.1654C27.4437 7.37504 30.381 7.37504 30.381 7.37504C30.381 7.37504 30.8215 10.0186 28.7655 12.5152C26.5625 15.1587 24.0659 14.7182 24.0659 14.7182C24.0659 14.7182 23.6253 12.6621 25.3876 10.1654ZM30.0872 39.3911C28.178 39.3911 26.7094 38.0693 24.8002 38.0693C22.891 38.0693 20.8349 39.3911 19.5131 39.3911C15.8416 39.3911 11.142 31.3136 11.142 24.8517C11.142 18.3897 15.1073 15.1587 18.7788 15.1587C22.4504 15.1587 23.0378 16.4805 24.3596 16.4805C25.6814 16.4805 27.4437 15.0119 30.0872 15.0119C34.64 15.0119 36.4023 18.2429 36.4023 18.2429C36.4023 18.2429 32.8776 20.0052 32.8776 24.2642C32.8776 28.5232 37.1366 30.7262 37.1366 30.7262C37.1366 30.7262 34.1994 39.2442 30.0872 39.2442V39.3911Z" fill="black"/>
</svg>
