<svg width="287" height="34" viewBox="0 0 287 34" fill="none" xmlns="http://www.w3.org/2000/svg">
<rect width="286.67" height="33.3333" rx="5" fill="#222222"/>
<g clip-path="url(#clip0_4183_482)">
<path d="M131.516 10.4822C131.03 11.0908 130.287 11.4396 129.506 11.4258C129.456 10.6681 129.715 9.92235 130.224 9.35634C130.73 8.77167 131.445 8.40501 132.218 8.3335C132.273 9.11316 132.022 9.88373 131.516 10.4822ZM132.21 11.5764C131.101 11.513 130.152 12.2028 129.626 12.2028C129.091 12.2028 128.286 11.6081 127.409 11.624C126.247 11.6536 125.187 12.2933 124.625 13.3049C123.429 15.3506 124.314 18.3795 125.471 20.0445C126.037 20.8691 126.715 21.773 127.608 21.7413C128.453 21.7096 128.788 21.1942 129.809 21.1942C130.838 21.1942 131.133 21.7413 132.026 21.7255C132.952 21.7096 133.534 20.9009 134.1 20.0763C134.5 19.4929 134.811 18.8544 135.025 18.1813C133.936 17.7086 133.23 16.6427 133.223 15.4616C133.238 14.4185 133.789 13.4555 134.682 12.9085C134.113 12.1044 133.198 11.6114 132.21 11.5764ZM138.614 9.27701V21.6383H140.544V17.4122H143.216C145.392 17.5285 147.252 15.8688 147.369 13.7051C147.375 13.5824 147.376 13.4595 147.371 13.3367C147.475 11.1979 145.816 9.38018 143.664 9.27667C143.536 9.2705 143.408 9.27063 143.28 9.27705L138.614 9.27701ZM140.544 10.8945H142.769C144.444 10.8945 145.401 11.7826 145.401 13.3446C145.401 14.9066 144.444 15.8026 142.761 15.8026H140.544L140.544 10.8945ZM150.896 21.7334C152.064 21.765 153.156 21.1598 153.743 20.1556H153.783V21.6383H155.57V15.4854C155.57 13.7014 154.134 12.5517 151.925 12.5517C149.875 12.5517 148.36 13.7173 148.304 15.3189H150.043C150.25 14.5048 151.029 13.967 151.869 14.0582C153.05 14.0582 153.712 14.6053 153.712 15.6123V16.2942L151.303 16.4369C149.062 16.5717 147.85 17.4835 147.85 19.0693C147.85 20.671 149.102 21.7334 150.896 21.7334ZM151.415 20.2666C150.386 20.2666 149.732 19.775 149.732 19.0217C149.732 18.2447 150.362 17.7927 151.566 17.7214L153.712 17.5866V18.2843C153.66 19.4348 152.679 20.3257 151.522 20.2741C151.486 20.2725 151.45 20.27 151.415 20.2666ZM157.954 25.0002C159.837 25.0002 160.722 24.2866 161.496 22.122L164.885 12.6706H162.923L160.65 19.9732H160.61L158.337 12.6706H156.32L159.589 21.67L159.414 22.2171C159.29 23.0007 158.583 23.5591 157.787 23.5016C157.635 23.5016 157.34 23.4858 157.221 23.4699V24.9526C157.464 24.9853 157.709 25.0012 157.954 25.0002Z" fill="white"/>
</g>
<defs>
<clipPath id="clip0_4183_482">
<rect width="40.8294" height="16.6667" fill="white" transform="translate(124.056 8.3335)"/>
</clipPath>
</defs>
</svg>
