<svg width="75" height="25" viewBox="0 0 75 25" fill="none" xmlns="http://www.w3.org/2000/svg">
<g clip-path="url(#clip0_3490_2152)">
<path d="M5.95917 7.47898e-05C5.72998 7.47898e-05 5.50354 7.47898e-05 5.27496 0.00131817C5.08362 0.0025709 4.89381 0.00619821 4.70059 0.00925524C4.28092 0.0141914 3.86224 0.0511188 3.44818 0.119701C3.0347 0.189779 2.63417 0.321895 2.26014 0.511572C1.88656 0.702856 1.54522 0.95142 1.24849 1.24823C0.950195 1.54421 0.701547 1.88632 0.512095 2.26141C0.322129 2.63575 0.190406 3.0369 0.121468 3.45098C0.0518761 3.86455 0.0144344 4.28288 0.00947026 4.70222C0.00367405 4.89384 0.00305703 5.08611 0 5.27776V19.7241C0.00305703 19.9182 0.0036647 20.1062 0.00947026 20.3003C0.0144344 20.7197 0.0518854 21.138 0.121468 21.5515C0.190209 21.9658 0.321942 22.3672 0.512095 22.7417C0.701454 23.1156 0.950139 23.4563 1.24849 23.7506C1.5441 24.0488 1.88566 24.2975 2.26014 24.4873C2.63417 24.6775 3.03465 24.8104 3.44818 24.8816C3.86232 24.9496 4.28097 24.9865 4.70061 24.9921C4.8938 24.9963 5.08361 24.9987 5.27499 24.9987C5.50353 25 5.72999 25 5.95917 25H68.834C69.0587 25 69.2869 25 69.5115 24.9987C69.702 24.9987 69.8973 24.9963 70.0877 24.9921C70.5066 24.9868 70.9244 24.9499 71.3377 24.8816C71.7526 24.8099 72.1545 24.677 72.5303 24.4873C72.9045 24.2974 73.2457 24.0487 73.5411 23.7506C73.8387 23.4551 74.0879 23.1147 74.2796 22.7417C74.4683 22.3669 74.5988 21.9656 74.6665 21.5515C74.7362 21.1379 74.775 20.7197 74.7825 20.3003C74.785 20.1062 74.785 19.9182 74.785 19.7241C74.7898 19.4971 74.7898 19.2713 74.7898 19.0405V5.96013C74.7898 5.73125 74.7898 5.5042 74.785 5.27777C74.785 5.08612 74.785 4.89385 74.7825 4.7022C74.775 4.28282 74.7362 3.86459 74.6665 3.45096C74.5986 3.03711 74.4681 2.636 74.2796 2.26139C73.8938 1.50957 73.282 0.897581 72.5304 0.511525C72.1545 0.322307 71.7525 0.190228 71.3377 0.119654C70.9245 0.0507636 70.5066 0.0138361 70.0877 0.00918045C69.8973 0.00613277 69.702 0.00246806 69.5115 0.00125273C69.2869 1.08834e-10 69.0587 0 68.834 0" fill="#A6A6A6"/>
<path d="M69.5087 0.546875L70.0794 0.554812C70.4686 0.55944 70.8568 0.593404 71.2409 0.656433C71.6041 0.718116 71.956 0.833516 72.2852 0.998839C72.9339 1.33312 73.4616 1.86197 73.7946 2.5113C73.9574 2.83599 74.0702 3.18344 74.1291 3.54187C74.194 3.93187 74.2303 4.32609 74.2377 4.72137C74.2395 4.89837 74.2395 5.0885 74.2395 5.2777C74.2445 5.51208 74.2445 5.73516 74.2445 5.96007V19.0405C74.2445 19.2675 74.2445 19.4891 74.2395 19.7124C74.2395 19.9157 74.2395 20.1019 74.2371 20.2935C74.2298 20.6817 74.1941 21.0689 74.1303 21.4519C74.072 21.8151 73.9581 22.1671 73.7928 22.4957C73.628 22.816 73.4138 23.1082 73.158 23.3618C72.9027 23.6204 72.6074 23.8362 72.2834 24.0008C71.9551 24.1671 71.6037 24.2829 71.2409 24.3444C70.8546 24.4075 70.4641 24.4416 70.0727 24.4464C69.8896 24.4506 69.6979 24.4531 69.5118 24.4531L68.8343 24.4543L5.27827 24.4531C5.08785 24.4531 4.90202 24.4506 4.71309 24.4464C4.32171 24.4413 3.93124 24.4072 3.54489 24.3444C3.18463 24.2824 2.83564 24.167 2.50943 24.002C2.18621 23.8384 1.8914 23.6239 1.63631 23.3666C1.37752 23.1124 1.16207 22.8176 0.998489 22.4938C0.83311 22.1679 0.718654 21.8186 0.659111 21.4581C0.594811 21.0707 0.560024 20.6789 0.555051 20.2862C0.551087 20.1544 0.545898 19.7155 0.545898 19.7155V5.2777C0.545898 5.2777 0.551433 4.84557 0.555088 4.71861C0.559856 4.32654 0.594437 3.9354 0.658541 3.54857C0.718195 3.18702 0.832736 2.83671 0.998199 2.50976C1.16118 2.1862 1.37543 1.89114 1.63266 1.63601C1.8896 1.37849 2.18536 1.16286 2.50912 0.996998C2.83458 0.832544 3.18292 0.717947 3.54245 0.65704C3.93007 0.593647 4.3219 0.559374 4.71464 0.554504L5.27859 0.546875" fill="black"/>
<path d="M67.0364 12.6877C67.05 11.6274 67.6059 10.648 68.5092 10.0927C67.9368 9.2751 67.0123 8.77533 66.0148 8.74412C64.9652 8.63395 63.9478 9.37214 63.413 9.37214C62.8678 9.37214 62.0443 8.75506 61.1576 8.77331C59.991 8.811 58.9297 9.45824 58.3621 10.4782C57.1533 12.571 58.0549 15.6466 59.2128 17.3382C59.7921 18.1666 60.4692 19.0919 61.3551 19.0591C62.222 19.0231 62.5458 18.5063 63.5922 18.5063C64.6289 18.5063 64.9327 19.0591 65.8366 19.0382C66.7668 19.0231 67.3529 18.2062 67.9119 17.37C68.3281 16.7798 68.6484 16.1274 68.8609 15.4372C67.7561 14.9699 67.0377 13.8873 67.0364 12.6877Z" fill="white"/>
<path d="M65.3289 7.63182C65.8361 7.02294 66.086 6.24033 66.0255 5.4502C65.2506 5.53159 64.5348 5.90194 64.0207 6.48745C63.5131 7.06514 63.256 7.82091 63.3059 8.58831C64.0912 8.5964 64.8368 8.24387 65.3289 7.63182Z" fill="white"/>
<path d="M10.749 16.9623H7.79064L7.08021 19.0601H5.82715L8.62926 11.2988H9.93114L12.7332 19.0601H11.4588L10.749 16.9623ZM8.09704 15.9943H10.442L9.28603 12.5897H9.25368L8.09704 15.9943Z" fill="white"/>
<path d="M18.7843 16.2311C18.7843 17.9896 17.8431 19.1193 16.4228 19.1193C15.6887 19.1577 14.9972 18.7732 14.6425 18.1293H14.6156V20.9321H13.4541V13.4016H14.5784V14.3427H14.5997C14.9702 13.7029 15.6625 13.3185 16.4015 13.3424C17.8376 13.3424 18.7843 14.4776 18.7843 16.2311ZM17.5904 16.2311C17.5904 15.0855 16.9984 14.3323 16.0951 14.3323C15.2076 14.3323 14.6107 15.1014 14.6107 16.2311C14.6107 17.3713 15.2076 18.1348 16.0951 18.1348C16.9984 18.1348 17.5905 17.3871 17.5904 16.2311Z" fill="white"/>
<path d="M25.0128 16.2311C25.0128 17.9896 24.0717 19.1193 22.6514 19.1193C21.9173 19.1577 21.2257 18.7732 20.871 18.1293H20.8441V20.9321H19.6826V13.4016H20.8069V14.3427H20.8282C21.1987 13.7029 21.891 13.3185 22.63 13.3424C24.0662 13.3424 25.0128 14.4776 25.0128 16.2311ZM23.819 16.2311C23.819 15.0855 23.2269 14.3323 22.3236 14.3323C21.4362 14.3323 20.8393 15.1014 20.8393 16.2311C20.8393 17.3713 21.4362 18.1348 22.3236 18.1348C23.2269 18.1348 23.819 17.3871 23.819 16.2311Z" fill="white"/>
<path d="M29.1284 16.8976C29.2145 17.6672 29.9622 18.1726 30.9839 18.1726C31.9629 18.1726 32.6672 17.6672 32.6672 16.9732C32.6672 16.3708 32.2424 16.0101 31.2366 15.7629L30.2307 15.5206C28.8056 15.1764 28.144 14.5099 28.144 13.4283C28.144 12.0892 29.3109 11.1694 30.968 11.1694C32.608 11.1694 33.7323 12.0892 33.7702 13.4283H32.5977C32.5275 12.6538 31.8872 12.1863 30.9515 12.1863C30.0159 12.1863 29.3756 12.6593 29.3756 13.3478C29.3756 13.8965 29.7845 14.2194 30.7849 14.4665L31.64 14.6765C33.2324 15.0531 33.894 15.6927 33.894 16.828C33.894 18.28 32.7374 19.1894 30.8978 19.1894C29.1766 19.1894 28.0145 18.3013 27.9395 16.8975L29.1284 16.8976Z" fill="white"/>
<path d="M36.4009 12.0625V13.4016H37.4769V14.3214H36.4009V17.4409C36.4009 17.9255 36.6163 18.1514 37.0893 18.1514C37.2171 18.1491 37.3446 18.1402 37.4714 18.1245V19.0388C37.2587 19.0785 37.0426 19.0965 36.8263 19.0925C35.6806 19.0925 35.2339 18.6622 35.2339 17.5648V14.3214H34.4111V13.4016H35.2339V12.0625L36.4009 12.0625Z" fill="white"/>
<path d="M38.1006 16.2312C38.1006 14.4508 39.1492 13.332 40.7843 13.332C42.4249 13.332 43.4686 14.4508 43.4686 16.2312C43.4686 18.0165 42.4304 19.1304 40.7843 19.1304C39.1388 19.1304 38.1006 18.0165 38.1006 16.2312ZM42.2851 16.2312C42.2851 15.0099 41.7255 14.2891 40.7843 14.2891C39.8431 14.2891 39.2841 15.0154 39.2841 16.2312C39.2841 17.4574 39.8431 18.1727 40.7843 18.1727C41.7254 18.1727 42.2851 17.4574 42.2851 16.2312Z" fill="white"/>
<path d="M44.4258 13.4015H45.5336V14.3646H45.5605C45.7149 13.7446 46.283 13.3179 46.9215 13.3423C47.0554 13.3418 47.1889 13.3564 47.3195 13.3856V14.4721C47.1505 14.4204 46.9742 14.3967 46.7976 14.4019C46.1517 14.3757 45.6069 14.878 45.5807 15.5239C45.5783 15.5839 45.5805 15.644 45.5873 15.7038V19.0601H44.4258L44.4258 13.4015Z" fill="white"/>
<path d="M52.6747 17.3982C52.5184 18.4254 51.518 19.1304 50.2382 19.1304C48.592 19.1304 47.5703 18.0274 47.5703 16.2581C47.5703 14.4832 48.5975 13.332 50.1893 13.332C51.7549 13.332 52.7394 14.4075 52.7394 16.1232V16.5211H48.7428V16.5913C48.671 17.402 49.27 18.1175 50.0808 18.1893C50.142 18.1947 50.2035 18.1963 50.265 18.1941C50.8286 18.2469 51.3601 17.9232 51.5718 17.3982L52.6747 17.3982ZM48.7483 15.7094H51.5773C51.6191 14.959 51.0446 14.3168 50.2942 14.275C50.2593 14.273 50.2243 14.2724 50.1893 14.2732C49.3982 14.2685 48.753 14.906 48.7483 15.6971C48.7483 15.7012 48.7483 15.7053 48.7483 15.7094Z" fill="white"/>
<path d="M33.621 10.0523H33.2127C32.4177 10.0523 31.5791 9.88899 31.5791 8.78883C31.6324 8.29415 31.7458 7.80778 31.9166 7.34047L32.4449 7.48207L32.3686 7.72713C32.2556 8.0718 32.1807 8.42782 32.1455 8.78882C32.1455 9.54565 32.8697 9.54565 33.3598 9.54565H33.7028C33.9478 9.54565 34.2854 9.44769 34.2854 9.13733V6.98646H34.8682V8.59839C34.9938 8.65167 35.1292 8.67757 35.2656 8.67438H35.467V9.17548H35.2656C35.131 9.17454 34.9972 9.15441 34.8682 9.11567V9.19191C34.8683 9.47485 34.6504 10.0523 33.621 10.0523ZM33.289 6.3984C33.0951 6.3881 32.9463 6.22258 32.9566 6.02871C32.9669 5.83483 33.1324 5.68601 33.3263 5.6963C33.5118 5.70616 33.6576 5.85864 33.6592 6.04439C33.6644 6.23512 33.514 6.39395 33.3232 6.39916C33.3118 6.39947 33.3004 6.39922 33.289 6.3984Z" fill="white"/>
<path d="M36.1243 8.67431C36.0572 8.43519 36.0259 8.18744 36.0315 7.93914C35.9646 7.2997 36.4287 6.72706 37.0682 6.66013C37.1163 6.6551 37.1648 6.65307 37.2132 6.65405C37.9865 6.65405 38.2862 7.28576 38.2862 8.03741C38.2862 8.59282 38.0899 9.34416 37.3331 9.34416C37.0835 9.32007 36.8382 9.26333 36.6034 9.17541H35.3672V8.67431H36.1243ZM36.7124 8.69628C36.8974 8.77455 37.0944 8.82059 37.295 8.83239C37.6325 8.83239 37.7253 8.40208 37.7253 8.02093C37.7253 7.65624 37.6218 7.13348 37.1805 7.13348C36.7832 7.13348 36.6089 7.50366 36.6089 7.9721C36.6015 8.21764 36.6365 8.46263 36.7124 8.69628Z" fill="white"/>
<path d="M42.1301 10.052H41.7218C40.9265 10.052 40.0879 9.88873 40.0879 8.78858C40.1414 8.29391 40.2547 7.80757 40.4254 7.34022L40.9539 7.48181L40.8777 7.72687C40.7645 8.07152 40.6896 8.42755 40.6543 8.78856C40.6543 9.54539 41.3788 9.54539 41.8689 9.54539H42.2119C42.4566 9.54539 42.7942 9.44743 42.7942 9.13707V5.50488H43.377V8.59813C43.5026 8.65137 43.638 8.67728 43.7744 8.67412H43.9758V9.17522H43.7744C43.6398 9.17425 43.506 9.15411 43.377 9.11541V9.19166C43.3771 9.4746 43.1592 10.052 42.1301 10.052Z" fill="white"/>
<path d="M45.9347 6.68164V8.21178C45.9347 8.85967 45.5477 9.17554 44.7799 9.17554H43.876V8.67443H44.7585C45.2212 8.67443 45.3463 8.47302 45.3463 8.13V6.68164H45.9347ZM44.4753 10.3953C44.2814 10.3848 44.1327 10.2192 44.1432 10.0253C44.1537 9.83145 44.3193 9.68276 44.5132 9.69322C44.6986 9.70322 44.8442 9.85566 44.8458 10.0413C44.851 10.232 44.7006 10.3909 44.5099 10.3961C44.4984 10.3964 44.4868 10.3962 44.4753 10.3953ZM45.3902 10.3953C45.1963 10.3852 45.0474 10.2198 45.0575 10.0259C45.0676 9.83202 45.233 9.68306 45.4269 9.69319C45.6125 9.7029 45.7585 9.85543 45.7601 10.0413C45.7653 10.232 45.6149 10.3909 45.4241 10.396C45.4128 10.3964 45.4015 10.3961 45.3902 10.3953Z" fill="white"/>
<path d="M46.3691 9.99234C46.4522 10.0025 46.5357 10.0079 46.6194 10.0085C47.0991 10.0085 47.3384 9.7308 47.3384 9.16989V6.98087H47.9268V8.67428H48.4657V9.17538H47.9213C47.9277 9.54663 47.7934 9.90655 47.5453 10.1828C47.2806 10.4042 46.9428 10.5188 46.598 10.5041C46.4741 10.5022 46.3504 10.4931 46.2275 10.4769L46.3691 9.99234ZM47.6051 6.45261C47.4112 6.44215 47.2625 6.27651 47.273 6.08262C47.2835 5.88875 47.4491 5.74006 47.643 5.75052C47.8284 5.76052 47.974 5.91295 47.9756 6.09861C47.9809 6.28923 47.8307 6.44808 47.6401 6.45341C47.6284 6.45374 47.6167 6.45347 47.6051 6.45261Z" fill="white"/>
<path d="M50.3984 9.17532C50.1636 9.16803 49.934 9.1045 49.7288 8.99007C49.4469 9.14099 49.1268 9.20541 48.8084 9.17532H48.3672V8.67422H48.8414C49.2876 8.67422 49.3749 8.60342 49.3749 8.27688V6.68142H49.9578V8.57625C50.0952 8.64232 50.246 8.67584 50.3984 8.67422H50.7634V9.17532H50.3984ZM49.6416 6.13669C49.4477 6.12623 49.299 5.96059 49.3095 5.76671C49.3199 5.57283 49.4856 5.42414 49.6795 5.4346C49.8648 5.44461 50.0105 5.59704 50.0121 5.78269C50.0174 5.97331 49.8672 6.13217 49.6765 6.13749C49.6649 6.13782 49.6532 6.13755 49.6416 6.13669Z" fill="white"/>
<path d="M52.1564 6.68143V8.21158C52.1564 8.85946 51.77 9.17533 51.0022 9.17533H50.6641V8.67423H50.9802C51.4429 8.67423 51.568 8.47281 51.568 8.12979V6.68143H52.1564ZM51.2903 6.13669C51.0964 6.12623 50.9477 5.96059 50.9582 5.76671C50.9686 5.57283 51.1343 5.42414 51.3282 5.4346C51.5135 5.44461 51.6592 5.59704 51.6608 5.78269C51.6661 5.97331 51.5159 6.13217 51.3252 6.13749C51.3136 6.13782 51.3019 6.13755 51.2903 6.13669ZM52.2052 6.13669C52.0113 6.12623 51.8626 5.96059 51.8731 5.76671C51.8835 5.57283 52.0492 5.42414 52.2431 5.4346C52.4285 5.44461 52.5741 5.59704 52.5757 5.78269C52.581 5.97331 52.4308 6.13217 52.2402 6.13749C52.2285 6.13782 52.2168 6.13755 52.2052 6.13669Z" fill="white"/>
</g>
<defs>
<clipPath id="clip0_3490_2152">
<rect width="74.7898" height="25" fill="white"/>
</clipPath>
</defs>
</svg>
