<svg width="1920" height="668" viewBox="0 0 1920 668" fill="none" xmlns="http://www.w3.org/2000/svg">
<g opacity="0.1" clip-path="url(#clip0_3466_2854)">
<path d="M939.382 651.39C863.099 626.867 782.411 582.146 744.183 511.725C723.366 473.379 735.198 433.76 764.616 430.835C794.034 427.911 824.163 471.188 816.494 510.63C810.297 542.5 790.647 556.199 768.678 561.153C746.71 566.107 723.313 561.401 703.03 551.614C652.151 527.064 594.632 458.04 556.502 426.751C522.34 398.719 465.349 406.546 448.915 446.536C432.48 486.526 479.376 578.912 511.365 622.93" stroke="#336279" stroke-width="1.95701" stroke-miterlimit="10" stroke-dasharray="9.79 9.79"/>
<path d="M925.261 601.899C986.077 574.255 1012.5 515.731 998.326 488.749C989.625 472.189 972.504 471.628 962.632 479.843C956.34 485.079 946.402 496.327 956.265 512.528C962.84 523.327 977.654 526.397 990.293 526.712C1002.93 527.026 1015.37 523.68 1027.39 519.779C1060.38 509.077 1091.94 493.96 1120.96 474.956" stroke="#336279" stroke-width="1.95701" stroke-miterlimit="10" stroke-dasharray="9.79 9.79"/>
<path d="M307.699 515.362C315.115 514.722 322.72 514.201 330.589 513.903C443.345 509.621 394.703 641.702 393.469 667.95" stroke="#336279" stroke-width="1.95701" stroke-miterlimit="10" stroke-dasharray="9.79 9.79"/>
<path d="M-0.0229492 315.044C1.72916 348.525 53.6918 465.375 115.154 495.193C179.211 526.271 223.278 524.196 269.712 519.299" stroke="#336279" stroke-width="1.95701" stroke-miterlimit="10" stroke-dasharray="9.79 9.79"/>
<path d="M320.951 543.773C320.951 543.773 283.345 576.683 279.592 580.357C274.763 585.086 280.046 591.862 285.735 587.817C291.04 584.046 323.151 554.862 327.533 550.527C331.915 546.193 325.911 539.502 320.951 543.773Z" stroke="#336279" stroke-width="1.39054" stroke-miterlimit="10"/>
<path d="M296.156 565.031C296.156 565.031 278.338 553.584 275.487 551.482C272.636 549.38 274.953 547.518 277.25 548.057C287.041 550.353 305.481 557.2 305.481 557.2" stroke="#336279" stroke-width="1.39054" stroke-miterlimit="10"/>
<path d="M303.768 572.445C303.768 572.445 313.204 591.404 314.983 594.467C316.762 597.53 318.866 595.43 318.58 593.088C317.365 583.105 312.569 564.028 312.569 564.028" stroke="#336279" stroke-width="1.39054" stroke-miterlimit="10"/>
<path d="M283.259 577.025C283.259 577.025 276.805 575.151 275.326 574.694C273.254 574.054 271.268 576.06 273.52 577.862C276.346 580.124 278.419 581.712 278.419 581.712" stroke="#336279" stroke-width="1.39054" stroke-miterlimit="10"/>
<path d="M290.124 584.295C290.124 584.295 291.283 590.914 291.576 592.434C291.986 594.564 289.776 596.319 288.231 593.885C286.29 590.828 284.938 588.595 284.938 588.595" stroke="#336279" stroke-width="1.39054" stroke-miterlimit="10"/>
<path d="M548.206 464.988C548.206 464.988 513.286 449.916 509.534 448.539C504.704 446.768 501.777 452.615 506.418 455.201C510.745 457.612 541.306 470.128 545.718 471.721C550.13 473.314 552.763 466.999 548.206 464.988Z" stroke="#336279" stroke-width="1.25635" stroke-miterlimit="10"/>
<path d="M525.485 454.906C525.485 454.906 527.52 438.917 528.032 436.271C528.544 433.624 530.581 434.606 530.963 436.361C532.589 443.84 533.918 458.751 533.918 458.751" stroke="#336279" stroke-width="1.25635" stroke-miterlimit="10"/>
<path d="M522.881 462.562C522.881 462.562 512.941 475.25 511.419 477.474C509.896 479.699 512.027 480.457 513.543 479.495C520.005 475.393 531.544 465.856 531.544 465.856" stroke="#336279" stroke-width="1.25635" stroke-miterlimit="10"/>
<path d="M513.024 449.968C513.024 449.968 512.199 444.92 512.029 443.755C511.791 442.121 509.763 441.413 509.262 443.55C508.632 446.232 508.219 448.176 508.219 448.176" stroke="#336279" stroke-width="1.25635" stroke-miterlimit="10"/>
<path d="M510.275 457.065C510.275 457.065 506.105 460.027 505.157 460.726C503.828 461.705 501.899 460.76 503.066 458.901C504.531 456.568 505.623 454.908 505.623 454.908" stroke="#336279" stroke-width="1.25635" stroke-miterlimit="10"/>
<path d="M867.021 511.318L890.142 534.338C890.142 534.338 895.04 515.222 867.021 511.318Z" stroke="#336279" stroke-width="1.25635" stroke-miterlimit="10"/>
<path d="M867.575 592.202C867.575 592.202 888.196 560.515 890.143 534.338C895.929 552.261 880.947 586.023 874.719 594.83C870.207 593.17 867.575 592.202 867.575 592.202Z" stroke="#336279" stroke-width="1.25635" stroke-miterlimit="10"/>
<path d="M890.143 534.338C890.143 534.338 889.497 518.334 905.982 516.206C898.609 526.172 890.143 534.338 890.143 534.338Z" stroke="#336279" stroke-width="1.25635" stroke-miterlimit="10"/>
<path d="M922.228 525.596L890.143 534.338C890.143 534.338 906.483 515.903 922.228 525.596Z" stroke="#336279" stroke-width="1.25635" stroke-miterlimit="10"/>
<path d="M890.142 534.338C890.142 534.338 873.867 520.098 860.491 531.895C875.918 533.685 890.142 534.338 890.142 534.338Z" stroke="#336279" stroke-width="1.25635" stroke-miterlimit="10"/>
<path d="M870.519 551.308L890.143 534.338C890.143 534.338 865.341 539.101 870.519 551.308Z" stroke="#336279" stroke-width="1.25635" stroke-miterlimit="10"/>
<path d="M910.461 550.82L890.143 534.338C890.143 534.338 915.534 535.065 910.461 550.82Z" stroke="#336279" stroke-width="1.25635" stroke-miterlimit="10"/>
<path d="M876.361 591.821C880.225 594.1 884.044 597.676 887.388 603.152C877.365 599.464 852.035 590.146 852.035 590.146C852.035 590.146 860.074 586.655 869.452 588.992" stroke="#336279" stroke-width="1.25635" stroke-miterlimit="10"/>
<path d="M1021.91 403.53C1006.91 410.295 1016.57 456.758 1016.57 456.758L1065.34 434.769C1065.34 434.769 1036.92 396.764 1021.91 403.53Z" stroke="#336279" stroke-width="1.25635" stroke-miterlimit="10"/>
<path d="M1065.34 434.768L1099.04 419.575C1099.04 419.575 1061.35 361.025 1046.35 367.791C1038.26 371.439 1040.03 392.601 1043.38 411.33" stroke="#336279" stroke-width="1.25635" stroke-miterlimit="10"/>
<path d="M1023.43 424.128C1026.61 424.227 1029.2 421.571 1030.81 418.827C1032.47 416.015 1033.59 412.895 1035.43 410.203C1036.15 409.159 1037.02 408.173 1038 407.354C1032.18 403.523 1026.44 401.489 1021.91 403.529C1017.03 405.731 1014.76 412.135 1013.92 419.774C1013.95 419.782 1013.99 419.787 1014.02 419.796C1017.39 420.695 1019.94 424.019 1023.43 424.128Z" stroke="#336279" stroke-width="1.25635" stroke-miterlimit="10"/>
<path d="M1041.95 391.701C1043.48 392.545 1044.75 393.817 1046.26 394.709C1047.77 395.6 1049.74 396.066 1051.24 395.171C1052.72 394.296 1053.26 392.426 1053.39 390.715C1053.51 389.003 1053.35 387.231 1053.93 385.619C1054.52 384.007 1056.22 382.603 1057.86 383.107C1058.81 383.399 1059.47 384.227 1060.19 384.905C1061.01 385.673 1062.07 386.312 1063.19 386.198C1065.45 385.966 1066.25 383.135 1066.67 380.897C1066.81 380.17 1066.98 379.438 1067.18 378.711C1059.2 370.759 1051.46 365.487 1046.35 367.791C1041.16 370.131 1040.03 379.684 1040.77 391.177C1041.17 391.326 1041.57 391.494 1041.95 391.701Z" stroke="#336279" stroke-width="1.25635" stroke-miterlimit="10"/>
<path d="M1013.15 458.299L1103.7 417.474" stroke="#336279" stroke-width="1.25635" stroke-miterlimit="10"/>
<path d="M567.448 546.387C551.934 540.888 526.76 581.118 526.76 581.118L577.182 598.99C577.182 598.99 582.963 551.886 567.448 546.387Z" stroke="#336279" stroke-width="1.25635" stroke-miterlimit="10"/>
<path d="M577.182 598.99L612.021 611.338C612.021 611.338 625.331 542.992 609.817 537.493C601.451 534.528 588.089 551.034 577.55 566.875" stroke="#336279" stroke-width="1.25635" stroke-miterlimit="10"/>
<path d="M554.288 562.306C556.517 564.579 560.223 564.452 563.287 563.589C566.428 562.704 569.394 561.225 572.588 560.558C573.828 560.3 575.138 560.189 576.415 560.279C574.866 553.488 572.127 548.045 567.449 546.387C562.401 544.598 556.331 547.652 550.438 552.584C550.455 552.612 550.475 552.638 550.492 552.666C552.303 555.648 551.846 559.814 554.288 562.306Z" stroke="#336279" stroke-width="1.25635" stroke-miterlimit="10"/>
<path d="M590.095 551.71C590.621 553.383 590.652 555.175 591.125 556.863C591.598 558.551 592.698 560.25 594.405 560.648C596.076 561.037 597.763 560.064 599.036 558.914C600.309 557.763 601.418 556.371 602.957 555.614C604.497 554.857 606.696 555.019 607.53 556.518C608.012 557.384 607.916 558.439 607.969 559.429C608.029 560.549 608.352 561.745 609.237 562.435C611.034 563.837 613.564 562.341 615.423 561.021C616.026 560.593 616.655 560.183 617.301 559.793C617.039 548.527 615.1 539.366 609.817 537.494C604.449 535.591 597.025 541.707 589.608 550.517C589.797 550.904 589.966 551.299 590.095 551.71Z" stroke="#336279" stroke-width="1.25635" stroke-miterlimit="10"/>
<path d="M523.226 579.865L616.84 613.046" stroke="#336279" stroke-width="1.25635" stroke-miterlimit="10"/>
<path d="M147.957 590.585C157.402 579.349 155.951 562.585 144.716 553.14C133.481 543.695 116.716 545.146 107.271 556.382C97.8265 567.617 99.2778 584.381 110.513 593.826C121.748 603.271 138.513 601.82 147.957 590.585Z" stroke="#336279" stroke-width="1.44658" stroke-linecap="round" stroke-linejoin="round"/>
<path d="M146.843 574.896C147.623 564.277 139.647 555.035 129.028 554.255C118.409 553.474 109.167 561.45 108.387 572.069C107.606 582.689 115.582 591.93 126.201 592.711C136.82 593.491 146.062 585.516 146.843 574.896Z" stroke="#336279" stroke-width="1.44658" stroke-linecap="round" stroke-linejoin="round"/>
<path d="M125.866 571.139C127.16 570.173 128.993 570.439 129.959 571.734C130.925 573.029 130.658 574.862 129.364 575.827C128.069 576.793 126.236 576.527 125.27 575.232C124.304 573.937 124.571 572.105 125.866 571.139Z" stroke="#336279" stroke-width="1.44658" stroke-linecap="round" stroke-linejoin="round"/>
<path d="M124.465 573.18L114.432 583.201L127.071 576.345" stroke="#336279" stroke-width="1.44658" stroke-linecap="round" stroke-linejoin="round"/>
<path d="M128.147 570.471L140.423 563.811L130.508 573.715" stroke="#336279" stroke-width="1.44658" stroke-linecap="round" stroke-linejoin="round"/>
<path d="M304.551 479.189C304.551 487.607 289.308 507.844 289.308 507.844C289.308 507.844 274.066 487.607 274.066 479.189C274.066 470.77 280.89 463.946 289.308 463.946C297.727 463.946 304.551 470.771 304.551 479.189Z" stroke="#336279" stroke-width="2.66062" stroke-linecap="round" stroke-linejoin="round"/>
<path d="M289.308 485.308C293.054 485.308 296.09 482.272 296.09 478.526C296.09 474.781 293.054 471.744 289.308 471.744C285.563 471.744 282.526 474.781 282.526 478.526C282.526 482.272 285.563 485.308 289.308 485.308Z" stroke="#336279" stroke-width="2.66062" stroke-linecap="round" stroke-linejoin="round"/>
<path d="M289.311 519.678C291.594 519.678 293.445 517.827 293.445 515.544C293.445 513.261 291.594 511.411 289.311 511.411C287.028 511.411 285.177 513.261 285.177 515.544C285.177 517.827 287.028 519.678 289.311 519.678Z" fill="#336279"/>
<path d="M431.045 484.335C427.929 465.638 429.877 425.906 456.365 405.651" stroke="#336279" stroke-width="1.95701" stroke-miterlimit="10" stroke-dasharray="9.79 9.79"/>
<path d="M475.452 395.913C475.452 395.913 503.108 387.343 522.974 391.239" stroke="#336279" stroke-width="1.95701" stroke-miterlimit="10" stroke-dasharray="9.79 9.79"/>
<path d="M751.505 475.782C749.765 460.549 759.339 442.27 781.536 454.892" stroke="#336279" stroke-width="1.95701" stroke-miterlimit="10" stroke-dasharray="9.79 9.79"/>
<path d="M98.9077 461.788C98.9077 461.788 134.903 494.228 179.785 499.561" stroke="#336279" stroke-width="1.95701" stroke-miterlimit="10" stroke-dasharray="9.79 9.79"/>
<path d="M974.464 449.739C974.464 451.186 973.291 452.359 971.844 452.359C970.397 452.359 969.224 451.186 969.224 449.739C969.224 448.292 970.397 447.119 971.844 447.119C973.291 447.119 974.464 448.292 974.464 449.739Z" stroke="#336279" stroke-width="1.25635" stroke-miterlimit="10"/>
<path d="M947.679 449.739C947.679 453.759 944.42 457.017 940.401 457.017C936.381 457.017 933.122 453.759 933.122 449.739C933.122 445.719 936.381 442.46 940.401 442.46C944.421 442.46 947.679 445.719 947.679 449.739Z" stroke="#336279" stroke-width="1.25635" stroke-miterlimit="10"/>
<path d="M1014.06 554.55C1014.06 555.997 1012.89 557.17 1011.44 557.17C1009.99 557.17 1008.82 555.997 1008.82 554.55C1008.82 553.103 1009.99 551.929 1011.44 551.929C1012.89 551.929 1014.06 553.103 1014.06 554.55Z" stroke="#336279" stroke-width="1.25635" stroke-miterlimit="10"/>
<path d="M718.842 530.967C720.45 530.967 721.754 529.664 721.754 528.056C721.754 526.448 720.45 525.144 718.842 525.144C717.234 525.144 715.931 526.448 715.931 528.056C715.931 529.664 717.234 530.967 718.842 530.967Z" stroke="#336279" stroke-width="1.25635" stroke-miterlimit="10"/>
<path d="M689.728 516.41C694.23 516.41 697.88 512.761 697.88 508.258C697.88 503.756 694.23 500.106 689.728 500.106C685.226 500.106 681.576 503.756 681.576 508.258C681.576 512.761 685.226 516.41 689.728 516.41Z" stroke="#336279" stroke-width="1.25635" stroke-miterlimit="10"/>
<path d="M812.007 416.258C812.007 418.187 810.443 419.751 808.513 419.751C806.584 419.751 805.02 418.187 805.02 416.258C805.02 414.328 806.584 412.764 808.513 412.764C810.443 412.764 812.007 414.328 812.007 416.258Z" stroke="#336279" stroke-width="1.25635" stroke-miterlimit="10"/>
<path d="M571.525 389.764C571.525 392.819 569.048 395.296 565.993 395.296C562.938 395.296 560.461 392.819 560.461 389.764C560.461 386.709 562.938 384.232 565.993 384.232C569.048 384.232 571.525 386.709 571.525 389.764Z" stroke="#336279" stroke-width="1.25635" stroke-miterlimit="10"/>
<path d="M552.309 357.738C552.309 359.507 550.876 360.941 549.107 360.941C547.338 360.941 545.904 359.507 545.904 357.738C545.904 355.97 547.338 354.536 549.107 354.536C550.876 354.536 552.309 355.97 552.309 357.738Z" stroke="#336279" stroke-width="1.25635" stroke-miterlimit="10"/>
<path d="M397.422 489.625C402.246 489.625 406.157 485.715 406.157 480.891C406.157 476.067 402.246 472.157 397.422 472.157C392.598 472.157 388.688 476.067 388.688 480.891C388.688 485.715 392.598 489.625 397.422 489.625Z" stroke="#336279" stroke-width="1.25635" stroke-miterlimit="10"/>
<path d="M392.764 446.827C392.764 448.918 391.069 450.612 388.979 450.612C386.889 450.612 385.194 448.918 385.194 446.827C385.194 444.737 386.889 443.042 388.979 443.042C391.069 443.042 392.764 444.737 392.764 446.827Z" stroke="#336279" stroke-width="1.25635" stroke-miterlimit="10"/>
<path d="M502.815 532.423C502.815 535.156 500.599 537.372 497.866 537.372C495.132 537.372 492.917 535.156 492.917 532.423C492.917 529.689 495.132 527.473 497.866 527.473C500.599 527.473 502.815 529.689 502.815 532.423Z" stroke="#336279" stroke-width="1.25635" stroke-miterlimit="10"/>
<path d="M449.245 544.942C449.245 547.193 447.42 549.018 445.169 549.018C442.918 549.018 441.093 547.193 441.093 544.942C441.093 542.691 442.918 540.866 445.169 540.866C447.42 540.866 449.245 542.691 449.245 544.942Z" stroke="#336279" stroke-width="1.25635" stroke-miterlimit="10"/>
<path d="M378.789 583.664C378.789 588.97 374.488 593.271 369.181 593.271C363.875 593.271 359.574 588.97 359.574 583.664C359.574 578.358 363.875 574.056 369.181 574.056C374.488 574.056 378.789 578.358 378.789 583.664Z" stroke="#336279" stroke-width="1.25635" stroke-miterlimit="10"/>
<path d="M53.8757 548.436C65.4528 548.436 74.8379 539.05 74.8379 527.473C74.8379 515.896 65.4528 506.511 53.8757 506.511C42.2986 506.511 32.9136 515.896 32.9136 527.473C32.9136 539.05 42.2986 548.436 53.8757 548.436Z" stroke="#336279" stroke-width="1.25635" stroke-miterlimit="10"/>
<path d="M107.446 513.208C107.446 515.941 105.23 518.157 102.496 518.157C99.7628 518.157 97.5469 515.941 97.5469 513.208C97.5469 510.474 99.7628 508.258 102.496 508.258C105.23 508.258 107.446 510.474 107.446 513.208Z" stroke="#336279" stroke-width="1.25635" stroke-miterlimit="10"/>
<path d="M90.8505 420.334C93.2624 420.334 95.2177 418.378 95.2177 415.967C95.2177 413.555 93.2624 411.599 90.8505 411.599C88.4386 411.599 86.4834 413.555 86.4834 415.967C86.4834 418.378 88.4386 420.334 90.8505 420.334Z" stroke="#336279" stroke-width="1.25635" stroke-miterlimit="10"/>
<path d="M53.2938 395.296C65.5141 395.296 75.4206 385.389 75.4206 373.169C75.4206 360.948 65.5141 351.042 53.2938 351.042C41.0735 351.042 31.167 360.948 31.167 373.169C31.167 385.389 41.0735 395.296 53.2938 395.296Z" stroke="#336279" stroke-width="1.25635" stroke-miterlimit="10"/>
<path d="M228.269 490.208C231.003 490.208 233.219 487.992 233.219 485.258C233.219 482.525 231.003 480.309 228.269 480.309C225.536 480.309 223.32 482.525 223.32 485.258C223.32 487.992 225.536 490.208 228.269 490.208Z" stroke="#336279" stroke-width="1.25635" stroke-miterlimit="10"/>
<path d="M1350.49 169.45C1295.61 146.377 1268.49 86.6742 1265.34 42.9561" stroke="#336279" stroke-width="1.95701" stroke-miterlimit="10" stroke-dasharray="9.79 9.79"/>
<path d="M1647.92 22.9409C1646.46 56.9713 1635.22 90.7252 1614.85 118.02C1594.47 145.314 1564.86 165.871 1531.81 174.079C1499.81 182.023 1461.33 176.089 1442.02 149.374C1436.3 141.47 1432.53 131.478 1434.66 121.962C1437.66 108.597 1452.77 99.7953 1466.22 102.382C1479.67 104.968 1490.11 117.458 1491.86 131.042C1493.6 144.627 1487.41 158.579 1477.22 167.741C1467.46 176.527 1425.57 187.278 1375.61 176.992" stroke="#336279" stroke-width="1.95701" stroke-miterlimit="10" stroke-dasharray="9.79 9.79"/>
<path d="M1719.08 38.8779C1733.98 59.0554 1743.95 82.8525 1747.88 107.63C1750.15 121.963 1750.32 137.167 1744.38 150.407C1738.44 163.647 1725.22 174.372 1710.72 173.874C1702.06 173.577 1692.81 168.083 1691.6 159.503C1690.46 151.442 1696.97 143.831 1704.65 141.127C1712.33 138.422 1720.79 139.523 1728.77 141.142C1784.88 152.53 1835.35 189.229 1863.49 239.099C1872.35 254.82 1879.12 273.976 1872.12 290.612C1868.5 299.225 1861.54 306.057 1853.85 311.367C1818.47 335.787 1733.51 287.264 1710.62 323.468C1694.62 348.755 1720.24 380.83 1740.04 394.026C1793.63 429.743 1857.84 446.545 1919.98 463.48" stroke="#336279" stroke-width="1.95701" stroke-miterlimit="10" stroke-dasharray="9.79 9.79"/>
<path d="M715.095 95.9048C766.557 54.5112 939.929 33.7672 1086.27 93.0024C1169.1 126.532 1190.67 190.285 1145.67 215.599C1112.07 234.494 1044.37 218.755 1074.41 155.596C1110.98 78.7166 1221.81 16.6841 1286.04 0.950195" stroke="#336279" stroke-width="1.95701" stroke-miterlimit="10" stroke-dasharray="9.79 9.79"/>
<path d="M1657.79 133.655C1657.79 133.655 1630.57 160.227 1627.88 163.174C1624.4 166.969 1628.7 171.899 1632.85 168.588C1636.73 165.502 1659.92 141.99 1663.07 138.514C1666.22 135.039 1661.38 130.203 1657.79 133.655Z" stroke="#336279" stroke-width="1.25635" stroke-miterlimit="10"/>
<path d="M1639.83 150.84C1639.83 150.84 1625.81 142.881 1623.56 141.402C1621.3 139.923 1622.99 138.411 1624.75 138.725C1632.29 140.064 1646.59 144.501 1646.59 144.501" stroke="#336279" stroke-width="1.25635" stroke-miterlimit="10"/>
<path d="M1645.92 156.158C1645.92 156.158 1653.88 170.173 1655.36 172.427C1656.84 174.681 1658.35 172.998 1658.03 171.23C1656.69 163.694 1652.26 149.396 1652.26 149.396" stroke="#336279" stroke-width="1.25635" stroke-miterlimit="10"/>
<path d="M1630.52 160.489C1630.52 160.489 1625.54 159.334 1624.4 159.048C1622.8 158.648 1621.37 160.255 1623.16 161.53C1625.4 163.132 1627.04 164.253 1627.04 164.253" stroke="#336279" stroke-width="1.25635" stroke-miterlimit="10"/>
<path d="M1636.04 165.729C1636.04 165.729 1637.2 170.712 1637.48 171.855C1637.88 173.456 1636.28 174.881 1635 173.096C1633.4 170.854 1632.28 169.212 1632.28 169.212" stroke="#336279" stroke-width="1.25635" stroke-miterlimit="10"/>
<path d="M883.132 102.144C883.132 102.144 839.251 71.9427 834.469 69.0314C828.315 65.2846 822.703 72.523 828.377 77.3375C833.667 81.8267 872.254 107.331 877.883 110.719C883.512 114.107 888.846 106.147 883.132 102.144Z" stroke="#336279" stroke-width="1.75966" stroke-miterlimit="10"/>
<path d="M854.654 82.115C854.654 82.115 861.798 60.7002 863.22 57.2027C864.643 53.7051 867.175 55.609 867.222 58.1237C867.423 68.8421 865.195 89.6909 865.195 89.6909" stroke="#336279" stroke-width="1.75966" stroke-miterlimit="10"/>
<path d="M848.996 91.9268C848.996 91.9268 831.889 106.657 829.193 109.3C826.496 111.943 829.218 113.564 831.562 112.654C841.556 108.775 860.003 98.8075 860.003 98.8075" stroke="#336279" stroke-width="1.75966" stroke-miterlimit="10"/>
<path d="M838.875 71.943C838.875 71.943 839.115 64.7836 839.198 63.1356C839.315 60.8267 836.721 59.3027 835.451 62.102C833.857 65.6162 832.761 68.1752 832.761 68.1752" stroke="#336279" stroke-width="1.75966" stroke-miterlimit="10"/>
<path d="M833.169 80.9464C833.169 80.9464 826.635 83.8828 825.142 84.5849C823.05 85.5684 820.656 83.7461 822.765 81.5099C825.412 78.7024 827.364 76.7178 827.364 76.7178" stroke="#336279" stroke-width="1.75966" stroke-miterlimit="10"/>
<path d="M1255.17 132.398L1222.73 128.875C1222.73 128.875 1230.86 146.859 1255.17 132.398Z" stroke="#336279" stroke-width="1.25635" stroke-miterlimit="10"/>
<path d="M1204.19 69.5977C1204.19 69.5977 1207.9 107.222 1222.73 128.875C1207.02 118.498 1197.61 82.7784 1196.97 72.0101C1201.53 70.4865 1204.19 69.5977 1204.19 69.5977Z" stroke="#336279" stroke-width="1.25635" stroke-miterlimit="10"/>
<path d="M1222.73 128.875C1222.73 128.875 1233.24 140.966 1221.7 152.928C1221.23 140.541 1222.73 128.875 1222.73 128.875Z" stroke="#336279" stroke-width="1.25635" stroke-miterlimit="10"/>
<path d="M1203.15 155.75L1222.73 128.875C1222.73 128.875 1221.5 153.479 1203.15 155.75Z" stroke="#336279" stroke-width="1.25635" stroke-miterlimit="10"/>
<path d="M1222.73 128.875C1222.73 128.875 1244.34 129.822 1247.41 112.252C1234.25 120.496 1222.73 128.875 1222.73 128.875Z" stroke="#336279" stroke-width="1.25635" stroke-miterlimit="10"/>
<path d="M1227.45 103.363L1222.73 128.875C1222.73 128.875 1239.12 109.657 1227.45 103.363Z" stroke="#336279" stroke-width="1.25635" stroke-miterlimit="10"/>
<path d="M1196.57 128.704L1222.73 128.875C1222.73 128.875 1202.46 144.175 1196.57 128.704Z" stroke="#336279" stroke-width="1.25635" stroke-miterlimit="10"/>
<path d="M1197.57 75.3856C1193.13 76.0213 1187.91 75.6162 1181.88 73.4306C1192.01 70.046 1217.61 61.4917 1217.61 61.4917C1217.61 61.4917 1213.51 69.2408 1204.73 73.2768" stroke="#336279" stroke-width="1.25635" stroke-miterlimit="10"/>
<path d="M1793.65 204.335C1800.1 215.326 1796.42 229.462 1785.42 235.908C1774.43 242.355 1760.3 238.671 1753.85 227.68C1747.4 216.689 1751.09 202.553 1762.08 196.106C1773.07 189.66 1787.21 193.344 1793.65 204.335Z" stroke="#336279" stroke-width="1.25581" stroke-linecap="round" stroke-linejoin="round"/>
<path d="M1787.93 224.901C1792.84 217.07 1790.48 206.74 1782.65 201.828C1774.82 196.917 1764.49 199.283 1759.57 207.114C1754.66 214.945 1757.03 225.275 1764.86 230.187C1772.69 235.098 1783.02 232.732 1787.93 224.901Z" stroke="#336279" stroke-width="1.25581" stroke-linecap="round" stroke-linejoin="round"/>
<path d="M1775.94 214.723C1776.65 215.932 1776.25 217.488 1775.04 218.198C1773.83 218.907 1772.27 218.502 1771.56 217.292C1770.85 216.082 1771.26 214.526 1772.47 213.817C1773.68 213.108 1775.23 213.513 1775.94 214.723Z" stroke="#336279" stroke-width="1.25581" stroke-linecap="round" stroke-linejoin="round"/>
<path d="M1774.32 213.318L1766.63 203.703L1771.33 215.264" stroke="#336279" stroke-width="1.25581" stroke-linecap="round" stroke-linejoin="round"/>
<path d="M1776.3 216.755L1780.87 227.986L1773.28 218.482" stroke="#336279" stroke-width="1.25581" stroke-linecap="round" stroke-linejoin="round"/>
<path d="M1234.81 228.835C1237.6 216.402 1229.79 204.061 1217.35 201.271C1204.92 198.481 1192.58 206.298 1189.79 218.731C1187 231.164 1194.82 243.505 1207.25 246.295C1219.68 249.085 1232.02 241.268 1234.81 228.835Z" stroke="#336279" stroke-width="1.25581" stroke-linecap="round" stroke-linejoin="round"/>
<path d="M1205.88 208.327C1214.42 204.78 1224.21 208.826 1227.76 217.362C1231.3 225.899 1227.26 235.694 1218.72 239.24C1210.19 242.786 1200.39 238.741 1196.85 230.205C1193.3 221.668 1197.34 211.873 1205.88 208.327Z" stroke="#336279" stroke-width="1.25581" stroke-linecap="round" stroke-linejoin="round"/>
<path d="M1211.33 221.439C1212.62 220.901 1214.11 221.514 1214.65 222.809C1215.18 224.104 1214.57 225.59 1213.28 226.128C1211.98 226.666 1210.5 226.053 1209.96 224.758C1209.42 223.463 1210.03 221.977 1211.33 221.439Z" stroke="#336279" stroke-width="1.25581" stroke-linecap="round" stroke-linejoin="round"/>
<path d="M1209.72 222.859L1199.14 229.163L1211.24 226.077" stroke="#336279" stroke-width="1.25581" stroke-linecap="round" stroke-linejoin="round"/>
<path d="M1213.39 221.361L1225.14 218.363L1214.69 224.594" stroke="#336279" stroke-width="1.25581" stroke-linecap="round" stroke-linejoin="round"/>
<path d="M1378.11 137.89C1378.11 146.308 1362.87 166.545 1362.87 166.545C1362.87 166.545 1347.63 146.308 1347.63 137.89C1347.63 129.471 1354.45 122.647 1362.87 122.647C1371.29 122.647 1378.11 129.471 1378.11 137.89Z" stroke="#336279" stroke-width="2.66062" stroke-linecap="round" stroke-linejoin="round"/>
<path d="M1369.65 137.227C1369.65 140.972 1366.62 144.009 1362.87 144.009C1359.13 144.009 1356.09 140.972 1356.09 137.227C1356.09 133.481 1359.13 130.445 1362.87 130.445C1366.62 130.445 1369.65 133.481 1369.65 137.227Z" stroke="#336279" stroke-width="2.66062" stroke-linecap="round" stroke-linejoin="round"/>
<path d="M1367.01 174.246C1367.01 176.529 1365.16 178.379 1362.87 178.379C1360.59 178.379 1358.74 176.529 1358.74 174.246C1358.74 171.963 1360.59 170.112 1362.87 170.112C1365.16 170.112 1367.01 171.963 1367.01 174.246Z" fill="#336279"/>
<path d="M1517.98 165.412C1517.98 165.412 1563.26 160.119 1601.94 114.74" stroke="#336279" stroke-width="1.95701" stroke-miterlimit="10" stroke-dasharray="9.79 9.79"/>
<path d="M1433.31 154.033C1418.26 138.984 1417.92 107.214 1444.68 94.5063" stroke="#336279" stroke-width="1.95701" stroke-miterlimit="10" stroke-dasharray="9.79 9.79"/>
<path d="M1748.28 63.0908C1748.28 63.0908 1761.12 96.4022 1758.67 122.073" stroke="#336279" stroke-width="1.95701" stroke-miterlimit="10" stroke-dasharray="9.79 9.79"/>
<path d="M1694.19 335.387C1690.83 356.169 1704.58 387.035 1729.95 403.538" stroke="#336279" stroke-width="1.95701" stroke-miterlimit="10" stroke-dasharray="9.79 9.79"/>
<path d="M1069.61 136.049C1056.72 153.825 1043.84 185.82 1056.72 205.373" stroke="#336279" stroke-width="1.95701" stroke-miterlimit="10" stroke-dasharray="9.79 9.79"/>
<path d="M1532.79 137.565C1532.79 138.893 1531.72 139.968 1530.39 139.968C1529.06 139.968 1527.99 138.893 1527.99 137.565C1527.99 136.238 1529.06 135.163 1530.39 135.163C1531.72 135.163 1532.79 136.238 1532.79 137.565Z" stroke="#336279" stroke-width="1.25635" stroke-miterlimit="10"/>
<path d="M1557.22 120.345C1557.22 124.548 1553.82 127.954 1549.61 127.954C1545.41 127.954 1542 124.548 1542 120.345C1542 116.143 1545.41 112.736 1549.61 112.736C1553.82 112.736 1557.22 116.143 1557.22 120.345Z" stroke="#336279" stroke-width="1.25635" stroke-miterlimit="10"/>
<path d="M1284.01 165.243C1284.01 167.494 1282.19 169.319 1279.94 169.319C1277.68 169.319 1275.86 167.494 1275.86 165.243C1275.86 162.992 1277.68 161.167 1279.94 161.167C1282.19 161.167 1284.01 162.992 1284.01 165.243Z" stroke="#336279" stroke-width="1.25635" stroke-miterlimit="10"/>
<path d="M1265.38 200.763C1268.27 200.763 1270.62 198.417 1270.62 195.522C1270.62 192.628 1268.27 190.282 1265.38 190.282C1262.48 190.282 1260.14 192.628 1260.14 195.522C1260.14 198.417 1262.48 200.763 1265.38 200.763Z" stroke="#336279" stroke-width="1.25635" stroke-miterlimit="10"/>
<path d="M1727.13 190.282C1727.13 192.211 1725.56 193.775 1723.63 193.775C1721.7 193.775 1720.14 192.211 1720.14 190.282C1720.14 188.352 1721.7 186.788 1723.63 186.788C1725.56 186.788 1727.13 188.352 1727.13 190.282Z" stroke="#336279" stroke-width="1.25635" stroke-miterlimit="10"/>
<path d="M1724.8 114.003C1724.8 118.183 1721.41 121.573 1717.23 121.573C1713.05 121.573 1709.66 118.183 1709.66 114.003C1709.66 109.822 1713.05 106.433 1717.23 106.433C1721.41 106.433 1724.8 109.822 1724.8 114.003Z" stroke="#336279" stroke-width="1.25635" stroke-miterlimit="10"/>
<path d="M1752.17 345.169C1753.77 345.169 1755.08 343.865 1755.08 342.257C1755.08 340.649 1753.77 339.346 1752.17 339.346C1750.56 339.346 1749.25 340.649 1749.25 342.257C1749.25 343.865 1750.56 345.169 1752.17 345.169Z" stroke="#336279" stroke-width="1.25635" stroke-miterlimit="10"/>
<path d="M1675.31 368.169C1675.31 372.189 1672.05 375.447 1668.03 375.447C1664.01 375.447 1660.75 372.189 1660.75 368.169C1660.75 364.149 1664.01 360.89 1668.03 360.89C1672.05 360.89 1675.31 364.149 1675.31 368.169Z" stroke="#336279" stroke-width="1.25635" stroke-miterlimit="10"/>
<path d="M1672.98 399.903C1672.98 401.833 1671.41 403.397 1669.48 403.397C1667.55 403.397 1665.99 401.833 1665.99 399.903C1665.99 397.974 1667.55 396.409 1669.48 396.409C1671.41 396.409 1672.98 397.974 1672.98 399.903Z" stroke="#336279" stroke-width="1.25635" stroke-miterlimit="10"/>
<path d="M1033.63 114.003C1033.63 116.575 1031.54 118.661 1028.97 118.661C1026.4 118.661 1024.31 116.575 1024.31 114.003C1024.31 111.43 1026.4 109.344 1028.97 109.344C1031.54 109.344 1033.63 111.43 1033.63 114.003Z" stroke="#336279" stroke-width="1.25635" stroke-miterlimit="10"/>
<path d="M976.567 97.6987C988.144 97.6987 997.529 88.3136 997.529 76.7366C997.529 65.1595 988.144 55.7744 976.567 55.7744C964.99 55.7744 955.604 65.1595 955.604 76.7366C955.604 88.3136 964.99 97.6987 976.567 97.6987Z" stroke="#336279" stroke-width="1.25635" stroke-miterlimit="10"/>
<path d="M1003.64 136.129C1005.73 136.129 1007.43 134.435 1007.43 132.344C1007.43 130.254 1005.73 128.56 1003.64 128.56C1001.55 128.56 999.858 130.254 999.858 132.344C999.858 134.435 1001.55 136.129 1003.64 136.129Z" stroke="#336279" stroke-width="1.25635" stroke-miterlimit="10"/>
<path d="M808.287 250.839C814.719 250.839 819.933 245.625 819.933 239.194C819.933 232.762 814.719 227.548 808.287 227.548C801.856 227.548 796.642 232.762 796.642 239.194C796.642 245.625 801.856 250.839 808.287 250.839Z" stroke="#336279" stroke-width="1.25635" stroke-miterlimit="10"/>
<path d="M817.603 196.104C817.603 197.712 816.3 199.016 814.692 199.016C813.084 199.016 811.781 197.712 811.781 196.104C811.781 194.496 813.084 193.193 814.692 193.193C816.3 193.193 817.603 194.496 817.603 196.104Z" stroke="#336279" stroke-width="1.25635" stroke-miterlimit="10"/>
<path d="M840.895 229.877C840.895 231.485 839.592 232.788 837.984 232.788C836.376 232.788 835.072 231.485 835.072 229.877C835.072 228.269 836.376 226.965 837.984 226.965C839.592 226.965 840.895 228.269 840.895 229.877Z" stroke="#336279" stroke-width="1.25635" stroke-miterlimit="10"/>
<path d="M1027.81 193.193C1027.81 196.409 1025.2 199.016 1021.98 199.016C1018.77 199.016 1016.16 196.409 1016.16 193.193C1016.16 189.977 1018.77 187.37 1021.98 187.37C1025.2 187.37 1027.81 189.977 1027.81 193.193Z" stroke="#336279" stroke-width="1.25635" stroke-miterlimit="10"/>
<path d="M1485.48 198.434C1485.48 201.006 1483.4 203.092 1480.82 203.092C1478.25 203.092 1476.16 201.006 1476.16 198.434C1476.16 195.861 1478.25 193.775 1480.82 193.775C1483.4 193.775 1485.48 195.861 1485.48 198.434Z" stroke="#336279" stroke-width="1.25635" stroke-miterlimit="10"/>
</g>
<defs>
<clipPath id="clip0_3466_2854">
<rect width="1921.23" height="667.996" fill="white" transform="translate(-1)"/>
</clipPath>
</defs>
</svg>
