<svg width="255" height="259" viewBox="0 0 255 259" fill="none" xmlns="http://www.w3.org/2000/svg">
<path d="M33.9049 154.242C31.4834 152.63 24.2188 142.961 24.2188 142.961L16.9541 139.737C16.9541 139.737 20.1828 147.795 20.99 151.824C21.7972 155.854 24.2188 163.106 25.8331 165.523C27.4475 167.941 34.7121 158.271 34.7121 158.271L33.9049 154.242Z" fill="#F1F3F6"/>
<path d="M38.7482 121.204C38.7482 121.204 39.5553 125.233 39.5553 127.65C39.5553 130.067 39.5553 130.873 40.3625 132.485C41.1697 134.097 41.9769 135.708 41.1697 137.32C40.3625 138.931 38.7482 141.349 38.7482 142.155C38.7482 142.96 39.5553 144.572 37.1338 146.184C34.7122 147.795 30.6763 150.213 25.8332 146.99C20.9901 143.766 17.8663 140.14 17.8663 140.14L15.3398 126.038L25.8332 118.786H36.3266L38.7482 121.204Z" fill="#F1F3F6"/>
<path d="M20.1831 139.738C18.9078 141.011 20.1831 144.573 19.376 144.573C18.5688 144.573 17.7616 144.573 16.1472 140.544C14.5329 136.514 11.3041 128.456 12.9185 123.621C14.5329 118.787 19.376 115.563 22.6047 114.758C25.8334 113.952 37.134 114.758 38.7484 114.758C40.3627 114.758 46.013 110.729 46.013 110.729C46.013 110.729 45.2058 113.952 42.7843 116.369C46.013 116.369 46.013 116.369 46.013 116.369L41.1699 119.592L44.3986 120.398C44.3986 120.398 41.1699 122.816 39.5555 122.816C41.1699 124.427 41.9771 124.427 41.9771 124.427C41.9771 124.427 37.9412 126.845 33.0981 125.233C33.0981 125.233 29.0622 124.427 29.0622 128.456C29.0622 132.485 29.8693 134.097 29.0622 134.903C28.255 135.709 26.6406 134.903 25.0262 132.485C23.4119 130.068 21.7975 130.068 20.1831 130.874C18.5688 131.68 19.376 134.903 20.1831 135.709C20.9903 136.514 21.7975 137.32 21.7975 137.32C21.7975 137.32 20.9903 138.932 20.1831 139.738Z" fill="#4B87A4"/>
<path d="M74.7385 143.002L73.2452 142.382C72.8336 142.213 72.6399 141.737 72.8094 141.326L78.7341 127.2C78.9036 126.789 79.3798 126.596 79.7915 126.765L81.2848 127.386C81.6965 127.555 81.8902 128.03 81.7207 128.441L75.7959 142.567C75.6264 142.978 75.1502 143.172 74.7385 143.002Z" fill="#4B87A4"/>
<path d="M71.6143 149.796C69.9999 144.961 68.3856 139.32 70.8071 140.126C73.2287 140.932 74.0358 142.543 76.4574 137.709C78.8789 132.874 81.3005 131.262 81.3005 136.097C81.3005 140.932 78.0718 145.767 74.843 149.796C71.6143 153.825 71.6143 149.796 71.6143 149.796Z" fill="#F1F3F6"/>
<path d="M72.6495 191.309L114.623 188.086L129.152 199.367L138.839 251.745H135.61L116.237 214.492C114.768 211.664 111.766 209.956 108.577 210.141L71.0352 212.26L72.6495 191.309Z" fill="#4B87A4"/>
<path d="M64.5783 175.193C78.3004 173.582 104.937 168.747 109.781 173.582C114.624 178.417 155.79 222.736 155.79 222.736L153.368 225.959L107.916 195.782C105.979 194.452 103.67 193.775 101.313 193.856L58.9199 195.339L64.5783 175.193Z" fill="#4B87A4"/>
<path d="M96.8652 171.358C96.8652 171.358 102.516 168.94 108.166 171.358C112.492 173.211 114.623 176.192 115.43 178.61C116.238 181.027 114.623 183.445 110.587 180.222C106.551 176.998 105.744 176.192 105.744 176.192C105.744 176.192 107.359 181.027 104.937 180.222C102.516 179.416 96.8652 171.358 96.8652 171.358Z" fill="#F1F3F6"/>
<path d="M62.1565 175.998C70.2283 174.386 86.372 170.357 92.8294 170.357C99.2869 170.357 104.13 172.775 97.6725 175.192C91.2151 177.61 64.578 187.279 64.578 187.279L58.9277 182.445L62.1565 175.998Z" fill="#DBE8EB"/>
<path d="M71.8429 191.309L58.1208 172.776C58.1208 172.776 35.3179 153.299 31.3869 152.566C27.4478 151.825 21.7976 157.465 20.9904 162.3C20.1832 167.135 40.3628 193.727 40.3628 193.727L71.8429 191.309Z" fill="#DBE8EB"/>
<g opacity="0.5" filter="url(#filter0_f_3489_948)">
<ellipse cx="47.1421" cy="179.933" rx="8.23844" ry="12.5" transform="rotate(-37.4598 47.1421 179.933)" fill="#A6C5CD"/>
</g>
<path d="M31.1863 153.046C26.4885 154.222 22.6463 159.218 30.5487 168.622C38.451 178.026 51.3659 183.666 56.209 185.278C61.0521 186.89 68.3168 190.113 70.7383 178.832C73.1599 167.55 78.003 150.628 74.7742 147.405C70.7383 144 65.8952 161.104 64.2808 165.939C62.6665 170.773 61.8593 173.997 61.8593 173.997C61.8593 173.997 37.6438 151.434 31.1863 153.046Z" fill="#DBE8EB"/>
<path d="M152.561 225.153L154.409 230.069C154.716 230.882 155.66 231.245 156.435 230.842L171.989 222.768C172.692 222.405 172.385 221.342 171.594 221.406L154.982 222.736L152.561 225.153Z" fill="#4B87A4"/>
<path d="M135.578 251.358L134.965 256.572C134.86 257.434 135.538 258.191 136.41 258.191L153.942 258.119C154.733 258.119 154.951 257.031 154.216 256.725L138.839 250.311L135.578 251.358Z" fill="#4B87A4"/>
<path d="M23.1279 223C22.3222 223 21.5951 223.484 21.2835 224.227L8.43149 254.876C7.87886 256.194 8.84681 257.65 10.2759 257.65H11.7457C12.4701 257.65 13.1378 257.258 13.4913 256.626L30.6274 225.976C31.3727 224.643 30.409 223 28.8817 223H23.1279Z" fill="#4B87A4"/>
<path d="M84.1594 223C84.9652 223 85.6922 223.484 86.0038 224.227L98.8558 254.876C99.4085 256.194 98.4405 257.65 97.0114 257.65H95.5417C94.8173 257.65 94.1495 257.258 93.796 256.626L76.6599 225.976C75.9146 224.643 76.8783 223 78.4056 223H84.1594Z" fill="#4B87A4"/>
<path d="M8.29336 144.032C2.77223 144.306 -1.11033 149.576 0.286101 154.918L13.7338 206.611L47.6355 204.999L16.3652 148.52C14.7508 145.611 11.619 143.871 8.29336 144.032Z" fill="#D9DEE4"/>
<path d="M17.1961 227.014L10.0041 198.835C9.01129 194.959 11.8445 191.148 15.8562 190.979L79.1555 188.231C81.1654 188.142 83.0946 189.012 84.3538 190.576L102.088 212.574C105.098 216.313 102.838 221.898 98.0678 222.486L24.1056 231.712C20.9415 232.107 17.9791 230.093 17.1961 227.014Z" fill="#F1F3F6"/>
<g filter="url(#filter1_d_3489_948)">
<circle cx="152.5" cy="90.5" r="62.5" fill="#F1F3F6"/>
<circle cx="152.5" cy="90.5" r="59.5" stroke="white" stroke-width="6"/>
</g>
<path d="M142.852 122.252C141.678 108.115 129.769 97 115.244 97C102.699 97 92.1104 105.288 88.695 116.646C87.9125 116.524 87.1218 116.443 86.3067 116.443C81.31 116.443 76.892 118.873 74.145 122.592C73.0935 122.284 71.9768 122.114 70.8193 122.114C64.2902 122.114 59 127.372 59 133.861C59 140.35 64.2902 145.608 70.8193 145.608C73.2892 145.608 75.5797 144.854 77.4789 143.566C79.965 145.348 83.0055 146.418 86.3067 146.418C87.2849 146.418 88.2386 146.321 89.1678 146.142C89.233 154.357 95.9578 161 104.239 161C110.443 161 115.774 157.273 118.088 151.943C122.539 151.489 126.68 149.99 130.258 147.69C132.981 150.412 136.755 152.089 140.92 152.089C149.251 152.089 156 145.381 156 137.101C156 129.478 150.27 123.199 142.852 122.252Z" fill="url(#paint0_linear_3489_948)"/>
<path d="M158.693 80.0476C159.201 73.8628 164.358 69 170.647 69C176.079 69 180.664 72.6258 182.142 77.5949C182.481 77.5418 182.824 77.5063 183.176 77.5063C185.34 77.5063 187.253 78.5696 188.442 80.1965C188.898 80.0618 189.381 79.9873 189.882 79.9873C192.709 79.9873 195 82.2876 195 85.1266C195 87.9656 192.709 90.2658 189.882 90.2658C188.813 90.2658 187.821 89.9362 186.999 89.3727C185.922 90.1524 184.606 90.6203 183.176 90.6203C182.753 90.6203 182.34 90.5777 181.938 90.4997C181.909 94.0937 178.998 97 175.412 97C172.726 97 170.418 95.3696 169.415 93.0375C167.488 92.839 165.695 92.1833 164.146 91.1767C162.967 92.3676 161.333 93.1013 159.529 93.1013C155.922 93.1013 153 90.1666 153 86.5443C153 83.2091 155.481 80.4623 158.693 80.0476Z" fill="url(#paint1_linear_3489_948)"/>
<defs>
<filter id="filter0_f_3489_948" x="25.1133" y="156.815" width="44.0566" height="46.2354" filterUnits="userSpaceOnUse" color-interpolation-filters="sRGB">
<feFlood flood-opacity="0" result="BackgroundImageFix"/>
<feBlend mode="normal" in="SourceGraphic" in2="BackgroundImageFix" result="shape"/>
<feGaussianBlur stdDeviation="6" result="effect1_foregroundBlur_3489_948"/>
</filter>
<filter id="filter1_d_3489_948" x="50" y="0" width="205" height="205" filterUnits="userSpaceOnUse" color-interpolation-filters="sRGB">
<feFlood flood-opacity="0" result="BackgroundImageFix"/>
<feColorMatrix in="SourceAlpha" type="matrix" values="0 0 0 0 0 0 0 0 0 0 0 0 0 0 0 0 0 0 127 0" result="hardAlpha"/>
<feOffset dy="12"/>
<feGaussianBlur stdDeviation="20"/>
<feColorMatrix type="matrix" values="0 0 0 0 0.849244 0 0 0 0 0.869846 0 0 0 0 0.89388 0 0 0 1 0"/>
<feBlend mode="normal" in2="BackgroundImageFix" result="effect1_dropShadow_3489_948"/>
<feBlend mode="normal" in="SourceGraphic" in2="effect1_dropShadow_3489_948" result="shape"/>
</filter>
<linearGradient id="paint0_linear_3489_948" x1="107.5" y1="97" x2="107.5" y2="141.075" gradientUnits="userSpaceOnUse">
<stop stop-color="white"/>
<stop offset="1" stop-color="white" stop-opacity="0"/>
</linearGradient>
<linearGradient id="paint1_linear_3489_948" x1="174" y1="69" x2="174" y2="88.283" gradientUnits="userSpaceOnUse">
<stop stop-color="white"/>
<stop offset="1" stop-color="white" stop-opacity="0"/>
</linearGradient>
</defs>
</svg>
