<svg width="30" height="30" viewBox="0 0 30 30" fill="none" xmlns="http://www.w3.org/2000/svg">
<g clip-path="url(#clip0_3501_702)">
<path d="M26.625 0H3.375C1.51104 0 0 1.51104 0 3.375V26.625C0 28.489 1.51104 30 3.375 30H26.625C28.489 30 30 28.489 30 26.625V3.375C30 1.51104 28.489 0 26.625 0Z" fill="#626E7B"/>
<g clip-path="url(#clip1_3501_702)">
<path d="M23.8646 13.7547C23.1909 8.84485 18.6646 5.41072 13.7547 6.08437C8.84486 6.75801 5.41072 11.2843 6.08437 16.1942C6.63203 20.2043 9.77927 23.3613 13.7877 23.9213C14.1869 23.9736 14.589 23.9998 14.9915 24C16.618 24.0027 18.2139 23.5588 19.6054 22.7169C20.0162 22.4695 20.1486 21.9359 19.9012 21.5252C19.6538 21.1145 19.1202 20.982 18.7095 21.2294C15.2837 23.2857 10.8396 22.1755 8.78339 18.7497C6.72712 15.3239 7.83735 10.8798 11.2631 8.82356C12.6669 7.98101 14.3149 7.63949 15.9378 7.85481C19.8985 8.38142 22.6823 12.0191 22.1557 15.9797C22.0916 16.4624 21.9788 16.9374 21.8192 17.3975C21.6321 17.8971 21.1493 18.2236 20.616 18.2112C19.902 18.2102 19.3234 17.6317 19.3224 16.9177V11.5554C19.3224 11.076 18.9337 10.6873 18.4543 10.6873C17.9748 10.6873 17.5861 11.076 17.5861 11.5554V11.5635C15.6726 10.1193 12.9507 10.4997 11.5065 12.4132C10.0623 14.3267 10.4427 17.0486 12.3562 18.4929C14.0254 19.7526 16.3555 19.6432 17.8992 18.2326C18.4011 19.2779 19.4565 19.9441 20.616 19.9475C21.8892 19.9598 23.0305 19.1645 23.46 17.9658C23.9279 16.6143 24.0666 15.1706 23.8646 13.7547ZM14.9817 17.6324C13.5433 17.6324 12.3773 16.4664 12.3773 15.028C12.3773 13.5896 13.5433 12.4236 14.9817 12.4236C16.4201 12.4236 17.5861 13.5896 17.5861 15.028C17.5845 16.4657 16.4194 17.6308 14.9817 17.6324Z" fill="white"/>
</g>
</g>
<defs>
<clipPath id="clip0_3501_702">
<rect width="30" height="30" fill="white"/>
</clipPath>
<clipPath id="clip1_3501_702">
<rect width="17.9547" height="18" fill="white" transform="translate(6 6)"/>
</clipPath>
</defs>
</svg>
