<svg width="21" height="35" viewBox="0 0 21 35" fill="none" xmlns="http://www.w3.org/2000/svg">
<g clip-path="url(#clip0_3506_4694)">
<path d="M18.9896 0.521484H1.71297C1.05493 0.521484 0.521484 1.05493 0.521484 1.71297V33.2874C0.521484 33.9455 1.05493 34.4789 1.71297 34.4789H18.9896C19.6476 34.4789 20.1811 33.9455 20.1811 33.2874V1.71297C20.1811 1.05493 19.6476 0.521484 18.9896 0.521484Z" fill="#E9F4FF"/>
<path d="M14.5211 0.521484L14.2232 3.5002H6.47853L6.18066 0.521484H14.5211Z" fill="#4B87A4"/>
<path d="M17.7979 18.5588V16.4543L15.9576 16.2321C15.8141 15.5944 15.5622 14.9861 15.213 14.4335L16.366 12.9829L14.8782 11.4935L13.4186 12.638C12.8663 12.2887 12.2581 12.0368 11.6206 11.8933L11.4103 10.0527H9.30586L9.08365 11.893C8.44597 12.0366 7.83764 12.2885 7.2851 12.6377L5.83446 11.4846L4.3451 12.9725L5.48953 14.4321C5.14027 14.9844 4.88839 15.5925 4.74485 16.23L2.9043 16.4403V18.5448L4.74456 18.767C4.88815 19.4047 5.14003 20.013 5.48924 20.5655L4.33618 22.0162L5.82405 23.5055L7.28362 22.3611C7.83593 22.7104 8.44407 22.9623 9.08158 23.1058L9.29188 24.9463H11.3963L11.6186 23.1061C12.2562 22.9625 12.8646 22.7106 13.4171 22.3614L14.8677 23.5145L16.3571 22.0266L15.2127 20.567C15.5619 20.0147 15.8138 19.4066 15.9574 18.7691L17.7979 18.5588ZM10.3511 20.4783C8.706 20.4783 7.37238 19.1446 7.37238 17.4995C7.37238 15.8544 8.706 14.5208 10.3511 14.5208C11.9962 14.5208 13.3298 15.8544 13.3298 17.4995C13.3298 19.1446 11.9962 20.4783 10.3511 20.4783Z" fill="#4B87A4"/>
<path d="M2.84481 15.9224C2.58153 15.9525 2.38276 16.1754 2.38281 16.4404V18.5449C2.38286 18.8085 2.57978 19.0306 2.84153 19.0622L4.32821 19.241C4.4566 19.6863 4.63434 20.1159 4.85812 20.5218L3.92816 21.6919C3.76324 21.8993 3.78029 22.1974 3.96778 22.3847L5.45714 23.8741C5.64343 24.0608 5.93989 24.0787 6.14731 23.9158L7.32599 22.9924C7.73132 23.2164 8.16044 23.3945 8.60535 23.5232L8.77514 25.0081C8.80527 25.2713 9.02814 25.4701 9.29314 25.4701H11.3976C11.6613 25.47 11.8834 25.2731 11.915 25.0113L12.0937 23.5247C12.5391 23.3963 12.9687 23.2185 13.3746 22.9948L14.5446 23.925C14.7526 24.0882 15.0496 24.0701 15.2363 23.883L16.7256 22.3937C16.9121 22.2073 16.93 21.911 16.7673 21.7035L15.8439 20.5248C16.0681 20.119 16.2462 19.6894 16.3748 19.244L17.8576 19.0783C18.1208 19.0482 18.3196 18.8253 18.3196 18.5603V16.4544C18.3195 16.1907 18.1226 15.9686 17.8608 15.937L16.3742 15.7583C16.2458 15.3129 16.068 14.8833 15.8443 14.4774L16.7745 13.3074C16.9392 13.0998 16.922 12.8018 16.7346 12.6145L15.2452 11.1252C15.0588 10.9387 14.7626 10.9208 14.5551 11.0835L13.3764 12.0069C12.9706 11.7827 12.541 11.6047 12.0955 11.4761L11.9299 9.99325C11.8998 9.72997 11.6769 9.5312 11.4119 9.53125H9.30596C9.0423 9.5313 8.82019 9.72822 8.78856 9.98997L8.60984 11.4767C8.16449 11.605 7.73488 11.7828 7.32899 12.0066L6.15895 11.0766C5.95161 10.9116 5.65344 10.9285 5.4661 11.1159L3.97674 12.6053C3.79031 12.7917 3.77241 13.088 3.93504 13.2955L4.85844 14.4741C4.63436 14.8795 4.45632 15.3086 4.32763 15.7535L2.84481 15.9224ZM5.25341 16.3445C5.38401 15.765 5.61324 15.2124 5.93107 14.7106C6.04921 14.5243 6.03728 14.2838 5.90128 14.1101L5.04222 13.0148L5.87447 12.1808L6.96141 13.0446C7.13495 13.1828 7.37694 13.1958 7.5643 13.0771C8.06619 12.7594 8.61895 12.5304 9.19843 12.4C9.41394 12.3517 9.57548 12.1726 9.60145 11.9532L9.76826 10.5717H10.9469L11.1045 11.9506C11.1296 12.1709 11.2915 12.3512 11.5078 12.3997C12.0873 12.5303 12.6399 12.7596 13.1417 13.0774C13.328 13.1955 13.5685 13.1836 13.7422 13.0476L14.8375 12.1885L15.6715 13.0208L14.8077 14.1077C14.6697 14.2813 14.6567 14.5232 14.7752 14.7106C15.0929 15.2125 15.3219 15.7653 15.4523 16.3448C15.5006 16.5603 15.6797 16.7218 15.8991 16.7478L17.2806 16.9146V18.0953L15.9017 18.2529C15.6814 18.278 15.5011 18.4399 15.4526 18.6562C15.322 19.2357 15.0927 19.7883 14.7749 20.2901C14.6568 20.4764 14.6687 20.7169 14.8047 20.8906L15.6637 21.9859L14.8315 22.8199L13.7446 21.9561C13.5709 21.8181 13.3291 21.8051 13.1417 21.9236C12.6398 22.2413 12.087 22.4703 11.5075 22.6007C11.292 22.649 11.1305 22.8281 11.1045 23.0475L10.9377 24.429H9.75693L9.59936 23.0502C9.5743 22.8298 9.41242 22.6495 9.19604 22.601C8.61662 22.4704 8.06397 22.2411 7.56221 21.9233C7.37586 21.8053 7.13547 21.8173 6.9617 21.9531L5.86642 22.8122L5.03238 21.9799L5.89621 20.893C6.03416 20.7194 6.04719 20.4775 5.92868 20.2901C5.61102 19.7882 5.382 19.2354 5.25162 18.6559C5.20324 18.4404 5.02415 18.2789 4.80481 18.2529L3.42328 18.0861V16.9053L4.80213 16.7478C5.02338 16.7237 5.20456 16.5616 5.25341 16.3445Z" fill="#626E7B"/>
<path d="M18.9894 0H12.6024C12.3145 0 12.0811 0.23338 12.0811 0.52128C12.0811 0.80918 12.3145 1.04256 12.6024 1.04256H13.9452L13.7519 2.97873H6.95025L6.75693 1.04256H9.88697C10.1749 1.04256 10.4082 0.80918 10.4082 0.52128C10.4082 0.23338 10.1749 0 9.88697 0H1.71277C0.76731 0.00115 0.00115 0.76731 0 1.71277V23.5766C0 23.8645 0.23338 24.0979 0.52128 24.0979C0.80918 24.0979 1.04256 23.8645 1.04256 23.5766V1.71277C1.04289 1.34276 1.34276 1.04289 1.71277 1.04256H5.70903L5.96014 3.55184C5.98663 3.81836 6.2109 4.02138 6.47874 4.02129H14.2234C14.4913 4.02138 14.7155 3.81837 14.742 3.55184L14.9931 1.04256H18.9894C19.3594 1.04289 19.6593 1.34276 19.6596 1.71277V33.2872C19.6593 33.6572 19.3594 33.9571 18.9894 33.9575H1.71277C1.34276 33.9571 1.04289 33.6572 1.04256 33.2872V30.4872C1.04256 30.1994 0.80918 29.966 0.52128 29.966C0.23338 29.966 0 30.1993 0 30.4872V33.2872C0.00115 34.2327 0.76731 34.9989 1.71277 35H18.9894C19.9348 34.9989 20.701 34.2327 20.7021 33.2872V1.71277C20.701 0.76731 19.9348 0.00115 18.9894 0Z" fill="#626E7B"/>
<path d="M0.52128 28.2931C0.80911 28.2929 1.04239 28.0597 1.04256 27.7718V26.2908C1.04256 26.0029 0.80918 25.7695 0.52128 25.7695C0.23338 25.7695 0 26.0029 0 26.2908V27.7718C0.00016 28.0597 0.23345 28.2929 0.52128 28.2931Z" fill="#626E7B"/>
<path d="M8.66044 30.9785C8.37255 30.9785 8.13916 31.2119 8.13916 31.4998C8.13916 31.7877 8.37254 32.0211 8.66044 32.0211H12.0419C12.3298 32.0211 12.5632 31.7877 12.5632 31.4998C12.5632 31.2119 12.3298 30.9785 12.0419 30.9785H8.66044Z" fill="#626E7B"/>
<path d="M10.3512 20.9993C11.6655 21.0023 12.87 20.2663 13.4669 19.0953C13.5985 18.8392 13.4976 18.5248 13.2414 18.3932C12.9853 18.2616 12.671 18.3626 12.5394 18.6187C11.9209 19.827 10.4401 20.3052 9.23177 19.6868C8.02345 19.0684 7.54524 17.5876 8.16366 16.3792C8.78208 15.1709 10.2629 14.6927 11.4713 15.3111C11.9129 15.5372 12.2758 15.8916 12.5123 16.3278C12.6564 16.577 12.9752 16.6623 13.2244 16.5182C13.464 16.3796 13.5536 16.0781 13.4285 15.8312C12.5074 14.1316 10.3829 13.5005 8.68328 14.4216C6.98366 15.3427 6.35254 17.4672 7.27364 19.1668C7.8856 20.296 9.06683 20.9993 10.3512 20.9993Z" fill="#626E7B"/>
</g>
<defs>
<clipPath id="clip0_3506_4694">
<rect width="20.7021" height="35" fill="white"/>
</clipPath>
</defs>
</svg>
