<svg width="10" height="10" viewBox="0 0 10 10" fill="none" xmlns="http://www.w3.org/2000/svg">
<g clip-path="url(#clip0_1850_710)">
<path d="M5.03128 7.91994C3.40561 7.91994 2.11341 6.62774 2.11341 5.00207C2.11341 3.3764 3.40561 2.0842 5.03128 2.0842C6.65695 2.0842 7.94915 3.3764 7.94915 5.00207C7.94915 6.62774 6.65695 7.91994 5.03128 7.91994ZM5.03128 2.91787C3.86413 2.91787 2.94709 3.83492 2.94709 5.00206C2.94709 6.1692 3.86414 7.08625 5.03128 7.08625C6.19842 7.08625 7.11547 6.1692 7.11547 5.00206C7.11547 3.83492 6.19842 2.91787 5.03128 2.91787ZM5.11465 10.0041C3.32224 10.0041 1.48815 9.0454 0.696159 7.5031C0.571109 7.29468 0.654479 7.04458 0.862899 6.91953C1.07132 6.79448 1.32142 6.87785 1.44647 7.08627C1.98836 8.12837 3.03046 8.83699 4.28097 9.0871C5.53148 9.33721 6.74032 9.04542 7.65736 8.25342C7.8241 8.08668 8.11588 8.12837 8.24093 8.2951C8.40767 8.46184 8.36598 8.75362 8.19925 8.87867C7.32389 9.62898 6.24012 10.0041 5.11465 10.0041ZM8.99125 7.71152C8.65778 7.71152 8.44936 7.33637 8.6161 7.08626C9.24136 6.08585 9.32473 4.83533 8.90789 3.6265C8.49105 2.41767 7.61569 1.54231 6.53191 1.12547C6.32349 1.0421 6.19844 0.792 6.28181 0.58358C6.36518 0.37516 6.61528 0.25011 6.8237 0.33348C8.15758 0.792 9.19968 1.91747 9.69989 3.33472C10.2001 4.75197 10.075 6.29428 9.32474 7.50311C9.28306 7.62816 9.15798 7.71152 8.99125 7.71152ZM0.487739 6.12753C0.279319 6.12753 0.112589 6.00248 0.0708994 5.79406C-0.179201 4.37681 0.237639 2.91787 1.23805 1.75072C2.23846 0.62526 3.61403 0 5.03128 0C5.28138 0 5.44812 0.20842 5.44812 0.41684C5.44812 0.66694 5.19802 0.87536 4.94791 0.83368C3.78076 0.83368 2.6553 1.37557 1.8633 2.29262C1.07131 3.25135 0.696149 4.46018 0.904569 5.62733C0.946249 5.87743 0.779529 6.12753 0.487739 6.12753Z" fill="#626E7B"/>
</g>
<defs>
<clipPath id="clip0_1850_710">
<rect width="10" height="10.0041" fill="white"/>
</clipPath>
</defs>
</svg>
