<svg width="281" height="260" viewBox="0 0 281 260" fill="none" xmlns="http://www.w3.org/2000/svg">
<path d="M185 24C185 14.0589 193.059 6 203 6C212.941 6 221 14.0589 221 24V60C221 63.3137 218.314 66 215 66H191C187.686 66 185 63.3137 185 60V24Z" stroke="#F1F3F6" stroke-width="12"/>
<g filter="url(#filter0_d_3489_729)">
<path d="M167 63C167 45.3269 181.327 31 199 31H207C224.673 31 239 45.3269 239 63V91C239 97.6274 233.627 103 227 103H179C172.373 103 167 97.6274 167 91V63Z" fill="#F1F3F6"/>
<path d="M167 63C167 45.3269 181.327 31 199 31H207C224.673 31 239 45.3269 239 63V91C239 97.6274 233.627 103 227 103H179C172.373 103 167 97.6274 167 91V63Z" stroke="white" stroke-width="4"/>
</g>
<circle cx="203" cy="69" r="20" fill="url(#paint0_linear_3489_729)"/>
<path d="M203 55V60" stroke="#F1F3F6" stroke-width="2" stroke-linecap="round"/>
<path d="M203 78V83" stroke="#F1F3F6" stroke-width="2" stroke-linecap="round"/>
<path d="M217 69L212 69" stroke="#F1F3F6" stroke-width="2" stroke-linecap="round"/>
<path d="M194 69L189 69" stroke="#F1F3F6" stroke-width="2" stroke-linecap="round"/>
<path d="M212.899 59.1006L209.364 62.6361" stroke="#F1F3F6" stroke-width="2" stroke-linecap="round"/>
<path d="M196.636 75.3643L193.101 78.8998" stroke="#F1F3F6" stroke-width="2" stroke-linecap="round"/>
<path d="M212.899 78.8994L209.364 75.3639" stroke="#F1F3F6" stroke-width="2" stroke-linecap="round"/>
<path d="M196.636 62.6357L193.101 59.1002" stroke="#F1F3F6" stroke-width="2" stroke-linecap="round"/>
<path d="M66.0002 191.5C63.8335 195.167 60.5003 202 62.5002 208" stroke="#F1F3F6"/>
<path d="M52.5 168.5C58 177.5 62 188 61 206.5" stroke="#F1F3F6"/>
<path d="M65.4195 190.858C65.0099 191.728 65.9221 192.811 66.8334 192.505C68.4144 191.973 70.4882 191.312 72.6068 190.741C76.8483 189.597 82.8458 187.475 81.8515 180.16C81.8515 180.16 80.2568 172.501 86.3867 173.629C92.5166 174.756 96.9292 173.314 94.308 167.448C91.6868 161.583 96.3124 159.072 99.6114 158.183C102.91 157.293 107.704 151.703 103.927 147.161C100.15 142.618 91.2346 141.484 88.2844 147.334C85.3341 153.185 84.0074 154.807 81.2637 154.03C78.5199 153.253 73.5908 152.813 73.1228 155.72C72.6548 158.626 77.5452 162.616 75.8763 164.835C74.2075 167.055 70.5631 165.762 68.2067 166.398C65.8504 167.033 63.3261 170.747 66.6769 177.427C68.9199 181.898 66.9602 187.586 65.4195 190.858Z" fill="#F1F3F6"/>
<path d="M57.4946 175.68C57.5019 176.579 56.3454 177.096 55.6249 176.559C53.9188 175.286 51.1082 173.554 47.4195 172.542C41.0772 170.802 35.9617 166.319 35.9763 161.389C35.9909 156.458 35.392 152.899 31.0798 151.518C26.7677 150.138 24.6426 147.542 24.9091 143.273C25.1757 139.003 23.507 136.611 19.0378 136.806C14.5686 137.001 8.99671 132.314 11.6548 126.372C14.313 120.43 21.5352 116.53 26.3988 120.351C31.2623 124.173 32.522 127.479 37.1957 126.827C41.8694 126.175 49.5335 127.409 49.3619 133.915C49.1903 140.421 49.3327 143.776 52.7795 145.866C56.2264 147.957 65.7161 150.008 61.3273 157.37C57.4233 163.918 57.4427 169.206 57.4946 175.68Z" fill="#F1F3F6"/>
<path d="M49 208C49 205.791 50.7909 204 53 204H70C72.2091 204 74 205.791 74 208V229.5C74 236.404 68.4036 242 61.5 242C54.5964 242 49 236.404 49 229.5V208Z" fill="#4B87A4"/>
<path d="M126.096 34.038C126.096 34.038 125.846 38.0251 125.242 40.2963C124.637 42.5674 124.435 43.3244 124.79 45.0405C125.145 46.7565 125.501 48.4725 124.339 49.7847C123.177 51.0968 121.056 52.964 120.854 53.721C120.653 54.4781 120.526 57.6498 117.848 58.558C115.17 59.4662 111.26 58.7526 107.511 55.032C103.768 50.7921 101.74 46.6039 101.74 46.6039L102.895 32.7235L114.568 28.5356L124.426 31.161L126.096 34.038Z" fill="#F1F3F6"/>
<path d="M104.494 47.1813C102.977 48.0583 103.284 51.7235 102.526 51.5216C101.767 51.3196 101.009 51.1176 100.5 46.9285C99.9917 42.7394 98.9028 34.6245 101.701 30.2229C104.499 25.8213 107.718 24.193 113.018 24.3189C118.319 24.4448 125.159 27.7037 128.185 28.358C129.581 28.6598 131.356 28.2645 132.863 27.751C133.81 27.4282 134.609 28.3828 133.897 29.0861C133.534 29.4443 133.127 29.8056 132.676 30.147C132.287 30.4422 133.55 31.4081 134.022 31.5339C134.546 31.6736 133.403 32.0978 132.889 32.2721L130.838 32.9676C130.229 33.1742 130.155 34.006 130.718 34.3172C131.264 34.619 131.208 35.4011 130.613 35.5892C129.84 35.8335 128.886 36.0896 128.069 36.1729C127.648 36.2159 127.773 37.4029 128.069 37.7067C128.405 38.0526 127.585 38.4778 127.104 38.512C125.445 38.6302 122.804 38.4605 120.256 36.7858C120.256 36.7858 116.666 35.019 115.658 38.8042C114.65 42.5894 115.005 44.3054 114.045 44.8605C113.085 45.4156 111.77 44.2547 110.858 41.5796C109.946 38.9046 108.43 38.5007 106.711 38.8538C104.993 39.207 104.945 42.4371 105.502 43.3961C106.058 44.3551 106.615 45.3141 106.615 45.3141C106.615 45.3141 105.453 46.6262 104.494 47.1813Z" fill="#4B87A4"/>
<path d="M117.556 183.112L98.1324 131.371L124.553 129.5L134.322 182.295C135.164 186.845 135.009 191.523 133.868 196.007L120.84 247.214L117.434 246.646L119.569 195.699C119.749 191.411 119.064 187.13 117.556 183.112Z" fill="#4B87A4"/>
<path d="M118.037 242.221L113.97 246.995C113.293 247.782 113.497 249 114.4 249.597L120.677 253.709C122.524 254.919 124.668 255.596 126.875 255.666C128.42 255.715 130.043 255.768 130.665 255.79C131.987 255.836 132.426 255.396 131.867 254.589L127.954 251.864L122.103 243.409L118.037 242.221Z" fill="#4B87A4"/>
<path d="M104.053 54.0002C104.053 63.0002 100.053 64.0002 98.0532 66.5002C103.22 69.0003 117.253 73.7003 116.053 70.5003C114.853 67.3003 113.053 60.3336 113.553 58.0002C110.887 53.3336 104.053 46.8002 104.053 54.0002Z" fill="#F1F3F6"/>
<path d="M98.1323 252.89L94.7378 252.89C94.7378 252.89 96.4292 194.987 96.4292 184.768C96.4292 174.55 94.7378 128 94.7378 128L123.093 129.287C123.093 129.287 115.739 177.88 113.46 189.878C111.18 201.875 98.1323 252.89 98.1323 252.89Z" fill="#4B87A4"/>
<path d="M124.285 130.527C124.285 130.527 125.531 106.938 124.014 92.3344C122.498 77.7308 115.289 67.8769 112.718 64.8139C110.146 61.7397 102.2 62.5084 98.5055 65.7304C94.8115 68.9525 89.0096 120.146 93.4689 129.203C97.9282 138.259 124.285 130.527 124.285 130.527Z" fill="#DBE8EB"/>
<path d="M119.676 113.93C122.8 109.901 126.593 105.426 127.268 107.887C127.944 110.348 127.052 111.914 132.417 111.242C137.783 110.57 140.468 111.688 136.448 114.374C132.428 117.06 126.614 117.061 121.47 116.614C116.326 116.168 119.676 113.93 119.676 113.93Z" fill="#F1F3F6"/>
<g opacity="0.4" filter="url(#filter1_f_3489_729)">
<ellipse cx="96.5049" cy="96.7373" rx="8.23844" ry="12.5" transform="rotate(23.2569 96.5049 96.7373)" fill="#A6C5CD"/>
</g>
<g opacity="0.5" filter="url(#filter2_f_3489_729)">
<ellipse cx="120.532" cy="95.2464" rx="5.52687" ry="12.5" transform="rotate(-9.58935 120.532 95.2464)" fill="#A6C5CD"/>
</g>
<path d="M106.516 67.963C103.964 63.8469 98.0349 61.7094 91.4855 72.1009C84.9361 82.4924 83.498 96.5118 83.4384 101.616C83.3788 106.72 83.624 112.669 93.624 114.169C103.624 115.669 122.538 119.227 124.624 115.169C126.638 110.288 109.624 107.169 105.624 106.169C101.624 105.169 95.9048 103.561 95.9048 103.561C95.9048 103.561 110.018 73.6226 106.516 67.963Z" fill="#DBE8EB"/>
<path d="M119.436 65.694C120.827 60.7904 122.182 55.0818 119.8 55.9975C117.418 56.9132 116.685 58.56 114.045 53.841C111.405 49.1219 108.912 47.6227 109.133 52.4525C109.354 57.2823 112.801 61.9645 116.21 65.8417C119.62 69.7189 119.436 65.694 119.436 65.694Z" fill="white"/>
<path d="M134.622 111.589C131.981 115.197 127.463 110.428 122.603 102.36C118.901 96.2163 110.962 53.7037 119.569 65.8315C122.585 70.0811 125.672 78.703 129.938 85.88C134.203 93.0571 137.263 107.98 134.622 111.589Z" fill="#DBE8EB"/>
<path d="M94.7182 249.063L94.0647 254.356C93.9529 255.231 94.6752 256 95.6039 256L114.282 255.926C115.125 255.926 115.357 254.822 114.574 254.511L98.1924 248L94.7182 249.063Z" fill="#4B87A4"/>
<defs>
<filter id="filter0_d_3489_729" x="125" y="1" width="156" height="156" filterUnits="userSpaceOnUse" color-interpolation-filters="sRGB">
<feFlood flood-opacity="0" result="BackgroundImageFix"/>
<feColorMatrix in="SourceAlpha" type="matrix" values="0 0 0 0 0 0 0 0 0 0 0 0 0 0 0 0 0 0 127 0" result="hardAlpha"/>
<feOffset dy="12"/>
<feGaussianBlur stdDeviation="20"/>
<feColorMatrix type="matrix" values="0 0 0 0 0.85098 0 0 0 0 0.870588 0 0 0 0 0.894118 0 0 0 1 0"/>
<feBlend mode="normal" in2="BackgroundImageFix" result="effect1_dropShadow_3489_729"/>
<feBlend mode="normal" in="SourceGraphic" in2="effect1_dropShadow_3489_729" result="shape"/>
</filter>
<filter id="filter1_f_3489_729" x="75.4678" y="72.7979" width="42.0742" height="47.8789" filterUnits="userSpaceOnUse" color-interpolation-filters="sRGB">
<feFlood flood-opacity="0" result="BackgroundImageFix"/>
<feBlend mode="normal" in="SourceGraphic" in2="BackgroundImageFix" result="shape"/>
<feGaussianBlur stdDeviation="6" result="effect1_foregroundBlur_3489_729"/>
</filter>
<filter id="filter2_f_3489_729" x="102.696" y="70.8857" width="35.6714" height="48.7207" filterUnits="userSpaceOnUse" color-interpolation-filters="sRGB">
<feFlood flood-opacity="0" result="BackgroundImageFix"/>
<feBlend mode="normal" in="SourceGraphic" in2="BackgroundImageFix" result="shape"/>
<feGaussianBlur stdDeviation="6" result="effect1_foregroundBlur_3489_729"/>
</filter>
<linearGradient id="paint0_linear_3489_729" x1="203" y1="49" x2="203" y2="89" gradientUnits="userSpaceOnUse">
<stop stop-color="white"/>
<stop offset="1" stop-color="white" stop-opacity="0"/>
</linearGradient>
</defs>
</svg>
