<svg width="75" height="25" viewBox="0 0 75 25" fill="none" xmlns="http://www.w3.org/2000/svg">
<g clip-path="url(#clip0_3490_2221)">
<path d="M5.95917 7.47898e-05C5.72997 7.47898e-05 5.50354 7.47898e-05 5.27496 0.00131817C5.08362 0.0025709 4.89381 0.00619821 4.70059 0.00925524C4.28092 0.0141914 3.86224 0.0511188 3.44818 0.119701C3.0347 0.189779 2.63417 0.321895 2.26014 0.511572C1.88656 0.702856 1.54522 0.95142 1.24849 1.24823C0.950195 1.54421 0.701547 1.88632 0.512095 2.26141C0.322129 2.63575 0.190406 3.0369 0.121468 3.45098C0.0518761 3.86455 0.0144344 4.28288 0.00947026 4.70222C0.00367405 4.89384 0.00305703 5.08611 0 5.27776V19.7241C0.00305703 19.9182 0.0036647 20.1062 0.00947026 20.3003C0.0144344 20.7197 0.0518854 21.138 0.121468 21.5515C0.190209 21.9658 0.321942 22.3672 0.512095 22.7417C0.701454 23.1156 0.950139 23.4563 1.24849 23.7506C1.5441 24.0488 1.88566 24.2975 2.26014 24.4873C2.63417 24.6775 3.03465 24.8104 3.44818 24.8816C3.86232 24.9496 4.28097 24.9865 4.70061 24.9921C4.8938 24.9963 5.08361 24.9987 5.27499 24.9987C5.50353 25 5.72999 25 5.95917 25H68.834C69.0586 25 69.2869 25 69.5115 24.9987C69.702 24.9987 69.8973 24.9963 70.0877 24.9921C70.5066 24.9868 70.9244 24.9499 71.3377 24.8816C71.7526 24.8099 72.1545 24.677 72.5303 24.4873C72.9045 24.2974 73.2457 24.0487 73.5411 23.7506C73.8386 23.4551 74.0879 23.1147 74.2796 22.7417C74.4683 22.3669 74.5988 21.9656 74.6665 21.5515C74.7362 21.1379 74.775 20.7197 74.7825 20.3003C74.785 20.1062 74.785 19.9182 74.785 19.7241C74.7898 19.4971 74.7898 19.2713 74.7898 19.0405V5.96013C74.7898 5.73125 74.7898 5.5042 74.785 5.27777C74.785 5.08612 74.785 4.89385 74.7825 4.7022C74.775 4.28282 74.7362 3.86459 74.6665 3.45096C74.5986 3.03711 74.4681 2.636 74.2796 2.26139C73.8938 1.50957 73.282 0.897581 72.5303 0.511525C72.1545 0.322307 71.7525 0.190228 71.3377 0.119654C70.9245 0.0507636 70.5066 0.0138361 70.0877 0.00918045C69.8973 0.00613277 69.702 0.00246806 69.5115 0.00125273C69.2869 1.08834e-10 69.0587 0 68.834 0" fill="#A6A6A6"/>
<path d="M69.5087 0.546875L70.0794 0.554812C70.4686 0.55944 70.8568 0.593404 71.2409 0.656433C71.6041 0.718116 71.956 0.833516 72.2852 0.998839C72.9339 1.33312 73.4616 1.86197 73.7946 2.5113C73.9574 2.83599 74.0702 3.18344 74.1291 3.54187C74.194 3.93187 74.2303 4.32609 74.2377 4.72137C74.2395 4.89837 74.2395 5.0885 74.2395 5.2777C74.2445 5.51208 74.2445 5.73516 74.2445 5.96007V19.0405C74.2445 19.2675 74.2445 19.4891 74.2395 19.7124C74.2395 19.9157 74.2395 20.1019 74.2371 20.2935C74.2298 20.6817 74.1941 21.0689 74.1303 21.4519C74.072 21.8151 73.9581 22.1671 73.7928 22.4957C73.628 22.816 73.4138 23.1082 73.158 23.3618C72.9027 23.6204 72.6074 23.8362 72.2834 24.0008C71.9551 24.1671 71.6037 24.2829 71.2409 24.3444C70.8546 24.4075 70.4641 24.4416 70.0727 24.4464C69.8896 24.4506 69.6979 24.4531 69.5118 24.4531L68.8343 24.4543L5.27827 24.4531C5.08785 24.4531 4.90202 24.4506 4.71309 24.4464C4.32171 24.4413 3.93124 24.4072 3.54489 24.3444C3.18463 24.2824 2.83564 24.167 2.50943 24.002C2.18621 23.8384 1.8914 23.6239 1.63631 23.3666C1.37752 23.1124 1.16207 22.8176 0.998489 22.4938C0.83311 22.1679 0.718654 21.8186 0.659111 21.4581C0.594811 21.0707 0.560024 20.6789 0.555051 20.2862C0.551087 20.1544 0.545898 19.7155 0.545898 19.7155V5.2777C0.545898 5.2777 0.551433 4.84557 0.555088 4.71861C0.559856 4.32654 0.594437 3.9354 0.658541 3.54857C0.718195 3.18702 0.832736 2.83671 0.998199 2.50976C1.16118 2.1862 1.37543 1.89114 1.63266 1.63601C1.8896 1.37849 2.18536 1.16286 2.50912 0.996998C2.83458 0.832544 3.18292 0.717947 3.54245 0.65704C3.93007 0.593647 4.3219 0.559374 4.71464 0.554504L5.27859 0.546875" fill="black"/>
<path d="M37.5478 13.8242C36.3256 13.8242 35.358 14.7408 35.358 16.014C35.358 17.2362 36.3256 18.2038 37.5478 18.2038C38.77 18.2038 39.7376 17.2871 39.7376 16.014C39.6867 14.7408 38.7191 13.8242 37.5478 13.8242ZM37.5478 17.2871C36.8857 17.2871 36.3256 16.7269 36.3256 15.963C36.3256 15.1992 36.8857 14.639 37.5478 14.639C38.2098 14.639 38.77 15.1482 38.77 15.963C38.77 16.7779 38.2098 17.2871 37.5478 17.2871ZM32.8117 13.8242C31.5895 13.8242 30.6219 14.7408 30.6219 16.014C30.6219 17.2362 31.5895 18.2038 32.8117 18.2038C34.0339 18.2038 35.0015 17.2871 35.0015 16.014C34.9506 14.7408 33.983 13.8242 32.8117 13.8242ZM32.8117 17.2871C32.1496 17.2871 31.5895 16.7269 31.5895 15.963C31.5895 15.1992 32.1496 14.639 32.8117 14.639C33.4737 14.639 34.0339 15.1482 34.0339 15.963C34.0339 16.7779 33.4228 17.2871 32.8117 17.2871ZM27.1589 14.4862V15.4029H29.3488C29.2978 15.9121 29.0941 16.3195 28.8395 16.5742C28.5339 16.8797 28.0247 17.2362 27.159 17.2362C25.784 17.2362 24.7654 16.1668 24.7654 14.7918C24.7654 13.4168 25.8349 12.3473 27.159 12.3473C27.8719 12.3473 28.4321 12.6529 28.8395 13.0094L29.5015 12.3473C28.9414 11.8381 28.2284 11.4307 27.2099 11.4307C25.3766 11.4307 23.7979 12.9584 23.7979 14.7918C23.7979 16.6251 25.3765 18.1529 27.2099 18.1529C28.2284 18.1529 28.9414 17.8473 29.5525 17.1853C30.1636 16.5742 30.3673 15.7084 30.3673 15.0464C30.3673 14.8427 30.3673 14.639 30.3163 14.4862L27.1589 14.4862ZM50.2283 15.1992C50.0246 14.6899 49.5153 13.8242 48.395 13.8242C47.2746 13.8242 46.3579 14.6899 46.3579 16.014C46.3579 17.2362 47.2746 18.2038 48.4968 18.2038C49.4644 18.2038 50.0755 17.5927 50.2792 17.2362L49.5663 16.7269C49.3116 17.0834 49.0061 17.338 48.4968 17.338C47.9876 17.338 47.682 17.1343 47.4274 16.676L50.3302 15.4538L50.2283 15.1992ZM47.2746 15.9121C47.2746 15.0973 47.9366 14.639 48.395 14.639C48.7514 14.639 49.1079 14.8427 49.2098 15.0973L47.2746 15.9121ZM44.932 18.051H45.8996V11.6853H44.932V18.051ZM43.3533 14.3334C43.0987 14.0788 42.6913 13.8242 42.182 13.8242C41.1126 13.8242 40.0941 14.7918 40.0941 16.014C40.0941 17.2362 41.0617 18.1529 42.182 18.1529C42.6913 18.1529 43.0987 17.8982 43.3024 17.6436H43.3533V17.9492C43.3533 18.764 42.895 19.2223 42.182 19.2223C41.6218 19.2223 41.2144 18.8149 41.1126 18.4584L40.2978 18.8149C40.5524 19.3751 41.1635 20.0881 42.2329 20.0881C43.3533 20.0881 44.27 19.426 44.27 17.8473V13.977H43.3533L43.3533 14.3334ZM42.2839 17.2871C41.6219 17.2871 41.0617 16.7269 41.0617 15.963C41.0617 15.1992 41.6218 14.639 42.2839 14.639C42.9459 14.639 43.4552 15.1992 43.4552 15.963C43.4042 16.7779 42.895 17.2871 42.2839 17.2871ZM54.6588 11.6853H52.3672V18.051H53.3348V15.6575H54.6588C55.7283 15.6575 56.7468 14.8936 56.7468 13.6714C56.7468 12.4492 55.7283 11.6853 54.6588 11.6853ZM54.7098 14.7408H53.3348V12.551H54.7098C55.4227 12.551 55.8301 13.1621 55.8301 13.6205C55.8301 14.1297 55.4227 14.7408 54.7098 14.7408ZM60.5662 13.8242C59.8533 13.8242 59.1403 14.1297 58.8857 14.7918L59.7514 15.1482C59.9551 14.7918 60.2607 14.6899 60.6171 14.6899C61.1264 14.6899 61.5847 14.9955 61.6357 15.5047V15.5556C61.4829 15.4538 61.0755 15.301 60.6681 15.301C59.7514 15.301 58.8347 15.8103 58.8347 16.7269C58.8347 17.5927 59.5986 18.1529 60.4134 18.1529C61.0755 18.1529 61.381 17.8473 61.6357 17.5417H61.6866V18.051H62.6033V15.6066C62.5014 14.4353 61.6866 13.8242 60.5662 13.8242ZM60.4644 17.2871C60.1588 17.2871 59.7005 17.1343 59.7005 16.7269C59.7005 16.2177 60.2607 16.0649 60.719 16.0649C61.1264 16.0649 61.3301 16.1667 61.5847 16.2686C61.5338 16.8797 61.0246 17.2871 60.4644 17.2871ZM65.8625 13.9769L64.7931 16.7269H64.7421L63.6218 13.9769H62.6033L64.2838 17.8473L63.3162 19.9862H64.2838L66.881 13.9769L65.8625 13.9769ZM57.307 18.051H58.2746V11.6853H57.307V18.051Z" fill="white"/>
<path d="M8.16381 6.59277C8.01103 6.74555 7.90918 7.00018 7.90918 7.30574V18.5603C7.90918 18.8659 8.01103 19.1205 8.16381 19.2733L8.21473 19.3242L14.5295 13.0094V12.8566L8.16381 6.59277Z" fill="#5BC9F4"/>
<path d="M16.5665 15.0972L14.4785 13.0093V12.8565L16.5665 10.7686L16.6174 10.8195L19.1128 12.2454C19.8257 12.6528 19.8257 13.3148 19.1128 13.7222L16.5665 15.0972Z" fill="url(#paint0_linear_3490_2221)"/>
<path d="M16.6168 15.0974L14.4779 12.9585L8.16309 19.2733C8.41772 19.5279 8.77419 19.5279 9.23252 19.3242L16.6168 15.0974Z" fill="url(#paint1_linear_3490_2221)"/>
<path d="M16.6169 10.7688L9.18174 6.54192C8.72341 6.28729 8.36694 6.33821 8.1123 6.59284L14.478 12.9586L16.6169 10.7688Z" fill="url(#paint2_linear_3490_2221)"/>
<path d="M38.7187 10.1576C38.4132 10.1576 38.1585 10.0558 37.9548 9.903C37.7511 9.69929 37.7002 9.44467 37.7002 9.13911V8.83356C37.7002 8.73171 37.7511 8.57893 37.802 8.42615L38.0058 8.47707C37.9548 8.62985 37.9548 8.78263 37.9548 8.88448C37.9548 9.13911 38.0058 9.39373 38.1585 9.54652C38.3113 9.69931 38.4641 9.75023 38.7187 9.75023C38.9734 9.75023 39.2789 9.69931 39.5335 9.54652C39.7882 9.39373 39.9919 9.24097 40.0937 9.03727C39.8391 8.52801 39.7372 8.17153 39.7372 7.96783C39.7372 7.86598 39.7882 7.76412 39.8391 7.7132C39.89 7.66228 39.9919 7.56042 40.1447 7.45857C40.1447 7.61134 40.1956 7.81504 40.2974 8.17153C40.3993 8.22245 40.5521 8.27338 40.7048 8.27338C40.7388 8.27338 40.7558 8.29036 40.7558 8.32431V8.68078C40.7558 8.71473 40.7388 8.7317 40.7048 8.7317C40.603 8.7317 40.4502 8.7317 40.3484 8.68078V8.83356C40.3484 9.08819 40.2974 9.29189 40.1447 9.4956C39.9919 9.69931 39.7882 9.85208 39.5335 10.0049C39.228 10.0558 38.9733 10.1576 38.7187 10.1576ZM39.1261 7.10208C39.0243 7.20394 38.9224 7.35671 38.7696 7.50949C38.6169 7.35671 38.4641 7.25486 38.3622 7.15301C38.5659 6.9493 38.6678 6.84746 38.7696 6.74561C38.8715 6.84746 39.0243 6.94931 39.1261 7.10208Z" fill="white" stroke="white" stroke-width="0.10894" stroke-miterlimit="10"/>
<path d="M40.6544 8.6808C40.6318 8.6808 40.6318 8.6808 40.6544 8.6808L40.6035 8.27339C40.6035 8.23944 40.6205 8.22247 40.6544 8.22247C40.8072 8.22247 40.9091 8.17155 41.0109 8.12062C41.1128 8.06969 41.2146 7.96784 41.2656 7.81506L41.3674 7.61135C41.5202 7.3058 41.673 7.1021 41.7748 6.94931C41.8767 6.79653 42.0804 6.74561 42.2331 6.74561C42.335 6.74561 42.4368 6.79653 42.5387 6.94931C42.6405 7.1021 42.7424 7.25487 42.7933 7.45857C42.8442 7.66227 42.8952 7.86598 42.8952 8.06967C42.8952 8.17153 42.8952 8.27338 42.8442 8.37523C42.7933 8.47707 42.7424 8.57894 42.6405 8.62986C42.4368 8.62986 42.1822 8.57894 41.9276 8.52801C41.6729 8.47707 41.4692 8.37523 41.3165 8.27337C41.2146 8.37523 41.1127 8.47708 41.0109 8.52801C40.9091 8.62986 40.8072 8.6808 40.6544 8.6808ZM42.5387 8.27339C42.5387 8.01876 42.4878 7.81506 42.3859 7.61135C42.2841 7.40765 42.2331 7.3058 42.1313 7.3058C42.0804 7.3058 41.9785 7.3058 41.9276 7.35672C41.8767 7.40764 41.8257 7.45858 41.7239 7.56043C41.622 7.66229 41.5711 7.81506 41.4692 8.01876C41.7748 8.12062 42.1313 8.22247 42.5387 8.27339Z" fill="white"/>
<path d="M40.6544 8.6808C40.6318 8.6808 40.6318 8.6808 40.6544 8.6808ZM40.6544 8.6808L40.6035 8.27339C40.6035 8.23944 40.6205 8.22247 40.6544 8.22247C40.8072 8.22247 40.9091 8.17155 41.0109 8.12062C41.1128 8.06969 41.2146 7.96784 41.2656 7.81506L41.3674 7.61135C41.5202 7.3058 41.673 7.1021 41.7748 6.94931C41.8767 6.79653 42.0804 6.74561 42.2331 6.74561C42.335 6.74561 42.4368 6.79653 42.5387 6.94931C42.6405 7.1021 42.7424 7.25487 42.7933 7.45857C42.8442 7.66227 42.8952 7.86598 42.8952 8.06967C42.8952 8.17153 42.8952 8.27338 42.8442 8.37523C42.7933 8.47707 42.7424 8.57894 42.6405 8.62986C42.4368 8.62986 42.1822 8.57894 41.9276 8.52801C41.6729 8.47707 41.4692 8.37523 41.3165 8.27337C41.2146 8.37523 41.1127 8.47708 41.0109 8.52801C40.9091 8.62986 40.8072 8.6808 40.6544 8.6808ZM42.5387 8.27339C42.5387 8.01876 42.4878 7.81506 42.3859 7.61135C42.2841 7.40765 42.2331 7.3058 42.1313 7.3058C42.0804 7.3058 41.9785 7.3058 41.9276 7.35672C41.8767 7.40764 41.8257 7.45858 41.7239 7.56043C41.622 7.66229 41.5711 7.81506 41.4692 8.01876C41.7748 8.12062 42.1313 8.22247 42.5387 8.27339Z" stroke="white" stroke-width="0.10894" stroke-miterlimit="10"/>
<path d="M46.0014 8.47677C45.7977 8.47677 45.6449 8.42584 45.594 8.42584C45.4921 8.42584 45.4412 8.37492 45.3393 8.37492C45.2375 8.324 45.1866 8.324 45.0847 8.27307C44.9829 8.22214 44.9319 8.17121 44.881 8.12029C44.8301 8.06937 44.8301 8.01844 44.8301 8.01844C44.8301 7.96751 44.8301 7.86566 44.881 7.76381C44.9319 7.66195 44.9828 7.5601 44.9828 7.50917C45.0338 7.40732 45.1866 7.30547 45.3393 7.1527C45.543 6.99992 45.7467 6.89807 45.9504 6.79622V6.64344C46.1032 6.54159 46.2051 6.43974 46.3579 6.33789L46.4088 8.17121C46.5616 8.27307 46.7653 8.32399 46.969 8.32399C47.0029 8.32399 47.0199 8.34097 47.0199 8.37491V8.73139C47.0199 8.76533 47.0029 8.78231 46.969 8.78231C46.7653 8.78231 46.5616 8.73139 46.4088 8.68046C46.256 8.5786 46.2051 8.47675 46.1542 8.32398V8.22213L46.0014 8.47677ZM45.0847 7.66195C45.2375 7.81473 45.3903 7.86566 45.594 7.91658C45.7977 7.9675 46.0014 7.9675 46.2051 7.9675L46.0523 7.05084C45.594 7.25455 45.2884 7.45825 45.0847 7.66195Z" fill="white" stroke="white" stroke-width="0.10894" stroke-miterlimit="10"/>
<path d="M48.5481 7.40724C48.599 7.40724 48.6499 7.40724 48.7009 7.45816C48.65 7.61094 48.599 7.76371 48.5481 7.86557C48.4972 7.96742 48.4463 8.01834 48.4463 8.06928C48.5481 8.17113 48.7009 8.22205 48.8027 8.22205C48.9046 8.22205 49.0064 8.27297 49.1592 8.27297C49.1932 8.27297 49.2101 8.28995 49.2101 8.3239V8.68037C49.2101 8.71433 49.1932 8.7313 49.1592 8.7313C48.8027 8.7313 48.4972 8.62944 48.2935 8.42574L48.1916 8.5276C48.1407 8.57852 48.0389 8.62945 47.7842 8.68037C47.5296 8.7313 47.3259 8.7313 47.1222 8.7313C47.0883 8.7313 47.0713 8.71432 47.0713 8.68037V8.27297C47.0713 8.23901 47.0883 8.22204 47.1222 8.22204C47.3768 8.22204 47.5296 8.22204 47.7333 8.17112C47.8861 8.17112 47.988 8.1202 48.0898 8.06927C48.1917 8.01833 48.2426 7.86556 48.3954 7.61094L48.4972 7.40723C48.3954 7.40723 48.4463 7.40724 48.5481 7.40724ZM48.0389 9.39335C47.9879 9.4952 47.8861 9.64798 47.6824 9.80075C47.5296 9.64798 47.3768 9.54612 47.3259 9.44428C47.4277 9.34242 47.5296 9.24057 47.6824 9.0878C47.7333 9.0878 47.8351 9.18965 48.0389 9.39335ZM48.9046 9.29149C48.8537 9.39334 48.7009 9.54612 48.5481 9.64797C48.3953 9.49519 48.2426 9.39334 48.1916 9.29149C48.2935 9.18964 48.3953 9.08778 48.5481 8.93501C48.599 8.98594 48.7009 9.13872 48.9046 9.29149Z" fill="white" stroke="white" stroke-width="0.10894" stroke-miterlimit="10"/>
<path d="M49.2101 8.6806C49.1875 8.6806 49.1875 8.6806 49.2101 8.6806L49.1592 8.32412C49.1592 8.29018 49.1762 8.2732 49.2101 8.2732C49.4138 8.2732 49.6175 8.22228 49.8212 8.12042C49.7703 7.71302 49.7194 7.00006 49.6684 5.98155L49.6175 5.21766C49.7194 5.11581 49.8721 5.01395 49.974 4.91211C49.974 5.42136 50.0249 6.23618 50.0249 7.30562V8.0695C50.1777 8.17136 50.3814 8.22228 50.5851 8.22228C50.6191 8.22228 50.636 8.23926 50.636 8.2732V8.62968C50.636 8.66362 50.619 8.6806 50.5851 8.6806C50.3305 8.6806 50.0758 8.62968 49.9231 8.47689C49.7703 8.57875 49.6684 8.62967 49.5666 8.62967C49.5157 8.68059 49.3629 8.6806 49.2101 8.6806Z" fill="white"/>
<path d="M49.2101 8.6806C49.1875 8.6806 49.1875 8.6806 49.2101 8.6806ZM49.2101 8.6806L49.1592 8.32412C49.1592 8.29018 49.1762 8.2732 49.2101 8.2732C49.4138 8.2732 49.6175 8.22228 49.8212 8.12042C49.7703 7.71302 49.7194 7.00006 49.6684 5.98155L49.6175 5.21766C49.7194 5.11581 49.8721 5.01395 49.974 4.91211C49.974 5.42136 50.0249 6.23618 50.0249 7.30562V8.0695C50.1777 8.17136 50.3814 8.22228 50.5851 8.22228C50.6191 8.22228 50.636 8.23926 50.636 8.2732V8.62968C50.636 8.66362 50.619 8.6806 50.5851 8.6806C50.3305 8.6806 50.0758 8.62968 49.9231 8.47689C49.7703 8.57875 49.6684 8.62967 49.5666 8.62967C49.5157 8.68059 49.3629 8.6806 49.2101 8.6806Z" stroke="white" stroke-width="0.10894" stroke-miterlimit="10"/>
<path d="M50.6359 8.68072L50.585 8.32424C50.585 8.2903 50.6019 8.27332 50.6359 8.27332H51.3488C51.247 8.2224 51.1961 8.12054 51.0942 8.01869C50.9924 7.91683 51.0433 7.76406 51.0433 7.66221C51.0433 7.50944 51.0942 7.35666 51.1961 7.15296C51.2979 6.94926 51.3998 6.8474 51.5526 6.74555C51.7054 6.6437 51.8072 6.59277 51.96 6.59277C52.1128 6.59277 52.2146 6.6437 52.3165 6.69463C52.4183 6.74555 52.5711 6.8474 52.7239 7.00018L52.622 7.15296C52.4692 7.10204 52.3674 7.0511 52.3165 7.0511H52.1128C51.8581 7.0511 51.6544 7.10203 51.3998 7.25481C51.3998 7.40759 51.4507 7.56037 51.5016 7.71314C51.6035 7.86592 51.7054 7.96778 51.8581 8.0187C52.0109 8.12055 52.1637 8.12055 52.3674 8.17147C52.5202 8.12055 52.622 8.12055 52.7748 8.06962C52.9276 8.0187 53.0803 7.96777 53.335 7.86591C53.3859 7.91683 53.4368 7.96777 53.4368 8.06962V8.12054C53.4368 8.2224 53.335 8.32425 53.1822 8.37517C52.7239 8.47703 52.4183 8.57888 52.1637 8.57888C51.96 8.62981 51.7053 8.6298 51.4507 8.68074C51.1961 8.73166 50.8905 8.68072 50.6359 8.68072Z" fill="white" stroke="white" stroke-width="0.10894" stroke-miterlimit="10"/>
<path d="M57.5109 8.98617L57.3581 8.06951C57.2053 7.10192 57.1035 6.43989 57.0525 6.0834C57.0016 5.72692 57.0016 5.47229 57.0016 5.37044C57.0016 5.26859 57.0525 5.16673 57.1034 5.06489C57.1544 5.01396 57.2562 4.96303 57.3581 4.91211V4.96303C57.3581 4.96303 57.409 5.16674 57.5618 5.57414L57.409 5.67599V5.77785L57.6127 7.4584C57.6636 7.71303 57.6636 7.91673 57.6636 8.17136C57.7655 8.22229 57.9183 8.27322 58.071 8.27322C58.105 8.27322 58.122 8.2902 58.122 8.32414V8.68062C58.122 8.71456 58.105 8.73154 58.071 8.73154C57.9182 8.73154 57.8164 8.68062 57.6636 8.62969V8.8334C57.6636 9.08803 57.6127 9.29173 57.4599 9.49543C57.3072 9.69914 57.1034 9.85191 56.8488 10.0047C56.5942 10.1575 56.3396 10.2084 56.0849 10.2084C55.7794 10.2084 55.5247 10.1065 55.321 9.95377C55.1173 9.75006 55.0664 9.49543 55.0664 9.18988V8.88433C55.0664 8.78247 55.1173 8.6297 55.1683 8.47692L55.372 8.52784C55.321 8.68062 55.321 8.8334 55.321 8.93525C55.321 9.18988 55.372 9.4445 55.5247 9.59729C55.6775 9.75007 55.8303 9.801 56.0849 9.801C56.2377 9.801 56.4414 9.75008 56.6451 9.69914C56.8488 9.64821 57.0016 9.54637 57.1544 9.44451C57.3071 9.34266 57.4599 9.08803 57.5109 8.98617Z" fill="white" stroke="white" stroke-width="0.10894" stroke-miterlimit="10"/>
<path d="M62.5009 8.68058C62.3481 8.68058 62.1953 8.62965 62.0425 8.57872C61.8898 8.5278 61.737 8.42595 61.6351 8.32409C61.4823 8.42595 61.2786 8.5278 61.024 8.57872C60.7694 8.62964 60.5657 8.68058 60.3111 8.68058C60.0564 8.68058 59.7509 8.62965 59.4962 8.57872C59.2416 8.5278 58.987 8.42595 58.8342 8.37501L58.7324 8.47687C58.6305 8.62965 58.4268 8.68058 58.1212 8.68058C58.0873 8.68058 58.0703 8.6636 58.0703 8.62965V8.27318C58.0703 8.23922 58.0873 8.22226 58.1212 8.22226C58.274 8.22226 58.4268 8.17133 58.5287 8.1204C58.6305 8.06947 58.7324 7.91669 58.8342 7.76392L58.936 7.61115C58.987 7.56023 59.0379 7.50929 59.0888 7.50929C59.1398 7.50929 59.1907 7.50929 59.2416 7.56022C59.1398 7.76392 59.0888 7.86577 59.0888 7.96762C59.1907 8.01855 59.2925 8.06948 59.3435 8.06948C60.0564 7.10189 60.6675 6.64355 61.1768 6.64355C61.2786 6.64355 61.4314 6.69448 61.5842 6.79633C61.737 6.89819 61.8898 7.00004 61.9916 7.10189C62.0935 7.20373 62.1953 7.35652 62.1953 7.45836C62.1953 7.66207 62.1444 7.86577 61.9916 8.06947C62.1444 8.17132 62.3481 8.22225 62.6027 8.22225C62.6367 8.22225 62.6537 8.23922 62.6537 8.27317L62.5009 8.68058C62.5235 8.68058 62.5235 8.68058 62.5009 8.68058ZM60.362 8.27317C60.8712 8.27317 61.3296 8.12039 61.8388 7.81484C61.737 7.61113 61.5842 7.45836 61.4314 7.35651C61.2786 7.25465 61.1259 7.20373 60.9731 7.20373C60.8203 7.20373 60.5657 7.30558 60.362 7.45836C60.1074 7.61114 59.8527 7.86577 59.5472 8.22225C59.8527 8.22225 60.1583 8.27317 60.362 8.27317Z" fill="white"/>
<path d="M62.5009 8.68058C62.3481 8.68058 62.1953 8.62965 62.0425 8.57872C61.8898 8.5278 61.737 8.42595 61.6351 8.32409C61.4823 8.42595 61.2786 8.5278 61.024 8.57872C60.7694 8.62964 60.5657 8.68058 60.3111 8.68058C60.0564 8.68058 59.7509 8.62965 59.4962 8.57872C59.2416 8.5278 58.987 8.42595 58.8342 8.37501L58.7324 8.47687C58.6305 8.62965 58.4268 8.68058 58.1212 8.68058C58.0873 8.68058 58.0703 8.6636 58.0703 8.62965V8.27318C58.0703 8.23922 58.0873 8.22226 58.1212 8.22226C58.274 8.22226 58.4268 8.17133 58.5287 8.1204C58.6305 8.06947 58.7324 7.91669 58.8342 7.76392L58.936 7.61115C58.987 7.56023 59.0379 7.50929 59.0888 7.50929C59.1398 7.50929 59.1907 7.50929 59.2416 7.56022C59.1398 7.76392 59.0888 7.86577 59.0888 7.96762C59.1907 8.01855 59.2925 8.06948 59.3435 8.06948C60.0564 7.10189 60.6675 6.64355 61.1768 6.64355C61.2786 6.64355 61.4314 6.69448 61.5842 6.79633C61.737 6.89819 61.8898 7.00004 61.9916 7.10189C62.0935 7.20373 62.1953 7.35652 62.1953 7.45836C62.1953 7.66207 62.1444 7.86577 61.9916 8.06947C62.1444 8.17132 62.3481 8.22225 62.6027 8.22225C62.6367 8.22225 62.6537 8.23922 62.6537 8.27317L62.5009 8.68058ZM62.5009 8.68058C62.5235 8.68058 62.5235 8.68058 62.5009 8.68058ZM60.362 8.27317C60.8712 8.27317 61.3296 8.12039 61.8388 7.81484C61.737 7.61113 61.5842 7.45836 61.4314 7.35651C61.2786 7.25465 61.1259 7.20373 60.9731 7.20373C60.8203 7.20373 60.5657 7.30558 60.362 7.45836C60.1074 7.61114 59.8527 7.86577 59.5472 8.22225C59.8527 8.22225 60.1583 8.27317 60.362 8.27317Z" stroke="white" stroke-width="0.10894" stroke-miterlimit="10"/>
<path d="M62.5519 8.68049C62.5293 8.68049 62.5293 8.68049 62.5519 8.68049L62.501 8.32401C62.501 8.29007 62.518 8.27309 62.5519 8.27309C63.1121 8.27309 63.5195 8.22217 63.8251 8.12032L64.1306 8.01846C64.3343 7.91661 64.538 7.86568 64.6908 7.86568C64.538 7.81476 64.3852 7.71291 64.2834 7.61105C64.1306 7.5092 64.0288 7.40734 63.9269 7.35642C63.825 7.3055 63.7232 7.3055 63.6213 7.3055C63.4176 7.3055 63.2649 7.35642 63.163 7.45828L63.0102 7.56013C62.9593 7.50921 62.9084 7.40735 62.9084 7.35642C62.9084 7.20364 62.9593 7.10179 63.1121 6.99994C63.2139 6.89809 63.4176 6.84717 63.6213 6.84717C63.7232 6.84717 63.876 6.89809 63.9778 6.94902C64.0797 6.99995 64.2325 7.1018 64.3852 7.20365C64.5889 7.35643 64.7417 7.45828 64.8945 7.50921C65.0473 7.56013 65.1491 7.61106 65.3019 7.66198C65.4547 7.71291 65.6584 7.71291 65.913 7.71291L65.7093 8.12032C65.6075 8.12032 65.5056 8.12032 65.4038 8.06939H65.3019C65.1491 8.06939 65.0473 8.06939 64.9454 8.12032C64.8436 8.17124 64.6399 8.22217 64.3852 8.37495C64.1306 8.52772 63.876 8.62958 63.6214 8.6805C63.3667 8.62958 63.0102 8.68049 62.5519 8.68049Z" fill="white"/>
<path d="M62.5519 8.68049C62.5293 8.68049 62.5293 8.68049 62.5519 8.68049ZM62.5519 8.68049L62.501 8.32401C62.501 8.29007 62.518 8.27309 62.5519 8.27309C63.1121 8.27309 63.5195 8.22217 63.8251 8.12032L64.1306 8.01846C64.3343 7.91661 64.538 7.86568 64.6908 7.86568C64.538 7.81476 64.3852 7.71291 64.2834 7.61105C64.1306 7.5092 64.0288 7.40734 63.9269 7.35642C63.825 7.3055 63.7232 7.3055 63.6213 7.3055C63.4176 7.3055 63.2649 7.35642 63.163 7.45828L63.0102 7.56013C62.9593 7.50921 62.9084 7.40735 62.9084 7.35642C62.9084 7.20364 62.9593 7.10179 63.1121 6.99994C63.2139 6.89809 63.4176 6.84717 63.6213 6.84717C63.7232 6.84717 63.876 6.89809 63.9778 6.94902C64.0797 6.99995 64.2325 7.1018 64.3852 7.20365C64.5889 7.35643 64.7417 7.45828 64.8945 7.50921C65.0473 7.56013 65.1491 7.61106 65.3019 7.66198C65.4547 7.71291 65.6584 7.71291 65.913 7.71291L65.7093 8.12032C65.6075 8.12032 65.5056 8.12032 65.4038 8.06939H65.3019C65.1491 8.06939 65.0473 8.06939 64.9454 8.12032C64.8436 8.17124 64.6399 8.22217 64.3852 8.37495C64.1306 8.52772 63.876 8.62958 63.6214 8.6805C63.3667 8.62958 63.0102 8.68049 62.5519 8.68049Z" stroke="white" stroke-width="0.10894" stroke-miterlimit="10"/>
<path d="M66.6263 6.79637V7.15285C66.6263 7.50933 66.6263 8.01859 66.5754 8.6297L66.3208 8.68062C66.3208 7.35655 66.2698 6.28711 66.168 5.42136V5.37044C66.168 5.26859 66.2189 5.16673 66.2698 5.06489C66.3207 5.01396 66.4226 4.96303 66.5754 4.91211V4.96303C66.5754 4.96303 66.6263 5.16674 66.7791 5.57414L66.6263 5.72692V5.77784C66.6263 6.13432 66.6263 6.49082 66.6263 6.79637Z" fill="white" stroke="white" stroke-width="0.10894" stroke-miterlimit="10"/>
</g>
<defs>
<linearGradient id="paint0_linear_3490_2221" x1="18.6657" y1="12.9329" x2="6.35346" y2="12.9329" gradientUnits="userSpaceOnUse">
<stop stop-color="#FEE000"/>
<stop offset="0.1941" stop-color="#FCCF0B"/>
<stop offset="0.5469" stop-color="#FAB318"/>
<stop offset="0.8279" stop-color="#F9A21B"/>
<stop offset="1" stop-color="#F99B1C"/>
</linearGradient>
<linearGradient id="paint1_linear_3490_2221" x1="15.4679" y1="14.1073" x2="3.88767" y2="25.6876" gradientUnits="userSpaceOnUse">
<stop stop-color="#EF4547"/>
<stop offset="1" stop-color="#C6186D"/>
</linearGradient>
<linearGradient id="paint2_linear_3490_2221" x1="3.83187" y1="0.148065" x2="13.2869" y2="9.6031" gradientUnits="userSpaceOnUse">
<stop stop-color="#279E6F"/>
<stop offset="0.3168" stop-color="#4DAB6D"/>
<stop offset="0.7398" stop-color="#6ABA6A"/>
<stop offset="1" stop-color="#74C169"/>
</linearGradient>
<clipPath id="clip0_3490_2221">
<rect width="74.7898" height="25" fill="white"/>
</clipPath>
</defs>
</svg>
