<svg width="287" height="34" viewBox="0 0 287 34" fill="none" xmlns="http://www.w3.org/2000/svg">
<rect y="0.666504" width="286.67" height="33.3333" rx="5" fill="#F1F1F1"/>
<rect x="0.5" y="1.1665" width="285.67" height="32.3333" rx="4.5" stroke="#333333" stroke-opacity="0.3"/>
<g clip-path="url(#clip0_4183_486)">
<path d="M171.627 18.3596V22.2796H170.38V12.5996H173.68C174.52 12.5996 175.233 12.8796 175.82 13.4396C176.413 13.9996 176.713 14.6796 176.713 15.4796C176.713 16.2996 176.413 16.9863 175.82 17.5329C175.24 18.0863 174.533 18.3596 173.68 18.3596H171.627ZM171.627 13.7929V17.1729H173.707C174.2 17.1729 174.613 17.0063 174.94 16.6729C175.273 16.3396 175.44 15.9396 175.44 15.4796C175.44 15.0263 175.273 14.6396 174.94 14.3063C174.613 13.9663 174.207 13.7929 173.707 13.7929H171.627Z" fill="#5F6368"/>
<path d="M179.967 15.4395C180.887 15.4395 181.613 15.6861 182.147 16.1795C182.68 16.6728 182.947 17.3461 182.947 18.1995V22.2861H181.753V21.3661H181.7C181.187 22.1261 180.5 22.4995 179.647 22.4995C178.913 22.4995 178.307 22.2861 177.813 21.8528C177.32 21.4195 177.073 20.8795 177.073 20.2328C177.073 19.5461 177.333 18.9995 177.853 18.5995C178.373 18.1928 179.067 17.9928 179.927 17.9928C180.667 17.9928 181.273 18.1261 181.753 18.3995V18.1128C181.753 17.6795 181.58 17.3128 181.24 17.0128C180.9 16.7128 180.493 16.5595 180.033 16.5595C179.34 16.5595 178.787 16.8528 178.387 17.4395L177.293 16.7528C177.893 15.8728 178.787 15.4395 179.967 15.4395ZM178.36 20.2528C178.36 20.5795 178.5 20.8461 178.773 21.0661C179.047 21.2795 179.373 21.3928 179.74 21.3928C180.26 21.3928 180.727 21.1995 181.14 20.8128C181.553 20.4261 181.753 19.9728 181.753 19.4461C181.367 19.1395 180.827 18.9861 180.133 18.9861C179.627 18.9861 179.207 19.1061 178.867 19.3528C178.527 19.5928 178.36 19.8928 178.36 20.2528Z" fill="#5F6368"/>
<path d="M189.713 15.6597L185.56 25.2063H184.273L185.813 21.8663L183.08 15.6597H184.433L186.407 20.4197H186.433L188.353 15.6597H189.713Z" fill="#5F6368"/>
<path d="M128.36 18.0399V16.5399H133.374C133.427 16.8065 133.454 17.1199 133.454 17.4599C133.454 18.5799 133.147 19.9732 132.16 20.9599C131.2 21.9599 129.967 22.4999 128.34 22.4999C125.32 22.4999 122.78 20.0399 122.78 17.0199C122.78 13.9999 125.314 11.5332 128.334 11.5332C130.007 11.5332 131.194 12.1865 132.087 13.0465L131.034 14.0999C130.394 13.4999 129.52 13.0332 128.334 13.0332C126.127 13.0332 124.407 14.8132 124.407 17.0199C124.407 19.2265 126.127 20.9999 128.334 20.9999C129.767 20.9999 130.58 20.4265 131.1 19.9065C131.527 19.4799 131.807 18.8732 131.914 18.0399H128.36Z" fill="#5F6368"/>
<path d="M141.087 18.9666C141.087 20.9999 139.494 22.4933 137.547 22.4933C135.6 22.4933 134.007 20.9933 134.007 18.9666C134.007 16.9199 135.6 15.4399 137.547 15.4399C139.5 15.4399 141.087 16.9266 141.087 18.9666ZM139.54 18.9666C139.54 17.6933 138.62 16.8266 137.547 16.8266C136.48 16.8266 135.554 17.6933 135.554 18.9666C135.554 20.2199 136.474 21.1066 137.547 21.1066C138.62 21.1066 139.54 20.2266 139.54 18.9666Z" fill="#5F6368"/>
<path d="M148.813 18.9666C148.813 20.9999 147.22 22.4933 145.273 22.4933C143.327 22.4933 141.733 20.9999 141.733 18.9666C141.733 16.9199 143.327 15.4399 145.273 15.4399C147.227 15.4399 148.813 16.9266 148.813 18.9666ZM147.267 18.9666C147.267 17.6933 146.347 16.8266 145.273 16.8266C144.207 16.8266 143.28 17.6933 143.28 18.9666C143.28 20.2199 144.2 21.1066 145.273 21.1066C146.34 21.1066 147.267 20.2266 147.267 18.9666Z" fill="#5F6368"/>
<path d="M156.22 15.6531V21.9864C156.22 24.5931 154.68 25.6598 152.867 25.6598C151.153 25.6598 150.127 24.5131 149.74 23.5731L151.087 23.0131C151.327 23.5864 151.913 24.2664 152.867 24.2664C154.027 24.2664 154.753 23.5464 154.753 22.1931V21.6864H154.7C154.353 22.1131 153.687 22.4864 152.84 22.4864C151.073 22.4864 149.46 20.9464 149.46 18.9731C149.46 16.9798 151.08 15.4331 152.84 15.4331C153.68 15.4331 154.353 15.8064 154.7 16.2198H154.753V15.6464L156.22 15.6531ZM154.86 18.9798C154.86 17.7398 154.033 16.8264 152.973 16.8264C151.907 16.8264 151.007 17.7331 151.007 18.9798C151.007 20.2064 151.9 21.1064 152.973 21.1064C154.027 21.1064 154.86 20.2131 154.86 18.9798Z" fill="#5F6368"/>
<path d="M158.847 11.9468V22.2868H157.294V11.9468H158.847Z" fill="#5F6368"/>
<path d="M164.834 20.1334L166.034 20.9334C165.647 21.5068 164.714 22.5001 163.094 22.5001C161.087 22.5001 159.594 20.9468 159.594 18.9734C159.594 16.8734 161.107 15.4468 162.92 15.4468C164.754 15.4468 165.647 16.9068 165.94 17.6934L166.1 18.0934L161.38 20.0468C161.74 20.7534 162.3 21.1134 163.094 21.1134C163.887 21.1068 164.434 20.7201 164.834 20.1334ZM161.134 18.8601L164.287 17.5468C164.114 17.1068 163.594 16.8001 162.98 16.8001C162.187 16.8068 161.094 17.5001 161.134 18.8601Z" fill="#5F6368"/>
<path d="M106.586 18.6866L111.246 10.6133L113.786 12.0799C115.426 13.0266 115.986 15.1199 115.04 16.7599L112.413 21.3066C111.82 22.3333 110.513 22.6799 109.486 22.0933L107.133 20.7333C106.42 20.3133 106.173 19.3999 106.586 18.6866Z" fill="url(#paint0_linear_4183_486)"/>
<path d="M106.093 13.0797L100.3 23.1197L102.84 24.5864C104.48 25.533 106.573 24.973 107.52 23.333L111.28 16.8197C111.873 15.793 111.52 14.4864 110.493 13.893L108.133 12.533C107.42 12.1197 106.506 12.3664 106.093 13.0797Z" fill="#FDBD00"/>
<path d="M111.246 10.6132L109.453 9.57317C107.406 8.39317 104.786 9.09317 103.6 11.1398L100.266 16.9132C99.6731 17.9398 100.026 19.2465 101.053 19.8398L102.846 20.8798C103.873 21.4732 105.18 21.1198 105.773 20.0932L109.753 13.1998C110.58 11.7665 112.406 11.2798 113.84 12.1065" fill="#2DA94F"/>
<path d="M104.12 12.833L102.14 11.693C101.253 11.1863 100.127 11.4863 99.62 12.3663L97.2333 16.473C96.06 18.493 96.76 21.0797 98.7866 22.253L100.293 23.1197L102.127 24.173L102.92 24.633C101.513 23.6863 101.067 21.7997 101.927 20.313L102.54 19.253L104.793 15.3597C105.307 14.4663 105 13.3397 104.12 12.833Z" fill="url(#paint1_linear_4183_486)"/>
</g>
<defs>
<linearGradient id="paint0_linear_4183_486" x1="107.754" y1="15.4141" x2="114.67" y2="17.9312" gradientUnits="userSpaceOnUse">
<stop offset="0.2" stop-color="#D93025"/>
<stop offset="0.6" stop-color="#EA4335"/>
</linearGradient>
<linearGradient id="paint1_linear_4183_486" x1="97.2557" y1="16.2283" x2="104.96" y2="19.0324" gradientUnits="userSpaceOnUse">
<stop offset="0.2" stop-color="#4285F4"/>
<stop offset="0.8" stop-color="#1B74E8"/>
</linearGradient>
<clipPath id="clip0_4183_486">
<rect width="93.0467" height="16.6667" fill="white" transform="translate(96.667 9)"/>
</clipPath>
</defs>
</svg>
