<svg width="46" height="46" viewBox="0 0 46 46" fill="none" xmlns="http://www.w3.org/2000/svg">
<g clip-path="url(#clip0_3489_362)">
<path d="M40.825 0H5.175C2.31693 0 0 2.31693 0 5.175V40.825C0 43.6831 2.31693 46 5.175 46H40.825C43.6831 46 46 43.6831 46 40.825V5.175C46 2.31693 43.6831 0 40.825 0Z" fill="#F1F3F6"/>
<g clip-path="url(#clip1_3489_362)">
<path d="M35.9805 20.1529L24.9674 20.1523C24.4811 20.1523 24.0869 20.5465 24.0869 21.0328V24.551C24.0869 25.0372 24.4811 25.4314 24.9674 25.4314H31.1692C30.4901 27.1939 29.2226 28.6698 27.6055 29.6077L30.2499 34.1855C34.492 31.7321 36.9999 27.4275 36.9999 22.6087C36.9999 21.9226 36.9494 21.4321 36.8482 20.8798C36.7713 20.4602 36.407 20.1529 35.9805 20.1529Z" fill="#167EE6"/>
<path d="M23.4998 30.7176C20.4647 30.7176 17.8152 29.0594 16.3921 26.6055L11.8145 29.244C14.144 33.2814 18.508 36.0003 23.4998 36.0003C25.9486 36.0003 28.2593 35.3409 30.2498 34.1919V34.1856L27.6053 29.6077C26.3957 30.3093 24.9959 30.7176 23.4998 30.7176Z" fill="#12B347"/>
<path d="M30.25 34.1916V34.1853L27.6055 29.6074C26.3959 30.309 24.9962 30.7173 23.5 30.7173V35.9999C25.9488 35.9999 28.2596 35.3406 30.25 34.1916Z" fill="#0F993E"/>
<path d="M15.2826 22.4996C15.2826 21.0036 15.6909 19.6039 16.3923 18.3944L11.8146 15.7559C10.6593 17.7401 10 20.0445 10 22.4996C10 24.9547 10.6593 27.2591 11.8146 29.2433L16.3923 26.6048C15.6909 25.3952 15.2826 23.9956 15.2826 22.4996Z" fill="#FFD500"/>
<path d="M23.4998 14.2826C25.479 14.2826 27.297 14.9859 28.7169 16.1557C29.0672 16.4442 29.5764 16.4234 29.8973 16.1025L32.39 13.6098C32.7541 13.2457 32.7282 12.6497 32.3393 12.3124C29.9601 10.2484 26.8646 9 23.4998 9C18.508 9 14.144 11.7188 11.8145 15.7563L16.3921 18.3948C17.8152 15.9409 20.4647 14.2826 23.4998 14.2826Z" fill="#FF4B26"/>
<path d="M28.7171 16.1557C29.0674 16.4442 29.5766 16.4234 29.8975 16.1025L32.3902 13.6098C32.7542 13.2457 32.7283 12.6497 32.3394 12.3124C29.9603 10.2483 26.8648 9 23.5 9V14.2826C25.4791 14.2826 27.2971 14.9859 28.7171 16.1557Z" fill="#D93F21"/>
</g>
</g>
<defs>
<clipPath id="clip0_3489_362">
<rect width="46" height="46" fill="white"/>
</clipPath>
<clipPath id="clip1_3489_362">
<rect width="27" height="27" fill="white" transform="translate(10 9)"/>
</clipPath>
</defs>
</svg>
