<svg width="51" height="51" viewBox="0 0 51 51" fill="none" xmlns="http://www.w3.org/2000/svg">
<mask id="mask0_3469_921" style="mask-type:luminance" maskUnits="userSpaceOnUse" x="2" y="1" width="48" height="48">
<path d="M32.2588 2.82069C32.2588 3.34115 32.6807 3.76305 33.2012 3.76305C33.7215 3.76305 34.1434 3.34115 34.1434 2.82069C34.1434 2.30032 33.7215 1.87842 33.2012 1.87842C32.6807 1.87842 32.2588 2.30032 32.2588 2.82069ZM28.4895 2.82069C28.4895 3.34115 28.9114 3.76305 29.4318 3.76305C29.9523 3.76305 30.3742 3.34115 30.3742 2.82069C30.3742 2.30032 29.9523 1.87842 29.4318 1.87842C28.9114 1.87842 28.4895 2.30032 28.4895 2.82069ZM22.8356 2.82069V4.70532C22.8356 5.22578 23.2574 5.64768 23.7779 5.64768C24.2984 5.64768 24.7203 5.22578 24.7203 4.70532V2.82069C24.7203 2.30032 24.2984 1.87842 23.7779 1.87842C23.2574 1.87842 22.8356 2.30032 22.8356 2.82069ZM30.3742 4.70532C30.3742 5.22578 30.7961 5.64768 31.3165 5.64768C31.8369 5.64768 32.2588 5.22578 32.2588 4.70532C32.2588 4.18495 31.8369 3.76305 31.3165 3.76305C30.7961 3.76305 30.3742 4.18495 30.3742 4.70532ZM26.6049 4.70532C26.6049 5.22578 27.0268 5.64768 27.5472 5.64768C28.0676 5.64768 28.4895 5.22578 28.4895 4.70532C28.4895 4.18495 28.0676 3.76305 27.5472 3.76305C27.0268 3.76305 26.6049 4.18495 26.6049 4.70532ZM17.1816 4.70532V6.59004C17.1816 7.11041 17.6035 7.53231 18.124 7.53231H19.0663V4.70532C19.0663 4.18495 18.6444 3.76305 18.124 3.76305C17.6035 3.76305 17.1816 4.18495 17.1816 4.70532ZM28.4895 6.59005C28.4895 7.11041 28.9114 7.53232 29.4318 7.53232C29.9523 7.53232 30.3742 7.11041 30.3742 6.59005C30.3742 6.06959 29.9523 5.64768 29.4318 5.64768C28.9114 5.64768 28.4895 6.06959 28.4895 6.59005ZM24.7203 6.59005V8.47468C24.7203 8.99505 25.1422 9.41695 25.6625 9.41695H26.6049V6.59005C26.6049 6.06959 26.183 5.64768 25.6625 5.64768C25.1422 5.64768 24.7203 6.06959 24.7203 6.59005ZM19.0663 5.64768V12.2439C19.0663 12.7644 19.4882 13.1862 20.0086 13.1862H20.9509V6.59005C20.9509 6.06959 20.5291 5.64768 20.0086 5.64768H19.0663ZM32.2588 7.53232V10.3593C32.2588 10.8797 32.6807 11.3016 33.2012 11.3016C33.7215 11.3016 34.1434 10.8797 34.1434 10.3593V8.47468C34.1434 7.95422 33.7215 7.53232 33.2012 7.53232H32.2588ZM31.3165 7.53232C30.7961 7.53232 30.3742 7.95422 30.3742 8.47468C30.3742 8.99505 30.7961 9.41695 31.3165 9.41695H32.2588V7.53232H31.3165ZM26.6049 7.53232V10.3593C26.6049 10.8797 27.0268 11.3016 27.5472 11.3016C28.0676 11.3016 28.4895 10.8797 28.4895 10.3593V8.47468C28.4895 7.95422 28.0676 7.53232 27.5472 7.53232H26.6049ZM20.9509 7.53232V14.1286C20.9509 14.649 21.3728 15.0709 21.8933 15.0709C22.4137 15.0709 22.8356 14.649 22.8356 14.1286V8.47467C22.8356 7.95422 22.4137 7.53231 21.8933 7.53231L20.9509 7.53232ZM18.124 9.41695C17.6035 9.41695 17.1816 9.83885 17.1816 10.3593C17.1816 10.8797 17.6035 11.3016 18.124 11.3016H19.0663V9.41695H18.124ZM28.4895 12.2439V20.7248H29.4318C29.9523 20.7248 30.3742 20.3029 30.3742 19.7825V12.2439C30.3742 11.7235 29.9523 11.3016 29.4318 11.3016C28.9114 11.3016 28.4895 11.7235 28.4895 12.2439ZM24.7203 12.2439V18.8402H25.6625C26.183 18.8402 26.6049 18.4183 26.6049 17.8978V12.2439C26.6049 11.7235 26.183 11.3016 25.6625 11.3016C25.1422 11.3016 24.7203 11.7235 24.7203 12.2439ZM32.2588 14.1286V16.0132C32.2588 16.5337 32.6807 16.9556 33.2012 16.9556C33.7215 16.9556 34.1434 16.5337 34.1434 16.0132V14.1286C34.1434 13.6081 33.7215 13.1862 33.2012 13.1862C32.6807 13.1862 32.2588 13.6081 32.2588 14.1286ZM17.1816 14.1286V16.0132C17.1816 16.5337 17.6035 16.9556 18.124 16.9556H19.0663V14.1286C19.0663 13.6081 18.6444 13.1862 18.124 13.1862C17.6035 13.1862 17.1816 13.6081 17.1816 14.1286ZM26.6049 15.0709V16.9556H28.4895V15.0709H26.6049ZM19.0663 15.0709V16.9556H20.0086C20.5291 16.9556 20.9509 16.5337 20.9509 16.0132C20.9509 15.4927 20.5291 15.0709 20.0086 15.0709H19.0663ZM45.4513 16.9556V18.8402H46.3936C46.914 18.8402 47.3359 18.4183 47.3359 17.8978C47.3359 17.3775 46.914 16.9556 46.3936 16.9556H45.4513ZM44.5089 16.9556C43.9886 16.9556 43.5667 17.3775 43.5667 17.8978C43.5667 18.4183 43.9886 18.8402 44.5089 18.8402H45.4513V16.9556H44.5089ZM39.7974 17.8978V27.3211C39.7974 27.8415 40.2192 28.2634 40.7397 28.2634C41.2601 28.2634 41.682 27.8415 41.682 27.3211V17.8978C41.682 17.3775 41.2601 16.9556 40.7397 16.9556C40.2192 16.9556 39.7974 17.3775 39.7974 17.8978ZM36.0281 16.9556V22.6095H37.9127V17.8978C37.9127 17.3775 37.4909 16.9556 36.9704 16.9556H36.0281ZM35.0858 16.9556C34.5653 16.9556 34.1434 17.3775 34.1434 17.8978C34.1434 18.4183 34.5653 18.8402 35.0858 18.8402H36.0281V16.9556H35.0858ZM22.8356 16.9556V21.6671C22.8356 22.1876 23.2574 22.6095 23.7779 22.6095C24.2984 22.6095 24.7203 22.1876 24.7203 21.6671V16.9556H22.8356ZM21.8933 16.9556C21.3728 16.9556 20.9509 17.3775 20.9509 17.8978C20.9509 18.4183 21.3728 18.8402 21.8933 18.8402H22.8356V16.9556H21.8933ZM15.297 16.9556V18.8402H16.2394C16.7597 18.8402 17.1816 18.4183 17.1816 17.8978C17.1816 17.3775 16.7597 16.9556 16.2394 16.9556H15.297ZM14.3547 16.9556C13.8343 16.9556 13.4124 17.3775 13.4124 17.8978C13.4124 18.4183 13.8343 18.8402 14.3547 18.8402H15.297V16.9556H14.3547ZM9.64311 16.9556V18.8402H10.5854C11.1058 18.8402 11.5277 18.4183 11.5277 17.8978C11.5277 17.3775 11.1058 16.9556 10.5854 16.9556H9.64311ZM7.75848 16.9556V20.7248H8.70075C9.22121 20.7248 9.64311 20.3029 9.64311 19.7825L9.64311 16.9556H7.75848ZM5.87385 16.9556V20.7248H7.75848V16.9556H5.87385ZM3.98912 16.9556V20.7248H5.87385V16.9556H3.98912ZM3.04685 16.9556C2.52639 16.9556 2.10449 17.3775 2.10449 17.8978V25.4365C2.10449 25.9568 2.52639 26.3787 3.04685 26.3787H3.98912V16.9556H3.04685ZM47.3359 19.7825C47.3359 20.3029 47.7578 20.7248 48.2783 20.7248C48.7987 20.7248 49.2206 20.3029 49.2206 19.7825C49.2206 19.2621 48.7987 18.8402 48.2783 18.8402C47.7578 18.8402 47.3359 19.2621 47.3359 19.7825ZM32.2588 19.7825V25.4365C32.2588 25.9568 32.6807 26.3787 33.2012 26.3787C33.7215 26.3787 34.1434 25.9568 34.1434 25.4365V19.7825C34.1434 19.2621 33.7215 18.8402 33.2012 18.8402C32.6807 18.8402 32.2588 19.2621 32.2588 19.7825ZM27.5472 18.8402C27.0268 18.8402 26.6049 19.2621 26.6049 19.7825C26.6049 20.3029 27.0268 20.7248 27.5472 20.7248H28.4895V18.8402H27.5472ZM17.1816 19.7825V24.4941H18.124C18.6444 24.4941 19.0663 24.0722 19.0663 23.5518V19.7825C19.0663 19.2621 18.6444 18.8402 18.124 18.8402C17.6035 18.8402 17.1816 19.2621 17.1816 19.7825ZM43.5667 21.6671C43.5667 22.1876 43.9886 22.6095 44.5089 22.6095C45.0294 22.6095 45.4513 22.1876 45.4513 21.6671C45.4513 21.1467 45.0294 20.7248 44.5089 20.7248C43.9886 20.7248 43.5667 21.1467 43.5667 21.6671ZM37.9127 20.7248V22.6095H39.7974V20.7248H37.9127ZM34.1434 20.7248V22.6095H36.0281V20.7248H34.1434ZM19.0663 20.7248V22.6095H20.0086C20.5291 22.6095 20.9509 22.1876 20.9509 21.6671C20.9509 21.1467 20.5291 20.7248 20.0086 20.7248H19.0663ZM15.297 20.7248V26.3787H16.2394C16.7597 26.3787 17.1816 25.9568 17.1816 25.4365V20.7248H15.297ZM14.3547 20.7248C13.8343 20.7248 13.4124 21.1467 13.4124 21.6671C13.4124 22.1876 13.8343 22.6095 14.3547 22.6095H15.297V20.7248H14.3547ZM47.3359 23.5518V33.9174H48.2783C48.7987 33.9174 49.2206 33.4954 49.2206 32.975V23.5518C49.2206 23.0314 48.7987 22.6095 48.2783 22.6095C47.7578 22.6095 47.3359 23.0314 47.3359 23.5518ZM31.3165 22.6095C30.7961 22.6095 30.3742 23.0314 30.3742 23.5518C30.3742 24.0722 30.7961 24.4941 31.3165 24.4941H32.2588V22.6095H31.3165ZM26.6049 23.5518C26.6049 24.0722 27.0268 24.4941 27.5472 24.4941C28.0676 24.4941 28.4895 24.0722 28.4895 23.5518C28.4895 23.0314 28.0676 22.6095 27.5472 22.6095C27.0268 22.6095 26.6049 23.0314 26.6049 23.5518ZM20.9509 23.5518V25.4365C20.9509 25.9568 21.3728 26.3787 21.8933 26.3787C22.4137 26.3787 22.8356 25.9568 22.8356 25.4365V23.5518C22.8356 23.0314 22.4137 22.6095 21.8933 22.6095C21.3728 22.6095 20.9509 23.0314 20.9509 23.5518ZM9.64311 22.6095V24.4941H10.5854C11.1058 24.4941 11.5277 24.0722 11.5277 23.5518C11.5277 23.0314 11.1058 22.6095 10.5854 22.6095H9.64311ZM7.75848 22.6095V24.4941H9.64311V22.6095H7.75848ZM5.87385 22.6095V26.3787H6.81612C7.33658 26.3787 7.75848 25.9568 7.75848 25.4365L7.75848 22.6095H5.87385ZM3.98912 22.6095V27.3211C3.98912 27.8415 4.41103 28.2634 4.93149 28.2634C5.45194 28.2634 5.87385 27.8415 5.87385 27.3211V22.6095H3.98912ZM36.0281 25.4365V33.9174H37.9127V25.4365C37.9127 24.916 37.4909 24.4941 36.9704 24.4941C36.45 24.4941 36.0281 24.916 36.0281 25.4365ZM13.4124 24.4941V26.3787H15.297V24.4941H13.4124ZM12.47 24.4941C11.9496 24.4941 11.5277 24.916 11.5277 25.4365C11.5277 25.9568 11.9496 26.3787 12.47 26.3787H13.4124V24.4941H12.47ZM43.5667 27.3211V29.2057C43.5667 29.7262 43.9886 30.148 44.5089 30.148C45.0294 30.148 45.4513 29.7262 45.4513 29.2057V27.3211C45.4513 26.8006 45.0294 26.3787 44.5089 26.3787C43.9886 26.3787 43.5667 26.8006 43.5667 27.3211ZM35.0858 26.3787C34.5653 26.3787 34.1434 26.8006 34.1434 27.3211V33.9174H36.0281V26.3787H35.0858ZM28.4895 26.3787V28.2634H29.4318C29.9523 28.2634 30.3742 27.8415 30.3742 27.3211C30.3742 26.8006 29.9523 26.3787 29.4318 26.3787H28.4895ZM27.5472 26.3787C27.0268 26.3787 26.6049 26.8006 26.6049 27.3211V32.0327H27.5472C28.0676 32.0327 28.4895 31.6108 28.4895 31.0904V26.3787H27.5472ZM22.8356 27.3211V30.148H24.7203V27.3211C24.7203 26.8006 24.2984 26.3787 23.7779 26.3787C23.2574 26.3787 22.8356 26.8006 22.8356 27.3211ZM19.0663 27.3211C19.0663 27.8415 19.4882 28.2634 20.0086 28.2634C20.5291 28.2634 20.9509 27.8415 20.9509 27.3211C20.9509 26.8006 20.5291 26.3787 20.0086 26.3787C19.4882 26.3787 19.0663 26.8006 19.0663 27.3211ZM9.64311 26.3787V28.2634H10.5854C11.1058 28.2634 11.5277 27.8415 11.5277 27.3211C11.5277 26.8006 11.1058 26.3787 10.5854 26.3787H9.64311ZM8.70075 26.3787C8.18038 26.3787 7.75848 26.8006 7.75848 27.3211C7.75848 27.8415 8.18038 28.2634 8.70075 28.2634H9.64311V26.3787H8.70075ZM37.9127 28.2634V30.148H38.855C39.3755 30.148 39.7974 29.7262 39.7974 29.2057C39.7974 28.6853 39.3755 28.2634 38.855 28.2634H37.9127ZM32.2588 28.2634V30.148H34.1434V28.2634H32.2588ZM31.3165 28.2634C30.7961 28.2634 30.3742 28.6853 30.3742 29.2057V31.0904C30.3742 31.6108 30.7961 32.0327 31.3165 32.0327C31.8369 32.0327 32.2588 31.6108 32.2588 31.0904V28.2634H31.3165ZM24.7203 28.2634V38.6289C24.7203 39.1493 25.1422 39.5712 25.6625 39.5712C26.183 39.5712 26.6049 39.1493 26.6049 38.6289V28.2634H24.7203ZM21.8933 28.2634C21.3728 28.2634 20.9509 28.6853 20.9509 29.2057V33.9174H22.8356V28.2634H21.8933ZM13.4124 28.2634V30.148H14.3547C14.8751 30.148 15.297 29.7262 15.297 29.2057C15.297 28.6853 14.8751 28.2634 14.3547 28.2634H13.4124ZM12.47 28.2634C11.9496 28.2634 11.5277 28.6853 11.5277 29.2057V33.9174H13.4124V28.2634H12.47ZM2.10449 29.2057C2.10449 29.7262 2.52639 30.148 3.04685 30.148C3.56731 30.148 3.98912 29.7262 3.98912 29.2057C3.98912 28.6853 3.56731 28.2634 3.04685 28.2634C2.52639 28.2634 2.10449 28.6853 2.10449 29.2057ZM20.0086 30.148C19.4882 30.148 19.0663 30.5699 19.0663 31.0904V37.6866H20.0086C20.5291 37.6866 20.9509 37.2647 20.9509 36.7443V30.148H20.0086ZM15.297 31.0904C15.297 31.6108 15.7189 32.0327 16.2394 32.0327C16.7597 32.0327 17.1816 31.6108 17.1816 31.0904C17.1816 30.5699 16.7597 30.148 16.2394 30.148C15.7189 30.148 15.297 30.5699 15.297 31.0904ZM5.87385 31.0904C5.87385 31.6108 6.29566 32.0327 6.81612 32.0327C7.33658 32.0327 7.75848 31.6108 7.75848 31.0904C7.75848 30.5699 7.33658 30.148 6.81612 30.148C6.29566 30.148 5.87385 30.5699 5.87385 31.0904ZM45.4513 32.0327V33.9174H47.3359V32.0327H45.4513ZM43.5667 32.0327V33.9174H45.4513V32.0327H43.5667ZM41.682 32.0327V35.802H42.6243C43.1448 35.802 43.5667 35.3801 43.5667 34.8596V32.0327H41.682ZM39.7974 32.0327V43.3405H41.682V32.0327H39.7974ZM37.9127 32.0327V33.9174H39.7974V32.0327H37.9127ZM33.2012 32.0327C32.6807 32.0327 32.2588 32.4545 32.2588 32.975V42.3982C32.2588 42.9186 32.6807 43.3405 33.2012 43.3405H34.1434V32.0327H33.2012ZM22.8356 32.0327V36.7443C22.8356 37.2647 23.2574 37.6866 23.7779 37.6866H24.7203V32.0327H22.8356ZM18.124 32.0327C17.6035 32.0327 17.1816 32.4545 17.1816 32.975C17.1816 33.4954 17.6035 33.9174 18.124 33.9174H19.0663V32.0327H18.124ZM13.4124 32.0327V33.9174H14.3547C14.8751 33.9174 15.297 33.4954 15.297 32.975C15.297 32.4545 14.8751 32.0327 14.3547 32.0327H13.4124ZM9.64311 32.0327V33.9174H11.5277V32.0327H9.64311ZM8.70075 32.0327C8.18038 32.0327 7.75848 32.4545 7.75848 32.975C7.75848 33.4954 8.18038 33.9174 8.70075 33.9174H9.64311V32.0327H8.70075ZM28.4895 34.8596V38.6289C28.4895 39.1493 28.9114 39.5712 29.4318 39.5712C29.9523 39.5712 30.3742 39.1493 30.3742 38.6289V34.8596C30.3742 34.3392 29.9523 33.9174 29.4318 33.9174C28.9114 33.9174 28.4895 34.3392 28.4895 34.8596ZM45.4513 36.7443C45.4513 37.2647 45.8732 37.6866 46.3936 37.6866C46.914 37.6866 47.3359 37.2647 47.3359 36.7443C47.3359 36.2239 46.914 35.802 46.3936 35.802C45.8732 35.802 45.4513 36.2239 45.4513 36.7443ZM36.0281 36.7443C36.0281 37.2647 36.45 37.6866 36.9704 37.6866C37.4909 37.6866 37.9127 37.2647 37.9127 36.7443C37.9127 36.2239 37.4909 35.802 36.9704 35.802C36.45 35.802 36.0281 36.2239 36.0281 36.7443ZM30.3742 35.802V37.6866H32.2588V35.802H30.3742ZM26.6049 35.802V37.6866H28.4895V35.802H26.6049ZM18.124 35.802C17.6035 35.802 17.1816 36.2239 17.1816 36.7443C17.1816 37.2647 17.6035 37.6866 18.124 37.6866H19.0663V35.802H18.124ZM47.3359 38.6289C47.3359 39.1493 47.7578 39.5712 48.2783 39.5712C48.7987 39.5712 49.2206 39.1493 49.2206 38.6289C49.2206 38.1085 48.7987 37.6866 48.2783 37.6866C47.7578 37.6866 47.3359 38.1085 47.3359 38.6289ZM41.682 37.6866V47.1098H42.6243C43.1448 47.1098 43.5667 46.688 43.5667 46.1675V38.6289C43.5667 38.1085 43.1448 37.6866 42.6243 37.6866H41.682ZM45.4513 39.5712V42.3982C45.4513 42.9186 45.8732 43.3405 46.3936 43.3405C46.914 43.3405 47.3359 42.9186 47.3359 42.3982V40.5136C47.3359 39.9931 46.914 39.5712 46.3936 39.5712H45.4513ZM43.5667 39.5712V41.4559H45.4513V39.5712H43.5667ZM37.9127 39.5712V43.3405H39.7974V39.5712H37.9127ZM36.0281 39.5712V43.3405H37.9127V39.5712H36.0281ZM34.1434 39.5712V43.3405H36.0281V39.5712H34.1434ZM31.3165 39.5712C30.7961 39.5712 30.3742 39.9931 30.3742 40.5136C30.3742 41.034 30.7961 41.4559 31.3165 41.4559H32.2588V39.5712H31.3165ZM20.9509 40.5136C20.9509 41.034 21.3728 41.4559 21.8933 41.4559C22.4137 41.4559 22.8356 41.034 22.8356 40.5136C22.8356 39.9931 22.4137 39.5712 21.8933 39.5712C21.3728 39.5712 20.9509 39.9931 20.9509 40.5136ZM17.1816 40.5136V48.0521C17.1816 48.5726 17.6035 48.9945 18.124 48.9945H19.0663V40.5136C19.0663 39.9931 18.6444 39.5712 18.124 39.5712C17.6035 39.5712 17.1816 39.9931 17.1816 40.5136ZM26.6049 41.4559V43.3405H27.5472C28.0676 43.3405 28.4895 42.9186 28.4895 42.3982C28.4895 41.8778 28.0676 41.4559 27.5472 41.4559H26.6049ZM25.6625 41.4559C25.1422 41.4559 24.7203 41.8778 24.7203 42.3982C24.7203 42.9186 25.1422 43.3405 25.6625 43.3405H26.6049V41.4559H25.6625ZM28.4895 44.2829V48.9945H29.4318C29.9523 48.9945 30.3742 48.5726 30.3742 48.0521V44.2829C30.3742 43.7624 29.9523 43.3405 29.4318 43.3405C28.9114 43.3405 28.4895 43.7624 28.4895 44.2829ZM20.9509 44.2829V48.9945H21.8933C22.4137 48.9945 22.8356 48.5726 22.8356 48.0521V44.2829C22.8356 43.7624 22.4137 43.3405 21.8933 43.3405C21.3728 43.3405 20.9509 43.7624 20.9509 44.2829ZM47.3359 45.2251V48.0521C47.3359 48.5726 47.7578 48.9945 48.2783 48.9945C48.7987 48.9945 49.2206 48.5726 49.2206 48.0521V46.1675C49.2206 45.647 48.7987 45.2251 48.2783 45.2251H47.3359ZM46.3936 45.2251C45.8732 45.2251 45.4513 45.647 45.4513 46.1675C45.4513 46.688 45.8732 47.1098 46.3936 47.1098H47.3359V45.2251H46.3936ZM39.7974 45.2251V47.1098H41.682V45.2251H39.7974ZM37.9127 45.2251V48.9945H38.855C39.3755 48.9945 39.7974 48.5726 39.7974 48.0521V45.2251H37.9127ZM36.0281 45.2251V48.9945H37.9127V45.2251H36.0281ZM35.0858 45.2251C34.5653 45.2251 34.1434 45.647 34.1434 46.1675V48.0521C34.1434 48.5726 34.5653 48.9945 35.0858 48.9945H36.0281V45.2251H35.0858ZM30.3742 45.2251V47.1098H31.3165C31.8369 47.1098 32.2588 46.688 32.2588 46.1675C32.2588 45.647 31.8369 45.2251 31.3165 45.2251H30.3742ZM24.7203 45.2251V48.0521C24.7203 48.5726 25.1422 48.9945 25.6625 48.9945H26.6049V46.1675C26.6049 45.647 26.183 45.2251 25.6625 45.2251H24.7203ZM22.8356 45.2251V47.1098H24.7203V45.2251H22.8356ZM43.5667 48.0521C43.5667 48.5726 43.9886 48.9945 44.5089 48.9945C45.0294 48.9945 45.4513 48.5726 45.4513 48.0521C45.4513 47.5317 45.0294 47.1098 44.5089 47.1098C43.9886 47.1098 43.5667 47.5317 43.5667 48.0521ZM26.6049 47.1098V48.9945H28.4895V47.1098H26.6049ZM19.0663 47.1098V48.9945H20.9509V47.1098H19.0663Z" fill="white"/>
</mask>
<g mask="url(#mask0_3469_921)">
<path d="M50.5099 0.687988H0.914062V50.2838H50.5099V0.687988Z" fill="black"/>
</g>
<mask id="mask1_3469_921" style="mask-type:luminance" maskUnits="userSpaceOnUse" x="2" y="1" width="14" height="15">
<path d="M2.10449 6.59002V10.3593C2.10449 12.9615 4.21395 15.0709 6.8161 15.0709H10.5854C13.1875 15.0709 15.297 12.9615 15.297 10.3593V6.59002C15.297 3.98788 13.1875 1.87842 10.5854 1.87842H6.8161C4.21395 1.87842 2.10449 3.98788 2.10449 6.59002ZM6.8161 3.76306H10.5854C12.1467 3.76306 13.4123 5.02874 13.4123 6.59002V10.3593C13.4123 11.9206 12.1467 13.1863 10.5854 13.1863H6.8161C5.25481 13.1863 3.98913 11.9206 3.98913 10.3593V6.59002C3.98913 5.02874 5.25481 3.76306 6.8161 3.76306Z" fill="white"/>
</mask>
<g mask="url(#mask1_3469_921)">
<path d="M15.297 1.87842H2.10449V15.0709H15.297V1.87842Z" fill="black"/>
</g>
<mask id="mask2_3469_921" style="mask-type:luminance" maskUnits="userSpaceOnUse" x="5" y="5" width="7" height="7">
<path d="M8.70099 11.3016C10.2623 11.3016 11.528 10.036 11.528 8.47467C11.528 6.91338 10.2623 5.64771 8.70099 5.64771C7.1397 5.64771 5.87402 6.91338 5.87402 8.47467C5.87402 10.036 7.1397 11.3016 8.70099 11.3016Z" fill="white"/>
</mask>
<g mask="url(#mask2_3469_921)">
<path d="M11.528 5.64771H5.87402V11.3016H11.528V5.64771Z" fill="black"/>
</g>
<mask id="mask3_3469_921" style="mask-type:luminance" maskUnits="userSpaceOnUse" x="36" y="1" width="14" height="15">
<path d="M44.5087 1.87842H40.7394C38.1373 1.87842 36.0278 3.98788 36.0278 6.59002V10.3593C36.0278 12.9615 38.1373 15.0709 40.7394 15.0709H44.5087C47.1109 15.0709 49.2203 12.9615 49.2203 10.3593V6.59002C49.2203 3.98788 47.1109 1.87842 44.5087 1.87842ZM47.3357 6.59002V10.3593C47.3357 11.9206 46.07 13.1863 44.5087 13.1863H40.7394C39.1781 13.1863 37.9125 11.9206 37.9125 10.3593V6.59002C37.9125 5.02874 39.1781 3.76306 40.7394 3.76306H44.5087C46.07 3.76306 47.3357 5.02874 47.3357 6.59002Z" fill="white"/>
</mask>
<g mask="url(#mask3_3469_921)">
<path d="M49.2203 1.87842H36.0278V15.0709H49.2203V1.87842Z" fill="black"/>
</g>
<mask id="mask4_3469_921" style="mask-type:luminance" maskUnits="userSpaceOnUse" x="39" y="5" width="7" height="7">
<path d="M42.6243 11.3016C44.1856 11.3016 45.4513 10.036 45.4513 8.47467C45.4513 6.91338 44.1856 5.64771 42.6243 5.64771C41.063 5.64771 39.7974 6.91338 39.7974 8.47467C39.7974 10.036 41.063 11.3016 42.6243 11.3016Z" fill="white"/>
</mask>
<g mask="url(#mask4_3469_921)">
<path d="M45.4513 5.64771H39.7974V11.3016H45.4513V5.64771Z" fill="black"/>
</g>
<mask id="mask5_3469_921" style="mask-type:luminance" maskUnits="userSpaceOnUse" x="2" y="35" width="14" height="14">
<path d="M6.8161 48.9945H10.5854C13.1875 48.9945 15.297 46.885 15.297 44.2829V40.5136C15.297 37.9115 13.1875 35.802 10.5854 35.802H6.8161C4.21395 35.802 2.10449 37.9115 2.10449 40.5136V44.2829C2.10449 46.885 4.21395 48.9945 6.8161 48.9945ZM3.98913 44.2829V40.5136C3.98913 38.9523 5.25481 37.6866 6.8161 37.6866H10.5854C12.1467 37.6866 13.4123 38.9523 13.4123 40.5136V44.2829C13.4123 45.8442 12.1467 47.1099 10.5854 47.1099H6.8161C5.25481 47.1099 3.98913 45.8442 3.98913 44.2829Z" fill="white"/>
</mask>
<g mask="url(#mask5_3469_921)">
<path d="M15.297 35.802H2.10449V48.9945H15.297V35.802Z" fill="black"/>
</g>
<mask id="mask6_3469_921" style="mask-type:luminance" maskUnits="userSpaceOnUse" x="5" y="39" width="7" height="7">
<path d="M8.70099 45.2252C10.2623 45.2252 11.528 43.9595 11.528 42.3983C11.528 40.837 10.2623 39.5713 8.70099 39.5713C7.1397 39.5713 5.87402 40.837 5.87402 42.3983C5.87402 43.9595 7.1397 45.2252 8.70099 45.2252Z" fill="white"/>
</mask>
<g mask="url(#mask6_3469_921)">
<path d="M11.528 39.5713H5.87402V45.2252H11.528V39.5713Z" fill="black"/>
</g>
</svg>
