<svg width="47" height="48" viewBox="0 0 47 48" fill="none" xmlns="http://www.w3.org/2000/svg">
<path d="M39.6529 0.986328H7.34312C3.28763 0.986328 0 4.27396 0 8.32945V40.6392C0 44.6947 3.28763 47.9823 7.34312 47.9823H39.6529C43.7084 47.9823 46.996 44.6947 46.996 40.6392V8.32945C46.996 4.27396 43.7084 0.986328 39.6529 0.986328Z" fill="white"/>
<path d="M13.8011 24.4877C13.8011 22.7254 14.2417 20.963 15.1229 19.4944V13.3262H8.95465C6.45799 16.5571 5.13623 20.3756 5.13623 24.4877C5.13623 28.5999 6.45799 32.4183 8.95465 35.6493H15.1229V29.481C14.2417 28.0124 13.8011 26.2501 13.8011 24.4877Z" fill="#FBBD00"/>
<path d="M23.4919 34.1796L19.2329 38.4386L23.4919 42.6976C27.6041 42.6976 31.4225 41.3758 34.6535 38.8792V32.7109H28.4852C27.0166 33.5921 25.2543 34.0327 23.4919 34.0327V34.1796Z" fill="#0F9D58"/>
<path d="M15.1228 29.4785L8.95459 35.6467C9.39518 36.2342 9.98263 36.8216 10.5701 37.4091C14.0948 40.9338 18.6475 42.843 23.494 42.843V34.1781C19.9693 34.1781 16.8852 32.2689 15.1228 29.4785Z" fill="#31AA52"/>
<path d="M41.8544 24.4885C41.8544 23.3136 41.8544 22.2856 41.5607 21.1107V20.2295H23.4966V28.8944H32.1615C31.2803 30.5099 29.9585 31.9785 28.4899 32.8597L34.6581 39.0279C35.2456 38.5873 35.833 37.9999 36.4205 37.4124C39.9452 33.8877 41.8544 29.335 41.8544 24.4885Z" fill="#3C79E6"/>
<path d="M30.3945 17.5842L31.1288 18.3185L37.1501 12.2971L36.4158 11.5628C32.8911 8.03812 28.3384 6.12891 23.4919 6.12891L19.2329 10.3879L23.4919 14.6469C26.1354 14.6469 28.4852 15.675 30.3945 17.4373V17.5842Z" fill="#CF2D48"/>
<path d="M23.494 14.7938V6.12891C18.6475 6.12891 13.9479 8.03812 10.5701 11.5628C9.98263 12.1503 9.39518 12.7377 8.95459 13.3252L15.1228 19.4934C16.8852 16.703 19.9693 14.7938 23.494 14.7938Z" fill="#EB4132"/>
</svg>
