<svg width="14" height="15" viewBox="0 0 14 15" fill="none" xmlns="http://www.w3.org/2000/svg">
<g clip-path="url(#clip0_490_7697)">
<path d="M11.8631 3.01C11.75 3.01 11.6375 2.97 11.5475 2.8875C10.1681 1.63 8.39812 0.9375 6.56312 0.9375C4.72811 0.9375 2.95812 1.63 1.57875 2.88813C1.38687 3.0625 1.09062 3.04813 0.916245 2.8575C0.74187 2.66625 0.755624 2.36937 0.946874 2.195C2.5 0.779372 4.49437 0 6.56313 0C8.63188 0 10.6263 0.779372 12.1794 2.195C12.3706 2.36937 12.3844 2.66562 12.21 2.8575C12.1175 2.95875 11.9906 3.01 11.8631 3.01Z" fill="#626E7B"/>
<path d="M12.6565 6.07313C12.5058 6.07313 12.3571 6.00063 12.2671 5.86563C10.9659 3.92813 8.83335 2.77125 6.56273 2.77125C4.2921 2.77125 2.1596 3.92813 0.85835 5.86563C0.713975 6.08126 0.422103 6.13813 0.207725 5.99376C-0.00727207 5.84938 -0.0647783 5.55813 0.0795967 5.34313C1.55522 3.14625 3.97898 1.83438 6.56273 1.83438C9.14648 1.83438 11.5702 3.14625 13.0458 5.34375C13.1902 5.55875 13.1333 5.85 12.9177 5.99438C12.8377 6.04751 12.7471 6.07313 12.6565 6.07313Z" fill="#626E7B"/>
<path d="M5.08163 15C4.96101 15 4.84039 14.9537 4.74851 14.8612C4.64602 14.7581 2.24414 12.3062 2.24414 9.94562C2.24414 7.49563 4.18102 5.5025 6.56227 5.5025C8.94352 5.5025 10.8804 7.49563 10.8804 9.94562C10.8804 10.2044 10.6704 10.4144 10.4116 10.4144C10.1529 10.4144 9.94289 10.2044 9.94289 9.94562C9.94289 8.0125 8.42664 6.44 6.56227 6.44C4.69789 6.44 3.18164 8.0125 3.18164 9.94562C3.18164 11.925 5.39227 14.1787 5.41477 14.2012C5.59727 14.385 5.59601 14.6819 5.41164 14.8644C5.3204 14.955 5.20101 15 5.08163 15Z" fill="#626E7B"/>
<path d="M8.04377 15C6.91627 15 4.30252 12.855 4.04939 10.4662C3.96002 9.62187 4.22876 8.75812 4.76752 8.15562C5.23627 7.63187 5.86939 7.34124 6.55001 7.33749H6.56314C7.22689 7.33749 7.85438 7.59812 8.33189 8.07249C8.83064 8.56812 9.10502 9.23374 9.10502 9.94624V10.2519C9.10502 11.005 9.69127 11.6175 10.4125 11.6175C11.1338 11.6175 11.7206 11.005 11.7206 10.2519V10.145C11.7206 7.22625 9.60627 4.79812 6.90689 4.61812C5.50001 4.5225 4.14939 5.00875 3.10751 5.98249C2.02627 6.99375 1.40626 8.43874 1.40626 9.94624C1.40626 11.1862 1.82626 12.3944 2.58876 13.3481C2.75001 13.5506 2.7175 13.845 2.515 14.0069C2.31313 14.1688 2.01813 14.1363 1.85625 13.9331C0.961875 12.8137 0.46875 11.3975 0.46875 9.94563C0.46875 8.17938 1.1975 6.485 2.46687 5.2975C3.69999 4.14375 5.29937 3.56938 6.96875 3.68188C10.1587 3.895 12.6581 6.73375 12.6581 10.1444V10.2513C12.6581 11.5213 11.6506 12.5544 10.4125 12.5544C9.17439 12.5544 8.1675 11.5213 8.1675 10.2513V9.94563C8.1675 9.48438 7.99125 9.05563 7.67125 8.73688C7.37125 8.43813 6.97813 8.27438 6.56376 8.27438H6.55501C6.02689 8.27688 5.67126 8.55125 5.46626 8.78063C5.10064 9.18875 4.91939 9.78251 4.98127 10.3675C5.18814 12.3163 7.42751 14.0631 8.04377 14.0631C8.30252 14.0631 8.51252 14.2731 8.51252 14.5319C8.51252 14.7906 8.30252 15 8.04377 15Z" fill="#626E7B"/>
<path d="M9.78227 14.0831C8.10477 14.0831 6.05664 12.0331 6.05664 9.64C6.05664 9.38125 6.26664 9.17125 6.52539 9.17125C6.78414 9.17125 6.99414 9.38125 6.99414 9.64C6.99414 11.495 8.55351 13.1456 9.78227 13.1456C10.041 13.1456 10.251 13.3556 10.251 13.6144C10.251 13.8731 10.041 14.0831 9.78227 14.0831Z" fill="#626E7B"/>
</g>
<defs>
<clipPath id="clip0_490_7697">
<rect width="13.1256" height="15" fill="white"/>
</clipPath>
</defs>
</svg>
