<svg width="12" height="11" viewBox="0 0 12 11" fill="none" xmlns="http://www.w3.org/2000/svg">
<g clip-path="url(#clip0_3482_1752)">
<path d="M9.62632 10.2255C9.70266 10.3018 9.80146 10.34 9.90249 10.34C9.99904 10.34 10.0978 10.3041 10.1719 10.2299L11.728 8.70687C11.8021 8.63498 11.8425 8.53614 11.8425 8.43056C11.8425 8.32498 11.7998 8.22838 11.728 8.15426L10.1719 6.63118C10.0192 6.48292 9.77675 6.48516 9.62632 6.63567C9.47812 6.78843 9.48037 7.03104 9.63081 7.18155L10.511 8.04418H9.53425C8.93923 8.04418 8.38014 7.78134 7.99618 7.32532L4.6057 2.70893C4.08702 1.97436 3.24052 1.53406 2.34238 1.53406H1.22868C1.01537 1.53405 0.844727 1.70703 0.844727 1.92044C0.844727 2.13385 1.01762 2.30457 1.22868 2.30457H2.34238C2.99129 2.30457 3.60427 2.62132 3.98149 3.15821L7.38545 7.79258C7.38994 7.79932 7.39443 7.80381 7.39892 7.81055C7.92883 8.45078 8.70573 8.81919 9.53651 8.81919H10.5132L9.63306 9.68181C9.47813 9.83007 9.47588 10.0727 9.62632 10.2255Z" fill="#626E7B"/>
<path d="M11.725 1.64411L10.16 0.109808C10.0073 -0.0384533 9.76481 -0.036211 9.61437 0.114299C9.46618 0.267058 9.46842 0.509668 9.61886 0.660178L10.5103 1.53403H9.53353C8.705 1.53403 7.92585 1.9002 7.39595 2.54043C7.39146 2.54492 7.38697 2.55166 7.38247 2.5584L6.74479 3.42777C6.61905 3.59849 6.65498 3.84111 6.82787 3.96691C6.89748 4.01633 6.97606 4.04104 7.05465 4.04104C7.17365 4.04104 7.29041 3.98713 7.3645 3.88379L7.99545 3.02566C8.37716 2.56739 8.93625 2.30681 9.53352 2.30681H10.5102L9.61884 3.18066C9.46616 3.32892 9.46392 3.57379 9.61435 3.72654C9.69069 3.80292 9.78949 3.8411 9.89053 3.8411C9.98708 3.8411 10.0859 3.80516 10.16 3.73103L11.725 2.19673C11.7991 2.12484 11.8395 2.026 11.8395 1.92042C11.8395 1.81484 11.7991 1.716 11.725 1.64411Z" fill="#626E7B"/>
<path d="M4.60277 7.64433L5.16186 6.88504C5.2876 6.71431 5.25168 6.4717 5.07878 6.3459C4.90814 6.2201 4.66564 6.25604 4.5399 6.42902L3.97856 7.19505C3.97632 7.19954 3.97407 7.20179 3.97183 7.20628C3.59685 7.73194 2.98612 8.04644 2.33945 8.04644H1.22575C1.01244 8.04644 0.841797 8.21941 0.841797 8.43283C0.841797 8.64624 1.01469 8.81696 1.22575 8.81696H2.33945C3.23759 8.81696 4.08409 8.37891 4.60277 7.64433Z" fill="#626E7B"/>
</g>
<defs>
<clipPath id="clip0_3482_1752">
<rect width="11" height="10.34" fill="white" transform="translate(0.841797)"/>
</clipPath>
</defs>
</svg>
