<svg width="8" height="16" viewBox="0 0 8 16" fill="none" xmlns="http://www.w3.org/2000/svg">
<path d="M3.59902 7.2C2.49622 7.2 1.59902 6.3028 1.59902 5.2C1.59902 4.0972 2.49622 3.2 3.59902 3.2C4.70182 3.2 5.59902 4.0972 5.59902 5.2C5.59902 5.6418 5.95717 6 6.39902 6C6.84087 6 7.19902 5.6418 7.19902 5.2C7.19902 3.48995 6.00012 2.0556 4.39902 1.6907V0.8C4.39902 0.3582 4.04087 0 3.59902 0C3.15717 0 2.79902 0.3582 2.79902 0.8V1.6907C1.19792 2.0556 -0.000976562 3.48995 -0.000976562 5.2C-0.000976562 7.18505 1.61397 8.8 3.59902 8.8C4.70182 8.8 5.59902 9.6972 5.59902 10.8C5.59902 11.9028 4.70182 12.8 3.59902 12.8C2.49622 12.8 1.59902 11.9028 1.59902 10.8C1.59902 10.3582 1.24087 10 0.799023 10C0.357173 10 -0.000976562 10.3582 -0.000976562 10.8C-0.000976562 12.51 1.19792 13.9444 2.79902 14.3093V15.2C2.79902 15.6418 3.15717 16 3.59902 16C4.04087 16 4.39902 15.6418 4.39902 15.2V14.3093C6.00012 13.9444 7.19902 12.51 7.19902 10.8C7.19902 8.81495 5.58407 7.2 3.59902 7.2Z" fill="#626E7B"/>
</svg>
