<svg width="12" height="11" viewBox="0 0 12 11" fill="none" xmlns="http://www.w3.org/2000/svg">
<g clip-path="url(#clip0_3482_1721)">
<path d="M6.31641 0C3.27656 0 0.816406 2.45988 0.816406 5.5C0.816406 8.5398 3.27628 11 6.31641 11C9.35625 11 11.8164 8.54012 11.8164 5.5C11.8164 2.4602 9.35653 0 6.31641 0ZM6.31641 10.2326C3.70687 10.2326 1.58385 8.10956 1.58385 5.5C1.58385 2.89044 3.70687 0.767442 6.31641 0.767442C8.92594 0.767442 11.049 2.89044 11.049 5.5C11.049 8.10956 8.92594 10.2326 6.31641 10.2326Z" fill="#626E7B"/>
<path d="M6.31624 4.58472C5.99045 4.58472 5.75879 4.72231 5.75879 4.92502V7.68331C5.75879 7.85707 5.99046 8.0308 6.31624 8.0308C6.62755 8.0308 6.88091 7.85707 6.88091 7.68331V4.92497C6.88091 4.72229 6.62755 4.58472 6.31624 4.58472Z" fill="#626E7B"/>
<path d="M6.31629 2.88342C5.98326 2.88342 5.72266 3.12233 5.72266 3.39744C5.72266 3.67257 5.98328 3.91872 6.31629 3.91872C6.64208 3.91872 6.90273 3.67257 6.90273 3.39744C6.90273 3.12233 6.64206 2.88342 6.31629 2.88342Z" fill="#626E7B"/>
</g>
<defs>
<clipPath id="clip0_3482_1721">
<rect width="11" height="11" fill="white" transform="translate(0.816406)"/>
</clipPath>
</defs>
</svg>
