<svg width="13" height="16" viewBox="0 0 13 16" fill="none" xmlns="http://www.w3.org/2000/svg">
<path fill-rule="evenodd" clip-rule="evenodd" d="M7.70215 0.888889V12.7407C7.70215 13.2314 8.10037 13.6296 8.59104 13.6296C9.0817 13.6296 9.47993 13.2314 9.47993 12.7407V0.888889C9.47993 0.398222 9.0817 0 8.59104 0C8.10037 0 7.70215 0.398222 7.70215 0.888889Z" fill="white"/>
<path fill-rule="evenodd" clip-rule="evenodd" d="M4.73969 15.1111V3.25925C4.73969 2.76858 4.34147 2.37036 3.8508 2.37036C3.36014 2.37036 2.96191 2.76858 2.96191 3.25925V15.1111C2.96191 15.6018 3.36014 16 3.8508 16C4.34147 16 4.73969 15.6018 4.73969 15.1111Z" fill="white"/>
<path fill-rule="evenodd" clip-rule="evenodd" d="M7.96357 1.51699L10.9265 4.47995C11.2726 4.82721 11.8368 4.82721 12.1828 4.47995C12.5301 4.13387 12.5301 3.56973 12.1828 3.22365L9.21987 0.260689C8.87379 -0.0865707 8.30964 -0.0865707 7.96357 0.260689C7.61631 0.606763 7.61631 1.17091 7.96357 1.51699Z" fill="white"/>
<path fill-rule="evenodd" clip-rule="evenodd" d="M4.47873 14.4829L1.51576 11.52C1.16969 11.1727 0.605542 11.1727 0.259468 11.52C-0.0877914 11.866 -0.0877914 12.4302 0.259468 12.7763L3.22243 15.7392C3.5685 16.0865 4.13265 16.0865 4.47873 15.7392C4.82599 15.3932 4.82599 14.829 4.47873 14.4829Z" fill="white"/>
</svg>
