<svg width="16" height="16" viewBox="0 0 16 16" fill="none" xmlns="http://www.w3.org/2000/svg">
<path fill-rule="evenodd" clip-rule="evenodd" d="M14.3097 5.24726C14.6781 6.09042 14.8827 7.02139 14.8827 8C14.8827 11.7991 11.7981 14.8837 7.99902 14.8837C4.19995 14.8837 1.1153 11.7991 1.1153 8C1.1153 4.20093 4.19995 1.11628 7.99902 1.11628C8.30712 1.11628 8.55716 0.866233 8.55716 0.55814C8.55716 0.250046 8.30712 0 7.99902 0C3.58377 0 -0.000976562 3.58474 -0.000976562 8C-0.000976562 12.4153 3.58377 16 7.99902 16C12.4143 16 15.999 12.4153 15.999 8C15.999 6.86214 15.7609 5.78009 15.3322 4.79926C15.2087 4.51721 14.879 4.38846 14.597 4.512C14.3149 4.63553 14.1862 4.96446 14.3097 5.24726Z" fill="white"/>
<path fill-rule="evenodd" clip-rule="evenodd" d="M11.7197 0C10.3057 0 9.1582 1.14753 9.1582 2.56149C9.1582 3.00353 9.35839 3.54158 9.66797 4.06698C10.2894 5.12446 11.3253 6.16186 11.3253 6.16186C11.5433 6.37991 11.8961 6.37991 12.1141 6.16186C12.1141 6.16186 13.15 5.12447 13.7714 4.06698C14.081 3.54158 14.2812 3.00354 14.2812 2.56149C14.2812 1.14754 13.1336 0 11.7197 0ZM11.7197 1.11628C12.5175 1.11628 13.1649 1.76372 13.1649 2.56149C13.1649 2.95442 12.8724 3.4374 12.5584 3.89284C12.2778 4.29916 11.9616 4.67721 11.7197 4.94958C11.4778 4.67721 11.1616 4.29916 10.881 3.89284C10.5669 3.4374 10.2745 2.95442 10.2745 2.56149C10.2745 1.76372 10.9219 1.11628 11.7197 1.11628Z" fill="white"/>
<path fill-rule="evenodd" clip-rule="evenodd" d="M0.261649 8.47326L2.69514 9.99438C3.13867 10.2712 3.65142 10.4186 4.17383 10.4186H4.73942C5.22835 10.4186 5.69272 10.6321 6.01123 11.0035L6.79337 11.9166C7.15951 12.3438 7.28676 12.9257 7.13272 13.466C6.93328 14.1626 6.71821 14.9164 6.71821 14.9164C6.63337 15.2126 6.80528 15.5214 7.10146 15.6063C7.39765 15.6911 7.70649 15.5192 7.79132 15.223C7.79132 15.223 8.00639 14.4692 8.20584 13.7726C8.46332 12.8721 8.25123 11.9017 7.641 11.1903C7.38574 10.8919 7.10444 10.5644 6.85811 10.2772C6.32825 9.65801 5.5543 9.30229 4.73942 9.30229H4.17383C3.86053 9.30229 3.55318 9.21447 3.28676 9.04778L0.852533 7.52666C0.591323 7.36368 0.246765 7.44257 0.0837886 7.70452C-0.0791882 7.96573 -0.000304555 8.31029 0.261649 8.47326Z" fill="white"/>
<path fill-rule="evenodd" clip-rule="evenodd" d="M3.03453 2.29588C3.03453 2.29588 3.78765 3.80211 4.22225 4.67132C4.48495 5.19746 4.96123 5.58444 5.52979 5.73476L6.83807 6.08081C7.16774 6.16788 7.423 6.42835 7.50337 6.75951L8.06374 9.05681C8.18504 9.55542 8.48942 9.99002 8.91658 10.275L9.26337 10.5057C9.75156 10.8317 10.3566 10.9322 10.9236 10.7811C11.4915 10.6308 11.9663 10.2438 12.229 9.71839L12.6569 8.86183C12.7789 8.61923 12.9999 8.44137 13.2634 8.37588C13.2634 8.37514 15.3404 7.85644 15.3404 7.85644C15.6388 7.78128 15.8211 7.47839 15.746 7.17923C15.6716 6.88081 15.3687 6.69848 15.0695 6.77365L12.9925 7.29234C12.4135 7.43746 11.9261 7.82816 11.6589 8.36248L11.2303 9.21904C11.1112 9.45793 10.8954 9.63355 10.6371 9.70202C10.3796 9.77048 10.1043 9.72509 9.88253 9.577L9.53574 9.3463C9.34151 9.21681 9.20309 9.01886 9.14802 8.79262L8.58839 6.49532C8.41053 5.76676 7.84867 5.19374 7.12309 5.00174L5.81481 4.65569C5.55658 4.58723 5.34002 4.4116 5.22095 4.17197C4.7856 3.30276 4.03323 1.79727 4.03323 1.79727C3.89556 1.52118 3.55993 1.40955 3.28458 1.54723C3.00849 1.6849 2.89686 2.02053 3.03453 2.29588Z" fill="white"/>
</svg>
