<svg width="16" height="16" viewBox="0 0 16 16" fill="none" xmlns="http://www.w3.org/2000/svg">
<path d="M0.999023 8.00001C0.999023 4.14001 4.13902 1.00001 7.99902 1.00001C9.71302 1.00001 11.3204 1.62001 12.5744 2.71734L12.1457 3.14667C11.831 3.46 12.053 4 12.499 4H14.1657C14.4417 4 14.6657 3.776 14.6657 3.5V1.83333C14.6657 1.39133 14.1284 1.164 13.8124 1.48L13.2817 2.01067C11.8397 0.726 9.98168 0 7.99901 0C3.58769 1e-05 -0.000976562 3.58868 -0.000976562 8.00001C-0.000976562 8.78201 0.114353 9.55934 0.341023 10.3107C0.420353 10.574 0.697023 10.7247 0.964353 10.6453C1.22835 10.5653 1.37835 10.2867 1.29835 10.022C1.09968 9.36402 0.999023 8.68401 0.999023 8.00001Z" fill="#626E7B"/>
<path d="M15.6567 5.68938C15.5767 5.42538 15.3 5.27405 15.0334 5.35471C14.7694 5.43471 14.6194 5.71338 14.6994 5.97804C14.898 6.63604 14.9987 7.31604 14.9987 8.00004C14.9987 11.86 11.8587 15 7.99869 15C6.28469 15 4.67736 14.38 3.42336 13.2827L3.85203 12.8534C4.1667 12.5401 3.9447 12.0001 3.4987 12.0001H1.83203C1.55603 12.0001 1.33203 12.2241 1.33203 12.5001V14.1667C1.33203 14.6114 1.8727 14.8334 2.18536 14.5201L2.71603 13.9894C4.15803 15.2741 6.01603 16.0001 7.9987 16.0001C12.41 16.0001 15.9987 12.4114 15.9987 8.00005C15.9987 7.21805 15.8834 6.44072 15.6567 5.68938Z" fill="#626E7B"/>
<path d="M7.99902 0C3.58769 0 -0.000976562 3.58867 -0.000976562 8C-0.000976562 8.782 0.114353 9.55933 0.341023 10.3107C0.405693 10.5267 0.603693 10.6667 0.819693 10.6667C0.867023 10.6667 0.915693 10.66 0.964363 10.6453C1.22836 10.5653 1.37836 10.2867 1.29836 10.022C1.09969 9.36401 0.999033 8.68401 0.999033 8.00001C0.999023 4.14 4.13902 1 7.99902 1V0Z" fill="#626E7B"/>
<path d="M3.4987 12H1.83203C1.55603 12 1.33203 12.224 1.33203 12.5V14.1667C1.33203 14.4673 1.57936 14.6667 1.8367 14.6667C1.95937 14.6667 2.08403 14.6213 2.18537 14.52L2.71604 13.9893C4.15804 15.274 6.01604 16 7.99871 16V15C6.28471 15 4.67738 14.38 3.42338 13.2827L3.85205 12.8533C4.16672 12.54 3.9447 12 3.4987 12Z" fill="#626E7B"/>
</svg>
