<svg width="16" height="16" viewBox="0 0 16 16" fill="none" xmlns="http://www.w3.org/2000/svg">
<path d="M12.0615 7.1875C12.4067 7.1875 12.6865 6.90768 12.6865 6.5625C12.6865 6.21732 12.4067 5.9375 12.0615 5.9375C11.7163 5.9375 11.4365 6.21732 11.4365 6.5625C11.4365 6.90768 11.7163 7.1875 12.0615 7.1875Z" fill="#626E7B"/>
<path d="M13.499 1.25H12.6865V0.625C12.6865 0.279813 12.4067 0 12.0615 0C11.7163 0 11.4365 0.279813 11.4365 0.625V1.25H8.59277V0.625C8.59277 0.279813 8.31296 0 7.96777 0C7.62259 0 7.34277 0.279813 7.34277 0.625V1.25H4.53027V0.625C4.53027 0.279813 4.25046 0 3.90527 0C3.56009 0 3.28027 0.279813 3.28027 0.625V1.25H2.49902C1.12052 1.25 -0.000976562 2.3715 -0.000976562 3.75V13.5C-0.000976562 14.8785 1.12052 16 2.49902 16H7.28027C7.62546 16 7.90527 15.7202 7.90527 15.375C7.90527 15.0298 7.62546 14.75 7.28027 14.75H2.49902C1.80977 14.75 1.24902 14.1892 1.24902 13.5V3.75C1.24902 3.06075 1.80977 2.5 2.49902 2.5H3.28027V3.125C3.28027 3.47019 3.56009 3.75 3.90527 3.75C4.25046 3.75 4.53027 3.47019 4.53027 3.125V2.5H7.34277V3.125C7.34277 3.47019 7.62259 3.75 7.96777 3.75C8.31296 3.75 8.59277 3.47019 8.59277 3.125V2.5H11.4365V3.125C11.4365 3.47019 11.7163 3.75 12.0615 3.75C12.4067 3.75 12.6865 3.47019 12.6865 3.125V2.5H13.499C14.1883 2.5 14.749 3.06075 14.749 3.75V7.3125C14.749 7.65769 15.0288 7.9375 15.374 7.9375C15.7192 7.9375 15.999 7.65769 15.999 7.3125V3.75C15.999 2.3715 14.8775 1.25 13.499 1.25Z" fill="#626E7B"/>
<path d="M12.2178 8.4375C10.1328 8.4375 8.43652 10.1337 8.43652 12.2188C8.43652 14.3038 10.1328 16 12.2178 16C14.3028 16 15.999 14.3038 15.999 12.2188C15.999 10.1337 14.3028 8.4375 12.2178 8.4375ZM12.2178 14.75C10.8221 14.75 9.68652 13.6145 9.68652 12.2188C9.68652 10.823 10.8221 9.6875 12.2178 9.6875C13.6135 9.6875 14.749 10.823 14.749 12.2188C14.749 13.6145 13.6135 14.75 12.2178 14.75Z" fill="#626E7B"/>
<path d="M13.124 11.5938H12.8428V10.9375C12.8428 10.5923 12.563 10.3125 12.2178 10.3125C11.8726 10.3125 11.5928 10.5923 11.5928 10.9375V12.2188C11.5928 12.5639 11.8726 12.8438 12.2178 12.8438H13.124C13.4692 12.8438 13.749 12.5639 13.749 12.2188C13.749 11.8736 13.4692 11.5938 13.124 11.5938Z" fill="#626E7B"/>
<path d="M9.34277 7.1875C9.68795 7.1875 9.96777 6.90768 9.96777 6.5625C9.96777 6.21732 9.68795 5.9375 9.34277 5.9375C8.9976 5.9375 8.71777 6.21732 8.71777 6.5625C8.71777 6.90768 8.9976 7.1875 9.34277 7.1875Z" fill="#626E7B"/>
<path d="M6.62402 9.90625C6.9692 9.90625 7.24902 9.62643 7.24902 9.28125C7.24902 8.93607 6.9692 8.65625 6.62402 8.65625C6.27885 8.65625 5.99902 8.93607 5.99902 9.28125C5.99902 9.62643 6.27885 9.90625 6.62402 9.90625Z" fill="#626E7B"/>
<path d="M3.90527 7.1875C4.25045 7.1875 4.53027 6.90768 4.53027 6.5625C4.53027 6.21732 4.25045 5.9375 3.90527 5.9375C3.5601 5.9375 3.28027 6.21732 3.28027 6.5625C3.28027 6.90768 3.5601 7.1875 3.90527 7.1875Z" fill="#626E7B"/>
<path d="M3.90527 9.90625C4.25045 9.90625 4.53027 9.62643 4.53027 9.28125C4.53027 8.93607 4.25045 8.65625 3.90527 8.65625C3.5601 8.65625 3.28027 8.93607 3.28027 9.28125C3.28027 9.62643 3.5601 9.90625 3.90527 9.90625Z" fill="#626E7B"/>
<path d="M3.90527 12.625C4.25045 12.625 4.53027 12.3452 4.53027 12C4.53027 11.6548 4.25045 11.375 3.90527 11.375C3.5601 11.375 3.28027 11.6548 3.28027 12C3.28027 12.3452 3.5601 12.625 3.90527 12.625Z" fill="#626E7B"/>
<path d="M6.62402 12.625C6.9692 12.625 7.24902 12.3452 7.24902 12C7.24902 11.6548 6.9692 11.375 6.62402 11.375C6.27885 11.375 5.99902 11.6548 5.99902 12C5.99902 12.3452 6.27885 12.625 6.62402 12.625Z" fill="#626E7B"/>
<path d="M6.62402 7.1875C6.9692 7.1875 7.24902 6.90768 7.24902 6.5625C7.24902 6.21732 6.9692 5.9375 6.62402 5.9375C6.27885 5.9375 5.99902 6.21732 5.99902 6.5625C5.99902 6.90768 6.27885 7.1875 6.62402 7.1875Z" fill="#626E7B"/>
</svg>
