<svg width="30" height="30" viewBox="0 0 30 30" fill="none" xmlns="http://www.w3.org/2000/svg">
<g clip-path="url(#clip0_3501_630)">
<path d="M26.625 0H3.375C1.51104 0 0 1.51104 0 3.375V26.625C0 28.489 1.51104 30 3.375 30H26.625C28.489 30 30 28.489 30 26.625V3.375C30 1.51104 28.489 0 26.625 0Z" fill="#626E7B"/>
<path d="M26.1928 10.3644C26.1401 9.16865 25.9467 8.3466 25.6697 7.63427C25.384 6.87815 24.9444 6.2012 24.3684 5.63844C23.8056 5.06692 23.1242 4.62285 22.3769 4.34154C21.6604 4.06455 20.8426 3.87118 19.6469 3.81845C18.4422 3.76127 18.0598 3.74805 15.0044 3.74805C11.949 3.74805 11.5666 3.76127 10.3663 3.81399C9.17061 3.86672 8.34855 4.06025 7.63639 4.33708C6.88009 4.62283 6.20314 5.06246 5.64039 5.63844C5.06887 6.2012 4.62497 6.88262 4.34349 7.62997C4.0665 8.3466 3.87313 9.16419 3.82041 10.3599C3.76322 11.5646 3.75 11.947 3.75 15.0024C3.75 18.0578 3.76322 18.4403 3.81594 19.6405C3.86867 20.8362 4.06221 21.6583 4.3392 22.3706C4.62495 23.1267 5.06887 23.8037 5.64039 24.3664C6.20316 24.9379 6.88457 25.382 7.63193 25.6633C8.34855 25.9403 9.16614 26.1337 10.3621 26.1864C11.5621 26.2393 11.9447 26.2524 15.0001 26.2524C18.0555 26.2524 18.4379 26.2393 19.6381 26.1864C20.8339 26.1337 21.6559 25.9403 22.3681 25.6633C23.8805 25.0786 25.0763 23.8828 25.661 22.3706C25.9378 21.654 26.1313 20.8362 26.1841 19.6405C26.2368 18.4403 26.25 18.0578 26.25 15.0024C26.25 11.947 26.2456 11.5646 26.1928 10.3644ZM24.1663 19.5526C24.1178 20.6516 23.9332 21.2451 23.7794 21.6408C23.4012 22.6212 22.6231 23.3992 21.6427 23.7774C21.2471 23.9313 20.6493 24.1159 19.5545 24.1641C18.3675 24.217 18.0116 24.2301 15.0089 24.2301C12.0062 24.2301 11.6458 24.217 10.4631 24.1641C9.36399 24.1159 8.77052 23.9313 8.37486 23.7774C7.88698 23.5971 7.44289 23.3113 7.08244 22.9376C6.70875 22.5727 6.423 22.1331 6.24268 21.6452C6.08882 21.2496 5.90421 20.6516 5.85594 19.557C5.80305 18.37 5.79 18.0139 5.79 15.0112C5.79 12.0085 5.80305 11.6481 5.85594 10.4656C5.90421 9.36648 6.0888 8.77301 6.24268 8.37735C6.423 7.8893 6.70875 7.44538 7.0869 7.08474C7.45164 6.71105 7.89127 6.4253 8.37932 6.24515C8.77498 6.09129 9.37294 5.90668 10.4675 5.85825C11.6545 5.80552 12.0107 5.7923 15.0132 5.7923C18.0203 5.7923 18.3763 5.80552 19.559 5.85825C20.6581 5.90668 21.2515 6.09129 21.6472 6.24515C22.1351 6.4253 22.5792 6.71105 22.9396 7.08474C23.3133 7.44967 23.599 7.88929 23.7794 8.37735C23.9332 8.77301 24.1178 9.3708 24.1663 10.4656C24.219 11.6525 24.2322 12.0085 24.2322 15.0112C24.2322 18.0139 24.219 18.3656 24.1663 19.5526Z" fill="white"/>
<path d="M15.0042 9.2207C11.8126 9.2207 9.22314 11.81 9.22314 15.0018C9.22314 18.1935 11.8126 20.7828 15.0042 20.7828C18.1959 20.7828 20.7853 18.1935 20.7853 15.0018C20.7853 11.81 18.1959 9.2207 15.0042 9.2207ZM15.0042 18.7518C12.9337 18.7518 11.2542 17.0725 11.2542 15.0018C11.2542 12.931 12.9337 11.2517 15.0042 11.2517C17.0749 11.2517 18.7542 12.931 18.7542 15.0018C18.7542 17.0725 17.0749 18.7518 15.0042 18.7518Z" fill="white"/>
<path d="M22.3639 8.99218C22.3639 9.73748 21.7596 10.3418 21.0142 10.3418C20.2689 10.3418 19.6646 9.73748 19.6646 8.99218C19.6646 8.2467 20.2689 7.64258 21.0142 7.64258C21.7596 7.64258 22.3639 8.24672 22.3639 8.99218Z" fill="white"/>
</g>
<defs>
<clipPath id="clip0_3501_630">
<rect width="30" height="30" fill="white"/>
</clipPath>
</defs>
</svg>
