<svg width="320" height="240" viewBox="0 0 320 240" fill="none" xmlns="http://www.w3.org/2000/svg">
<rect width="150" height="40" rx="5" fill="#626E7B"/>
<rect x="0.5" y="0.5" width="149" height="39" rx="4.5" stroke="#333333" stroke-opacity="0.3"/>
<g clip-path="url(#clip0_1983_885)">
<path d="M70.3948 30.6312H64.8619L68.3199 9.37973H73.8533L70.3948 30.6312ZM60.2073 9.37973L54.9325 23.9967L54.3083 20.8491L54.3089 20.8502L52.4472 11.2932C52.2163 10.0615 51.0659 9.22278 49.8226 9.37973H41.1023L41 9.73957C43.0414 10.2503 44.9931 11.0694 46.7875 12.1686L51.5945 30.6318H57.3593L66.162 9.37973H60.2073ZM103.726 30.6312H108.807L104.377 9.37917H99.9293C98.8237 9.29352 97.7901 9.93444 97.3752 10.9629L89.1234 30.6312H94.891L96.0444 27.4745H103.078L103.726 30.6312ZM97.6379 23.1138L100.545 15.161L102.18 23.1138H97.6379ZM89.556 14.4902L90.3456 9.92659C88.7467 9.35514 87.0668 9.04235 85.3693 9C82.6236 9 76.1033 10.2 76.1033 16.0353C76.1033 21.5255 83.756 21.5938 83.756 24.4776C83.756 27.3614 76.8918 26.8447 74.6265 25.0262L73.8039 29.7978C75.7803 30.625 77.9068 31.0336 80.0491 30.9978C83.8248 30.9978 89.5208 29.0429 89.5208 23.722C89.5208 18.1966 81.7994 17.6821 81.7994 15.2798C81.7999 12.8769 87.1883 13.1856 89.556 14.4902Z" fill="white"/>
</g>
<rect x="170" width="150" height="40" rx="5" fill="#626E7B"/>
<rect x="170.5" y="0.5" width="149" height="39" rx="4.5" stroke="#333333" stroke-opacity="0.3"/>
<g clip-path="url(#clip1_1983_885)">
<path d="M277.945 13.62C277.9 13.8046 277.858 13.9898 277.811 14.1737C277.41 15.8702 275.835 17.0237 274.097 16.8939C273.391 16.8809 272.691 16.7643 272.02 16.5476C271.76 16.5158 271.496 16.5322 271.242 16.596C270.897 16.626 270.552 16.6846 270.207 16.6853C266.963 16.6923 263.719 16.6936 260.475 16.6894H260.12L260.351 15.1624H264.425C264.4 15.1931 264.42 15.1799 264.42 15.1671C264.403 14.1701 264.392 13.1729 264.36 12.1764C264.339 11.985 264.285 11.7987 264.201 11.6258C263.99 11.0245 263.409 10.6334 262.773 10.6646C262.232 10.6626 261.692 10.6639 261.151 10.6638H260.828C260.899 10.1615 260.96 9.70067 261.036 9.24237C261.062 9.17254 261.121 9.12035 261.193 9.10404C262.108 9.079 263.023 9.10932 263.934 9.19481C265.296 9.42265 266.34 10.5277 266.491 11.9C266.563 12.435 266.6 12.974 266.603 13.5138C266.621 14.0341 266.607 14.5555 266.607 15.0962C266.704 15.1035 266.783 15.1146 266.862 15.1147C268.035 15.1158 269.208 15.1082 270.381 15.1214C270.546 15.1511 270.705 15.0409 270.734 14.8754C270.738 14.8547 270.74 14.8337 270.739 14.8127C270.754 14.6669 270.761 14.5203 270.759 14.3738C270.76 13.3933 270.758 12.4127 270.76 11.4322C270.657 10.425 271.329 9.50184 272.319 9.2905C272.753 9.15546 273.209 9.09462 273.655 9H274.59C274.659 9.02226 274.729 9.04028 274.8 9.05395C276.244 9.20998 277.436 10.2544 277.781 11.6659C277.843 11.8936 277.891 12.1252 277.945 12.355L277.945 13.62ZM272.772 11.1168C272.795 11.4038 272.829 11.6466 272.831 11.8896C272.837 12.814 272.842 13.7387 272.827 14.663C272.824 14.8905 272.905 14.9742 273.113 14.9881C273.478 15.0125 273.842 15.0604 274.208 15.0675C274.926 15.1372 275.582 14.654 275.728 13.947C275.919 13.2641 275.921 12.5421 275.734 11.8581C275.66 11.441 275.371 11.0939 274.974 10.9448C274.243 10.7365 273.462 10.7976 272.772 11.1168Z" fill="white"/>
<path d="M259.352 9.13365L259.116 10.6776H258.787C257.413 10.6776 256.038 10.6779 254.663 10.6787C254.471 10.6758 254.278 10.6847 254.087 10.7052C253.612 10.716 253.236 11.1097 253.246 11.5845C253.247 11.6134 253.249 11.6422 253.253 11.6708C253.238 12.1593 253.622 12.5673 254.11 12.5821C254.126 12.5825 254.142 12.5826 254.158 12.5822C254.854 12.6015 255.551 12.5811 256.247 12.5963C256.558 12.5987 256.868 12.6304 257.174 12.6909C258.295 12.899 259.091 13.9012 259.041 15.0404C259.039 15.3425 259.003 15.6433 258.933 15.9372C258.719 16.7923 257.992 17.4216 257.115 17.5114C256.657 17.6006 256.191 17.6458 255.724 17.6463C252.672 17.6526 249.62 17.6592 246.568 17.6297C244.839 17.7054 243.376 16.365 243.3 14.6359C243.298 14.5832 243.297 14.5306 243.297 14.4779C243.195 13.547 243.25 12.6055 243.46 11.693C243.82 10.2296 245.142 9.2082 246.649 9.22971C247.61 9.21266 248.571 9.22657 249.553 9.22657L249.323 10.7975C248.953 10.7975 248.589 10.7967 248.225 10.7977C247.867 10.7987 247.509 10.7912 247.152 10.8057C246.545 10.7974 245.997 11.1688 245.78 11.7359C245.637 12.0726 245.555 12.4316 245.537 12.7967C245.5 13.4629 245.523 14.1312 245.607 14.7932C245.683 15.5062 246.286 16.0465 247.003 16.0451C247.898 16.0991 248.797 16.0846 249.695 16.0878C251.666 16.0948 253.636 16.0974 255.607 16.0955C255.753 16.0989 255.9 16.0889 256.044 16.0655C256.617 15.9789 257.011 15.4442 256.925 14.8712C256.846 14.3479 256.389 13.9654 255.86 13.9791C254.999 13.9641 254.136 13.9837 253.277 13.9391C252.345 13.9394 251.523 13.3302 251.252 12.4388C250.924 11.4931 251.205 10.4427 251.962 9.78769C252.539 9.35327 253.243 9.1212 253.966 9.12742C255.725 9.0956 257.485 9.11031 259.245 9.10725C259.281 9.11264 259.317 9.12147 259.352 9.13365Z" fill="white"/>
<path d="M277.945 31C277.261 30.8762 276.579 30.7408 275.892 30.636C275.693 30.622 275.492 30.6405 275.299 30.6908C274.477 30.889 273.622 30.9 272.795 30.7229C271.859 30.5326 271.19 29.7033 271.202 28.7477C271.087 27.7806 271.718 26.8817 272.667 26.6616C273.279 26.5167 273.903 26.4268 274.531 26.393C274.957 26.3536 275.389 26.3854 275.813 26.3854C276.018 25.5136 275.617 24.9696 274.75 24.9545C273.805 24.9596 272.869 25.1312 271.984 25.4612C271.899 25.4905 271.812 25.515 271.7 25.5498L271.472 24.0041C272.903 23.4177 274.462 23.2145 275.996 23.4146C277.042 23.54 277.845 24.4016 277.896 25.4536C277.909 25.5249 277.925 25.5954 277.945 25.665L277.945 31ZM275.054 27.6466L275.047 27.613C274.65 27.6459 274.255 27.7051 273.865 27.7902C273.481 27.9143 273.249 28.3049 273.323 28.702C273.325 29.069 273.606 29.3744 273.971 29.4063C274.387 29.4389 274.804 29.416 275.214 29.3382C275.894 29.2169 275.894 29.1934 275.888 28.4954C275.886 28.2254 275.956 27.8686 275.815 27.7119C275.69 27.5739 275.317 27.6597 275.054 27.6466Z" fill="white"/>
<path d="M253.888 30.76H251.731V30.4223C251.731 29.0474 251.731 27.6724 251.73 26.2975C251.733 26.1509 251.727 26.0042 251.713 25.8583C251.688 25.4652 251.38 25.1492 250.987 25.1157C250.522 25.0589 250.051 25.1397 249.631 25.3483C249.645 25.9537 249.667 26.5249 249.67 27.0962C249.676 28.2145 249.672 29.3328 249.672 30.451V30.7603H247.52V30.444C247.52 29.0691 247.507 27.694 247.524 26.3193C247.537 25.2488 247.057 24.9705 246.055 25.1467C245.454 25.2523 245.457 25.2677 245.457 25.869V30.7507H243.268V30.4193C243.268 28.641 243.268 26.8628 243.268 25.0846C243.268 24.1828 243.497 23.8783 244.371 23.6392C245.434 23.3087 246.56 23.2338 247.658 23.4205C247.96 23.4907 248.251 23.6009 248.524 23.7481C248.644 23.8245 248.795 23.8344 248.924 23.7743C249.953 23.3141 251.105 23.2058 252.202 23.4662C253.146 23.6367 253.836 24.4549 253.844 25.4145C253.894 26.8242 253.877 28.2364 253.888 29.6476C253.891 30.0124 253.888 30.3772 253.888 30.76Z" fill="white"/>
<path d="M267.807 23.6351V23.3141C267.807 22.4163 267.809 21.5184 267.805 20.6206C267.804 20.477 267.823 20.378 267.993 20.3507C268.643 20.2465 269.292 20.1333 269.981 20.0166V20.3258C269.981 23.2759 269.981 26.226 269.981 29.1761C269.98 30.021 269.795 30.2792 268.99 30.5265C267.954 30.8471 266.858 30.9292 265.785 30.7665C264.247 30.5586 263.088 29.2645 263.05 27.7131C262.982 27.0097 263.033 26.2997 263.201 25.6134C263.469 24.2909 264.642 23.3479 265.991 23.3717C266.483 23.392 266.972 23.4493 267.455 23.543C267.574 23.5669 267.691 23.5976 267.807 23.6351ZM267.807 27.15V26.0791C267.807 25.4247 267.476 25.0682 266.814 25.0095C266.108 24.893 265.437 25.3549 265.293 26.0556C265.112 26.7315 265.114 27.443 265.297 28.118C265.436 28.8263 266.089 29.3141 266.808 29.2465C267.044 29.2421 267.279 29.1898 267.516 29.1717C267.738 29.1546 267.821 29.0619 267.813 28.8247C267.793 28.2671 267.807 27.7083 267.807 27.15Z" fill="white"/>
<path d="M259.734 26.388C259.805 25.2877 259.466 24.9253 258.416 24.9546C257.555 24.992 256.704 25.1613 255.894 25.4566C255.809 25.4861 255.722 25.5118 255.596 25.5519C255.526 25.0601 255.454 24.5844 255.396 24.1071C255.407 24.0427 255.449 23.9881 255.509 23.9615C256.669 23.5261 257.899 23.3072 259.138 23.3157C259.33 23.3249 259.522 23.3457 259.712 23.3778C260.948 23.4493 261.891 24.509 261.82 25.7447C261.818 25.7793 261.815 25.8139 261.812 25.8484C261.825 27.4983 261.815 29.1484 261.815 30.7984C261.815 30.8528 261.809 30.9071 261.804 30.9924C261.563 30.9513 261.329 30.9276 261.104 30.8704C260.238 30.6369 259.329 30.611 258.451 30.7948C257.8 30.9315 257.124 30.8868 256.497 30.6655C255.648 30.4153 255.073 29.6259 255.094 28.7409C255.008 27.8587 255.526 27.0288 256.357 26.72C256.95 26.494 257.579 26.3821 258.213 26.3905C258.715 26.3783 259.217 26.388 259.734 26.388ZM259.779 27.7014C259.15 27.7014 258.573 27.6638 258.002 27.7125C257.533 27.7416 257.176 28.1456 257.205 28.6149C257.206 28.6307 257.207 28.6465 257.209 28.6622C257.213 29.1032 257.574 29.4573 258.015 29.4533C258.04 29.4531 258.066 29.4516 258.092 29.4489C258.618 29.3993 259.14 29.3147 259.654 29.1955C259.716 29.1697 259.761 29.1144 259.773 29.0485C259.782 28.6012 259.779 28.1537 259.779 27.7014Z" fill="white"/>
<path d="M239.885 9H212V18.24H239.885V9Z" fill="white"/>
<path d="M239.885 21.5957H212V30.8357H239.885V21.5957Z" fill="white"/>
</g>
<rect y="50" width="150" height="40" rx="5" fill="#626E7B"/>
<g clip-path="url(#clip2_1983_885)">
<path d="M50.9639 64.9377H52.9731L51.975 62.377L50.9639 64.9377Z" fill="white"/>
<path d="M61.6533 73.5127V74.7077H65.0282V75.9815H61.6533V77.3472H65.3959L67.1294 75.43L65.4879 73.5127H61.6533Z" fill="white"/>
<path d="M88.0484 62.377L86.9453 64.9377H89.0464L88.0484 62.377Z" fill="white"/>
<path d="M71.4238 78.0825V72.8691L69.0469 75.4299L71.4238 78.0825Z" fill="white"/>
<path d="M75.9011 74.34C75.8092 73.7885 75.4415 73.5127 74.8899 73.5127H72.9727V75.1542H74.9818C75.5334 75.1542 75.9011 74.8784 75.9011 74.3269V74.34Z" fill="white"/>
<path d="M82.2834 74.9707C82.4672 74.8787 82.5592 74.603 82.5592 74.3272C82.6511 73.9595 82.4672 73.7756 82.2834 73.6837C82.0995 73.5918 81.8238 73.5918 81.548 73.5918H79.7227V75.0494H81.548C81.8238 75.0494 82.0995 75.0494 82.2834 74.9575V74.9707Z" fill="white"/>
<path d="M95.4419 60V61.09L94.8903 60H90.5962V61.09L90.0446 60H84.2009C83.2029 60 82.3756 60.1838 81.6402 60.5515V60H77.5299V60.5515C77.0703 60.1838 76.5318 60 75.7965 60H61.1018L60.0906 62.285L59.0926 60H54.4307V61.09L53.9711 60H49.9527L48.1274 64.2942L46.0394 68.9429L46 69.0348H50.7538L50.7932 68.9429L51.3447 67.5772H52.5266L53.0781 69.0348H58.3703V67.9448L58.8299 69.0348H61.4826L61.9422 67.9448V69.0348H74.6408V66.6579H74.8247C74.9473 66.6579 75.0085 66.7498 75.0085 66.9337V68.9429H81.5877V68.3913C82.1392 68.6671 82.9534 68.9429 84.0565 68.9429H86.8011L87.3526 67.4852H88.6264L89.1779 68.9429H94.4701V67.5772L95.2974 68.9429H99.5916V60H95.4813H95.4419ZM64.4898 67.6691H63.0322V62.6527L62.9402 62.8628L60.8129 67.6691H59.4734L57.2804 62.6527V67.6691H54.1812L53.5378 66.3033H50.4386L49.7951 67.6691H48.193L50.872 61.2738H53.1569L55.7177 67.3933V61.2738H58.1339L58.1733 61.3657L59.329 63.8739L60.1563 65.7518L60.1825 65.6599L62.0079 61.2738H64.4767V67.6691H64.4898ZM70.78 62.6527H67.2213V63.8345H70.6881V65.1083H67.2213V66.3821H70.78V67.7479H65.6717V61.2738H70.78V62.6395V62.6527ZM77.2935 65.0033C77.3329 65.0427 77.3592 65.0821 77.3854 65.1083C77.5561 65.3316 77.7006 65.673 77.7137 66.1852C77.7137 66.1852 77.7137 66.1983 77.7137 66.2114C77.7137 66.2114 77.7137 66.2114 77.7137 66.2246C77.7137 66.2771 77.7137 66.3296 77.7137 66.3821V67.6559H76.348V66.9206C76.348 66.5529 76.348 66.0013 76.0722 65.6467C75.9803 65.5548 75.9015 65.5023 75.8096 65.4629C75.6783 65.371 75.4156 65.371 74.9823 65.371H73.3408V67.6559H71.7912V61.2738H75.258C76.0854 61.2738 76.6238 61.2738 77.0834 61.5496C77.5299 61.8122 77.8056 62.2587 77.8056 62.9678C77.7794 63.9396 77.1622 64.478 76.7157 64.6487C76.7157 64.6487 77.0177 64.7144 77.2935 64.9902V65.0033ZM80.3664 67.6691H78.8168V61.2738H80.3664V67.6691ZM98.1733 67.6691H96.1642L93.2488 62.8234V66.8418V67.6691H91.7124H90.1628L89.6113 66.3033H86.4202L85.8687 67.761H84.1353C83.3999 67.761 82.4938 67.5772 81.9422 67.0256C81.3907 66.4741 81.1149 65.7518 81.1149 64.5568C81.1149 63.3618 81.2988 62.7315 81.9422 61.9961C82.4018 61.4445 83.216 61.2607 84.2272 61.2607H85.6848V62.6264H84.2272C83.6756 62.6264 83.3999 62.7183 83.0453 62.9941C82.7695 63.2699 82.5857 63.8214 82.5857 64.4517C82.5857 65.0821 82.6776 65.6336 83.0453 66.0013C83.3211 66.2771 83.6888 66.369 84.1353 66.369H84.7787L86.8798 61.3526H89.1648L91.7255 67.4721V61.3657H94.0105L96.6632 65.8437V61.3657H98.2127V67.6691H98.1733Z" fill="white"/>
<path d="M75.9935 63.9398C76.0197 63.9135 76.046 63.8741 76.0591 63.8478C76.1379 63.7165 76.243 63.4801 76.1905 63.165C76.1905 63.1387 76.1905 63.1125 76.1773 63.0862C76.1773 63.0862 76.1773 63.0731 76.1773 63.0599C76.1379 62.9023 76.0197 62.8104 75.9016 62.7448C75.7177 62.6528 75.4419 62.6528 75.1662 62.6528H73.3408V64.1105H75.1662C75.4419 64.1105 75.7177 64.1105 75.9016 64.0186C75.9278 64.0054 75.9541 63.9923 75.9803 63.966C75.9803 63.966 75.9803 63.966 76.0066 63.9398H75.9935Z" fill="white"/>
<path d="M103.57 76.7958C103.57 76.1523 103.387 75.522 103.111 75.0623V70.952V70.6763H98.7116C98.1469 70.6763 97.4509 71.2278 97.4509 71.2278V70.6763H93.2487C92.6052 70.6763 91.791 70.8601 91.4233 71.2278V70.6763H83.9381V71.2278C83.3866 70.7682 82.3885 70.6763 81.9289 70.6763H77.0044V71.2278C76.5448 70.7682 75.4549 70.6763 74.9033 70.6763H69.4273L68.1535 72.042L66.9716 70.6763H58.751V79.8949H66.7877L68.1141 78.5686L69.2566 79.8949H74.3649V77.7938H74.8245C75.468 77.7938 76.2822 77.7938 76.9256 77.518V79.9868H81.0359V77.61H81.2198C81.4036 77.61 81.4956 77.7019 81.4956 77.8857V79.9868H93.9184C94.7457 79.9868 95.5599 79.803 96.0195 79.4353V79.9868H99.946C100.773 79.9868 101.587 79.8949 102.139 79.5272C102.979 79.0282 103.505 78.1352 103.584 77.0715C103.584 77.0453 103.584 77.0059 103.584 76.9796C103.584 76.914 103.584 76.8614 103.584 76.7958H103.57ZM74.7983 76.2574H72.9729V78.6342H69.9657L68.2191 76.6251L68.1403 76.5331L66.1311 78.6342H60.2874V72.239H66.2231L67.8383 74.0118L68.1797 74.3795L68.2323 74.327L70.1495 72.2258H74.9952C75.9407 72.2258 76.9913 72.4622 77.3853 73.4077C77.4378 73.5916 77.464 73.8017 77.464 74.0512C77.464 75.8765 76.1902 76.2442 74.8114 76.2442L74.7983 76.2574ZM83.9381 76.1654C84.122 76.4412 84.2139 76.8089 84.2139 77.3473V78.6211H82.6643V77.7938C82.6643 77.4261 82.6643 76.7958 82.3885 76.52C82.2047 76.2442 81.837 76.2442 81.2986 76.2442H79.6571V78.6211H78.1075V72.1339H81.5744C82.3097 72.1339 82.9401 72.1339 83.3997 72.4097C83.8593 72.6855 84.227 73.1451 84.227 73.8673C84.227 74.5896 83.5835 75.4169 83.1371 75.6008C83.5967 75.7846 83.8724 75.9685 83.9644 76.1523L83.9381 76.1654ZM90.2283 73.5128H86.6696V74.6947H90.1364V75.9685H86.6696V77.2423H90.2283V78.608H85.12V72.1208H90.2283V73.4865V73.5128ZM94.0629 78.6342H91.1344V77.2685H94.0629C94.3386 77.2685 94.5225 77.2685 94.7063 77.0847C94.7982 76.9928 94.8902 76.8089 94.8902 76.6251C94.8902 76.4412 94.7982 76.2574 94.7063 76.1654C94.6144 76.0735 94.4306 75.9816 94.1548 75.9816C92.6971 75.8897 90.9637 75.9816 90.9637 73.9724C90.9637 71.9632 91.5153 72.0551 93.1568 72.0551H96.164V73.6047H93.3275C93.0517 73.6047 92.8679 73.6047 92.684 73.6966C92.5002 73.7885 92.5002 73.9724 92.5002 74.1562C92.5002 74.432 92.684 74.5239 92.8678 74.6159C93.0517 74.7078 93.2355 74.7078 93.4194 74.7078H94.2467C95.074 74.7078 95.6124 74.8916 95.9801 75.2593C96.2559 75.5351 96.4397 75.9947 96.4397 76.6251C96.4397 77.9908 95.6124 78.6342 94.0629 78.6342ZM101.916 77.9908C101.548 78.3585 100.918 78.6342 99.9985 78.6342H97.0832V77.2685H99.9985C100.274 77.2685 100.458 77.2685 100.642 77.0847C100.734 76.9928 100.826 76.8089 100.826 76.6251C100.826 76.4412 100.734 76.2574 100.642 76.1654C100.55 76.0735 100.366 75.9816 100.09 75.9816C98.6328 75.8897 96.8994 75.9816 96.8994 73.9724C96.8994 71.9632 97.3984 72.3178 98.6197 72.0814C98.7641 72.0551 98.9217 72.042 99.0924 72.042H102.1V73.5916H99.2631C98.9874 73.5916 98.8035 73.5916 98.6197 73.6835C98.5277 73.7754 98.4358 73.9593 98.4358 74.1431C98.4358 74.4189 98.5277 74.5108 98.8035 74.6027C98.9874 74.6947 99.1712 74.6947 99.355 74.6947H100.182C100.576 74.6947 100.878 74.7472 101.154 74.8391C101.404 74.931 102.244 75.2987 102.428 76.2836C102.441 76.3887 102.454 76.4937 102.454 76.6119C102.454 77.1635 102.27 77.61 101.903 77.9776L101.916 77.9908Z" fill="white"/>
</g>
<rect x="170" y="50" width="150" height="40" rx="5" fill="#626E7B"/>
<g clip-path="url(#clip3_1983_885)">
<path d="M255.097 74.7577V64.185H256.903V65.022C257.476 64.3172 258.357 63.9207 259.238 63.9647C261.308 63.9647 262.762 65.5947 262.762 67.9736C262.762 70.3524 261.264 72.0264 259.238 72.0264C258.313 72.0264 257.476 71.674 256.903 70.9692V74.7577H255.097ZM256.859 67.0044V68.9427C257.211 69.7797 258.004 70.3084 258.885 70.3084C260.075 70.3084 260.868 69.4273 260.868 67.9736C260.868 66.5198 260.075 65.6828 258.885 65.6828C258.004 65.6828 257.167 66.2114 256.859 67.0484" fill="white"/>
<path d="M263.908 69.6476C263.864 68.4141 264.789 67.3569 266.022 67.3128L269.062 66.9163V66.5199C269.106 66.1674 268.886 65.8591 268.533 65.815C268.489 65.815 268.445 65.815 268.401 65.815H264.569V64.1851H268.489C270.031 64.1851 270.868 64.934 270.868 66.2996V71.8062H269.062V70.8811C268.489 71.674 267.52 72.1146 266.551 72.0265C264.965 72.0265 263.908 71.0573 263.908 69.6476ZM267.036 70.5727C267.917 70.5727 268.71 70.0881 269.106 69.2952V68.326L266.771 68.6344C266.11 68.7225 265.758 69.0749 265.758 69.6036C265.758 70.1322 266.199 70.5287 266.991 70.5287" fill="white"/>
<path d="M272.189 73.1277H273.511C273.951 73.1277 274.304 72.8634 274.392 72.4669L274.612 71.8061L271.837 64.229H273.687L275.405 69.5153H275.449L277.079 64.229H278.973L275.934 72.9515C275.537 74.1409 274.965 74.8017 273.643 74.8017H272.189V73.1717V73.1277Z" fill="white"/>
<path d="M217.564 80C219.634 80 221.352 79.3392 222.498 78.2379C223.379 77.3568 223.819 76.2115 223.819 74.978C223.819 73.8326 223.379 72.7753 222.586 71.9383C221.617 71.0573 220.427 70.4405 219.15 70.2643L216.771 69.7797C215.758 69.6035 215.229 69.1189 215.229 68.4141C215.229 67.7093 216.11 66.8722 217.52 66.8722C218.313 66.8722 219.062 67.1366 219.634 67.6652C219.943 68.0176 220.163 68.4581 220.207 68.9427L223.643 68.1498C223.555 67.1806 223.07 66.2555 222.366 65.5507C221.044 64.3172 219.238 63.6564 217.432 63.7004C215.758 63.6564 214.128 64.2291 212.85 65.3304C211.925 66.2115 211.396 67.4009 211.396 68.6784C211.396 69.7357 211.749 70.793 212.498 71.5419C213.423 72.3789 214.524 72.9515 215.758 73.2159L218.137 73.7885C219.326 74.0529 219.855 74.4934 219.855 75.2863C219.855 76.0793 218.974 76.8282 217.564 76.8282C216.683 76.8722 215.802 76.5639 215.185 75.9471C214.789 75.5507 214.568 75.0661 214.568 74.5374L211 75.3304C211.088 76.3877 211.573 77.3568 212.322 78.0617C213.511 79.2952 215.405 80.0441 217.564 80.0441M243.819 80C245.758 80.0441 247.696 79.3392 249.106 77.9736C249.987 77.0925 250.648 76.0352 250.956 74.8458L247.344 73.6123C246.903 75.1982 245.449 76.2555 243.819 76.2115C242.806 76.2115 241.793 75.815 241.088 75.0661C240.295 74.185 239.855 73.0396 239.899 71.8502C239.855 70.6608 240.251 69.5154 241.088 68.6344C241.837 67.9295 242.806 67.533 243.819 67.533C244.744 67.533 245.626 67.8414 246.286 68.4581C246.727 68.9427 247.035 69.4714 247.211 70.0881L250.912 68.8546C250.604 67.7093 249.987 66.652 249.15 65.7709C247.696 64.3612 245.714 63.6123 243.731 63.7004C241.617 63.7004 239.59 64.4934 238.093 65.9912C236.595 67.533 235.758 69.6476 235.758 71.8502C235.758 74.0529 236.595 76.1674 238.137 77.7093C239.634 79.207 241.705 80 243.819 80ZM231.264 80C232.894 80 234.04 79.5154 234.524 79.0749V75.7269C233.907 76.1233 233.159 76.3436 232.454 76.3436C231.881 76.3436 231.308 76.2115 230.912 75.859C230.559 75.4185 230.383 74.8458 230.427 74.3172V60H226.33V64.185H234.568V68.1498H226.33V75.1982C226.286 76.4317 226.727 77.6652 227.564 78.5903C228.445 79.4714 229.722 79.9119 231.308 79.9119" fill="white"/>
</g>
<mask id="mask0_1983_885" style="mask-type:luminance" maskUnits="userSpaceOnUse" x="1" y="100" width="150" height="40">
<path d="M143.857 100H8.14286C4.19797 100 1 102.161 1 104.827V135.173C1 137.839 4.19797 140 8.14286 140H143.857C147.802 140 151 137.839 151 135.173V104.827C151 102.161 147.802 100 143.857 100Z" fill="white"/>
</mask>
<g mask="url(#mask0_1983_885)">
<mask id="mask1_1983_885" style="mask-type:luminance" maskUnits="userSpaceOnUse" x="-3" y="97" width="158" height="46">
<path d="M149.063 97.9302H2.93652C0.1751 97.9302 -2.06348 100.169 -2.06348 102.93V137.07C-2.06348 139.831 0.175096 142.07 2.93652 142.07H149.062C151.824 142.07 154.062 139.831 154.062 137.07V102.93C154.062 100.169 151.824 97.9302 149.063 97.9302Z" fill="white"/>
</mask>
<g mask="url(#mask1_1983_885)">
<rect x="-2.16113" y="97.8062" width="156.43" height="44.2254" rx="5" fill="#626E7B"/>
</g>
</g>
<path d="M55.7576 116.239C55.5352 116.267 55.3377 116.395 55.2218 116.587C54.9412 117.131 54.7252 117.709 54.4502 118.271C54.3078 118.504 54.3646 118.808 54.5821 118.975C55.1662 119.591 55.7071 120.248 56.2009 120.939C56.7755 121.685 56.6764 122.749 55.9736 123.377C55.4306 123.925 54.8013 124.38 54.1107 124.723C53.1259 125.195 52.0571 125.495 51.0245 125.888C50.8815 125.944 50.6626 126.126 50.643 126.247C50.5686 126.482 50.6988 126.732 50.9337 126.807L50.9376 126.808C52.1159 127.324 53.3167 127.796 54.5624 128.301C54.9608 127.697 55.3675 127.134 55.7183 126.542C57.7244 123.596 57.9402 119.783 56.2794 116.629C56.1738 116.427 55.9818 116.283 55.7576 116.239Z" fill="white"/>
<path d="M98.0324 112.048L97.9904 112.006C97.4217 111.437 96.4998 111.437 95.9312 112.006C95.3633 112.573 95.3627 113.493 95.9299 114.061L95.9312 114.062L95.9732 114.104C96.5197 114.673 97.4237 114.691 97.9924 114.144L98.0324 114.104C98.5992 113.536 98.5992 112.616 98.0324 112.048Z" fill="white"/>
<path d="M91.9804 112.112C91.8371 112.256 91.7236 112.427 91.6465 112.614L93.8545 114.525C93.9664 114.459 94.07 114.38 94.1631 114.289L94.208 114.245C94.81 113.668 94.8305 112.712 94.2538 112.11L94.208 112.065C93.6056 111.464 92.6304 111.464 92.0281 112.065L91.9804 112.112Z" fill="white"/>
<path d="M59.1999 111.158C59.1999 111.158 58.6556 112.28 58.4115 112.867C58.3071 113.106 58.2555 113.366 58.26 113.627C58.3526 115.639 58.434 117.653 58.5855 119.662C58.6594 121.598 59.8506 123.314 61.638 124.061C62.9563 124.631 64.3691 124.951 65.8043 125.004C67.6167 125.108 69.4347 125.158 71.25 125.172C74.2618 125.22 77.2705 124.956 80.2278 124.384C81.6735 124.129 83.0953 123.753 84.4783 123.261C85.0394 122.958 84.9945 123.031 85.5556 123.172C87.5379 123.481 89.5575 123.464 91.5343 123.121C92.2245 122.916 92.8558 122.751 93.0101 122.28C93.6441 123.278 94.0004 123.786 95.0918 123.682C95.8503 123.62 96.6016 123.488 97.3363 123.29C98.2042 123.123 98.906 122.485 99.1543 121.637C99.2649 121.247 99.3289 120.845 99.3451 120.439C99.5556 119.049 99.2405 117.631 98.4613 116.461C98.3461 116.195 98.0599 116.047 97.7767 116.107C97.6308 116.107 97.4148 116.334 97.3251 116.508C97.0445 117.042 96.8481 117.605 96.5816 118.141C96.4304 118.388 96.4982 118.709 96.7359 118.874C97.238 119.331 97.701 119.788 98.3294 120.422C97.1314 120.551 96.7191 120.68 95.6865 120.762C94.654 120.843 92.7631 120.829 92.2301 119.898C91.9402 119.264 91.5047 118.709 90.9591 118.276C89.6778 117.506 88.0791 117.492 86.7844 118.24C86.0683 118.575 85.5438 119.218 85.3592 119.987C85.3619 120.33 85.1302 120.63 84.7981 120.714C78.7447 122.315 72.4595 122.852 66.2223 122.302C64.7444 122.176 63.2891 121.858 61.8933 121.357C60.7343 121.002 59.9873 119.878 60.1089 118.672C60.1482 116.191 60.1089 113.711 60.1089 111.231C60.1324 110.967 59.9375 110.734 59.6736 110.711L59.6516 110.709C59.4524 110.695 59.1999 111.158 59.1999 111.158ZM91.0377 121.427L86.2205 121.373C86.4466 120.262 87.3994 119.447 88.5323 119.395C91.3547 119.283 91.0377 121.427 91.0377 121.427Z" fill="white"/>
<path d="M52.61 111.394C52.6351 111.132 52.4428 110.899 52.1806 110.874L52.1555 110.872C51.9591 110.855 51.7095 111.318 51.7095 111.318C51.7095 111.318 51.1652 112.44 50.9211 113.027C50.8159 113.264 50.7633 113.522 50.7668 113.781C50.8145 114.769 50.8565 115.745 50.907 116.747C50.9744 118.152 51.0426 119.554 51.1119 120.955C51.1539 121.819 51.2016 122.684 51.2493 123.565H52.0489C52.315 122.606 52.5027 121.627 52.6101 120.638C52.6269 119.342 52.6212 113.17 52.61 111.394Z" fill="white"/>
<rect x="170" y="100" width="150" height="40" rx="5" fill="#626E7B"/>
<path d="M268.641 114.641L264.919 128.856V128.901H267.834L271.556 114.686H268.641L268.641 114.641ZM222.632 122.713C222.2 122.927 221.724 123.035 221.242 123.027C220.21 123.027 219.627 122.847 219.538 121.995V117.377V114.731L216.937 115.045C218.478 114.813 219.631 113.509 219.672 111.951V111.099H216.757V115.09L216.578 115.134V122.489C216.574 124.327 218.061 125.821 219.899 125.825C220.018 125.826 220.137 125.82 220.255 125.807C221.059 125.808 221.853 125.64 222.587 125.314L222.632 122.713Z" fill="white"/>
<path d="M223.08 114.103L214.919 115.359V117.422L223.08 116.166V114.103ZM223.08 117.153L214.919 118.408V120.381L223.08 119.126V117.153ZM232.228 118.094C232.269 116.098 230.683 114.447 228.687 114.407C228.567 114.404 228.447 114.408 228.327 114.417C227.069 114.38 225.869 114.947 225.098 115.942C224.264 117.167 223.855 118.632 223.932 120.112C223.855 121.593 224.264 123.057 225.098 124.283C225.875 125.266 227.076 125.816 228.327 125.763C230.303 125.935 232.044 124.473 232.216 122.497C232.228 122.36 232.232 122.223 232.228 122.085V125.538H235.143V114.686L232.228 115.135V118.094ZM232.408 120.112C232.408 122.13 231.332 123.476 229.672 123.476C227.968 123.476 226.937 122.22 226.937 120.112C226.937 118.005 227.968 116.749 229.672 116.749C230.456 116.728 231.204 117.076 231.69 117.691C232.186 118.399 232.438 119.249 232.408 120.112ZM243.619 114.417C241.643 114.245 239.902 115.707 239.729 117.683C239.718 117.82 239.713 117.957 239.717 118.094V111.502L236.802 111.951V125.538H239.717V122.085C239.662 124.068 241.225 125.72 243.207 125.775C243.344 125.778 243.482 125.774 243.619 125.763C246.354 125.763 248.013 123.655 248.013 120.112C248.013 116.57 246.354 114.417 243.619 114.417ZM242.318 123.476C240.659 123.476 239.583 122.175 239.583 120.112C239.553 119.249 239.805 118.399 240.3 117.691C240.781 117.069 241.533 116.718 242.318 116.749C244.022 116.749 245.053 118.005 245.053 120.112C245.053 122.22 244.022 123.476 242.318 123.476ZM255.906 114.417C253.93 114.245 252.189 115.707 252.016 117.683C252.004 117.82 252 117.957 252.004 118.094V111.502L249.089 111.951V125.538H252.004V122.085C251.949 124.068 253.512 125.72 255.494 125.775C255.631 125.778 255.769 125.774 255.906 125.763C258.641 125.763 260.3 123.655 260.3 120.112C260.3 116.57 258.641 114.417 255.906 114.417ZM254.605 123.476C252.946 123.476 251.87 122.175 251.87 120.112C251.84 119.249 252.092 118.399 252.587 117.691C253.068 117.069 253.82 116.718 254.605 116.749C256.309 116.749 257.34 118.005 257.34 120.112C257.34 122.22 256.309 123.476 254.605 123.476ZM260.3 114.641H263.394L265.905 125.538H263.125L260.3 114.641ZM273.932 115.763V114.911H273.574V114.731H274.515V114.911H274.157V115.763L273.932 115.763ZM274.56 115.763V114.686H274.919L275.098 115.18C275.143 115.314 275.188 115.359 275.188 115.404C275.188 115.359 275.233 115.314 275.278 115.18L275.457 114.686H275.816V115.763H275.592V114.911L275.278 115.763H275.054L274.785 114.911V115.763H274.56Z" fill="white"/>
<rect y="150" width="320" height="40" rx="5" fill="#626E7B"/>
<g clip-path="url(#clip4_1983_885)">
<path d="M144.9 162.579C144.321 163.309 143.434 163.727 142.502 163.711C142.443 162.802 142.751 161.907 143.359 161.227C143.963 160.526 144.816 160.086 145.737 160C145.804 160.936 145.503 161.86 144.9 162.579ZM145.728 163.891C144.405 163.815 143.273 164.643 142.645 164.643C142.008 164.643 141.047 163.93 140 163.949C138.614 163.984 137.35 164.752 136.679 165.966C135.252 168.421 136.308 172.055 137.688 174.053C138.364 175.043 139.172 176.127 140.238 176.089C141.247 176.051 141.646 175.433 142.864 175.433C144.091 175.433 144.444 176.089 145.509 176.07C146.613 176.051 147.307 175.081 147.983 174.091C148.46 173.391 148.832 172.625 149.087 171.817C147.788 171.25 146.945 169.971 146.936 168.554C146.955 167.302 147.611 166.146 148.678 165.49C147.999 164.525 146.907 163.934 145.728 163.891ZM153.368 161.132V175.966H155.671V170.894H158.858C161.455 171.034 163.673 169.042 163.813 166.446C163.82 166.299 163.821 166.151 163.816 166.004C163.94 163.437 161.96 161.256 159.393 161.132C159.24 161.124 159.087 161.125 158.934 161.132L153.368 161.132ZM155.671 163.073H158.326C160.324 163.073 161.465 164.139 161.465 166.013C161.465 167.888 160.324 168.963 158.316 168.963H155.671L155.671 163.073ZM168.021 176.08C169.414 176.118 170.717 175.392 171.418 174.186H171.465V175.966H173.597V168.582C173.597 166.441 171.884 165.062 169.248 165.062C166.803 165.062 164.995 166.461 164.929 168.382H167.003C167.251 167.406 168.18 166.76 169.182 166.87C170.59 166.87 171.38 167.526 171.38 168.735V169.553L168.506 169.724C165.833 169.886 164.386 170.98 164.386 172.883C164.386 174.805 165.88 176.08 168.021 176.08ZM168.639 174.32C167.412 174.32 166.632 173.73 166.632 172.826C166.632 171.893 167.384 171.351 168.82 171.265L171.38 171.104V171.941C171.318 173.322 170.148 174.391 168.768 174.329C168.725 174.327 168.682 174.324 168.639 174.32ZM176.442 180C178.687 180 179.743 179.144 180.666 176.546L184.71 165.205H182.369L179.658 173.968H179.61L176.898 165.205H174.491L178.392 176.004L178.183 176.66C178.035 177.601 177.191 178.271 176.242 178.202C176.061 178.202 175.709 178.183 175.566 178.164V179.943C175.856 179.982 176.149 180.001 176.442 180Z" fill="white"/>
</g>
<rect y="200" width="320" height="40" rx="5" fill="#626E7B"/>
<rect x="0.5" y="200.5" width="319" height="39" rx="4.5" stroke="#333333" stroke-opacity="0.3"/>
<g clip-path="url(#clip5_1983_885)">
<path d="M193.952 221.232V225.936H192.456V214.32H196.416C197.424 214.32 198.28 214.656 198.984 215.328C199.696 216 200.056 216.816 200.056 217.776C200.056 218.76 199.696 219.584 198.984 220.24C198.288 220.904 197.44 221.232 196.416 221.232H193.952ZM193.952 215.752V219.808H196.448C197.04 219.808 197.536 219.608 197.928 219.208C198.328 218.808 198.528 218.328 198.528 217.776C198.528 217.232 198.328 216.768 197.928 216.368C197.536 215.96 197.048 215.752 196.448 215.752H193.952Z" fill="white"/>
<path d="M203.96 217.728C205.064 217.728 205.936 218.024 206.576 218.616C207.216 219.208 207.536 220.016 207.536 221.04V225.944H206.104V224.84H206.04C205.424 225.752 204.6 226.2 203.576 226.2C202.696 226.2 201.968 225.944 201.376 225.424C200.784 224.904 200.488 224.256 200.488 223.48C200.488 222.656 200.8 222 201.424 221.52C202.048 221.032 202.88 220.792 203.912 220.792C204.8 220.792 205.528 220.952 206.104 221.28V220.936C206.104 220.416 205.896 219.976 205.488 219.616C205.08 219.256 204.592 219.072 204.04 219.072C203.208 219.072 202.544 219.424 202.064 220.128L200.752 219.304C201.472 218.248 202.544 217.728 203.96 217.728ZM202.032 223.504C202.032 223.896 202.2 224.216 202.528 224.48C202.856 224.736 203.248 224.872 203.688 224.872C204.312 224.872 204.872 224.64 205.368 224.176C205.864 223.712 206.104 223.168 206.104 222.536C205.64 222.168 204.992 221.984 204.16 221.984C203.552 221.984 203.048 222.128 202.64 222.424C202.232 222.712 202.032 223.072 202.032 223.504Z" fill="white"/>
<path d="M215.656 217.992L210.672 229.448H209.128L210.976 225.44L207.696 217.992H209.32L211.688 223.704H211.72L214.024 217.992H215.656Z" fill="white"/>
<path d="M142.032 220.848V219.048H148.048C148.112 219.368 148.144 219.744 148.144 220.152C148.144 221.496 147.776 223.168 146.592 224.352C145.44 225.552 143.96 226.2 142.008 226.2C138.384 226.2 135.336 223.248 135.336 219.624C135.336 216 138.376 213.04 142 213.04C144.008 213.04 145.432 213.824 146.504 214.856L145.24 216.12C144.472 215.4 143.424 214.84 142 214.84C139.352 214.84 137.288 216.976 137.288 219.624C137.288 222.272 139.352 224.4 142 224.4C143.72 224.4 144.696 223.712 145.32 223.088C145.832 222.576 146.168 221.848 146.296 220.848H142.032Z" fill="white"/>
<path d="M157.304 221.96C157.304 224.4 155.392 226.192 153.056 226.192C150.72 226.192 148.808 224.392 148.808 221.96C148.808 219.504 150.72 217.728 153.056 217.728C155.4 217.728 157.304 219.512 157.304 221.96ZM155.448 221.96C155.448 220.432 154.344 219.392 153.056 219.392C151.776 219.392 150.664 220.432 150.664 221.96C150.664 223.464 151.768 224.528 153.056 224.528C154.344 224.528 155.448 223.472 155.448 221.96Z" fill="white"/>
<path d="M166.576 221.96C166.576 224.4 164.664 226.192 162.328 226.192C159.992 226.192 158.08 224.4 158.08 221.96C158.08 219.504 159.992 217.728 162.328 217.728C164.672 217.728 166.576 219.512 166.576 221.96ZM164.72 221.96C164.72 220.432 163.616 219.392 162.328 219.392C161.048 219.392 159.936 220.432 159.936 221.96C159.936 223.464 161.04 224.528 162.328 224.528C163.608 224.528 164.72 223.472 164.72 221.96Z" fill="white"/>
<path d="M175.464 217.984V225.584C175.464 228.712 173.616 229.992 171.44 229.992C169.384 229.992 168.152 228.616 167.688 227.488L169.304 226.816C169.592 227.504 170.296 228.32 171.44 228.32C172.832 228.32 173.704 227.456 173.704 225.832V225.224H173.64C173.224 225.736 172.424 226.184 171.408 226.184C169.288 226.184 167.352 224.336 167.352 221.968C167.352 219.576 169.296 217.72 171.408 217.72C172.416 217.72 173.224 218.168 173.64 218.664H173.704V217.976L175.464 217.984ZM173.832 221.976C173.832 220.488 172.84 219.392 171.568 219.392C170.288 219.392 169.208 220.48 169.208 221.976C169.208 223.448 170.28 224.528 171.568 224.528C172.832 224.528 173.832 223.456 173.832 221.976Z" fill="white"/>
<path d="M178.616 213.536V225.944H176.752V213.536H178.616Z" fill="white"/>
<path d="M185.8 223.36L187.24 224.32C186.776 225.008 185.656 226.2 183.712 226.2C181.304 226.2 179.512 224.336 179.512 221.968C179.512 219.448 181.328 217.736 183.504 217.736C185.704 217.736 186.776 219.488 187.128 220.432L187.32 220.912L181.656 223.256C182.088 224.104 182.76 224.536 183.712 224.536C184.664 224.528 185.32 224.064 185.8 223.36ZM181.36 221.832L185.144 220.256C184.936 219.728 184.312 219.36 183.576 219.36C182.624 219.368 181.312 220.2 181.36 221.832Z" fill="white"/>
<path d="M115.904 221.624L121.496 211.936L124.544 213.696C126.512 214.832 127.184 217.344 126.048 219.312L122.896 224.768C122.184 226 120.616 226.416 119.384 225.712L116.56 224.08C115.704 223.576 115.408 222.48 115.904 221.624Z" fill="#D9D9D9"/>
<path d="M115.312 214.896L108.36 226.944L111.408 228.704C113.376 229.84 115.888 229.168 117.024 227.2L121.536 219.384C122.248 218.152 121.824 216.584 120.592 215.872L117.76 214.24C116.904 213.744 115.808 214.04 115.312 214.896Z" fill="#D9D9D9"/>
<path d="M121.496 211.936L119.344 210.688C116.888 209.272 113.744 210.112 112.32 212.568L108.32 219.496C107.608 220.728 108.032 222.296 109.264 223.008L111.416 224.256C112.648 224.968 114.216 224.544 114.928 223.312L119.704 215.04C120.696 213.32 122.888 212.736 124.608 213.728" fill="white"/>
<path d="M112.944 214.6L110.568 213.232C109.504 212.624 108.152 212.984 107.544 214.04L104.68 218.968C103.272 221.392 104.112 224.496 106.544 225.904L108.352 226.944L110.552 228.208L111.504 228.76C109.816 227.624 109.28 225.36 110.312 223.576L111.048 222.304L113.752 217.632C114.368 216.56 114 215.208 112.944 214.6Z" fill="#D9D9D9"/>
</g>
<defs>
<clipPath id="clip0_1983_885">
<rect width="67.8065" height="22" fill="white" transform="translate(41 9)"/>
</clipPath>
<clipPath id="clip1_1983_885">
<rect width="65.945" height="22" fill="white" transform="translate(212 9)"/>
</clipPath>
<clipPath id="clip2_1983_885">
<rect width="57.5706" height="20" fill="white" transform="translate(46 60)"/>
</clipPath>
<clipPath id="clip3_1983_885">
<rect width="67.9736" height="20" fill="white" transform="translate(211 60)"/>
</clipPath>
<clipPath id="clip4_1983_885">
<rect width="48.7099" height="20" fill="white" transform="translate(136 160)"/>
</clipPath>
<clipPath id="clip5_1983_885">
<rect width="111.656" height="20" fill="white" transform="translate(104 210)"/>
</clipPath>
</defs>
</svg>
