<svg width="16" height="18" viewBox="0 0 16 18" fill="none" xmlns="http://www.w3.org/2000/svg">
<g clip-path="url(#clip0_3490_2598)">
<path d="M8.30187 4.38965H3.65073C3.32964 4.38965 3.06934 4.64995 3.06934 4.97104C3.06934 5.29213 3.32964 5.55243 3.65073 5.55243H8.30188C8.62297 5.55243 8.88327 5.29213 8.88327 4.97104C8.88327 4.64995 8.62296 4.38965 8.30187 4.38965Z" fill="white"/>
<path d="M8.30187 7.5H3.65073C3.32964 7.5 3.06934 7.7603 3.06934 8.08139C3.06934 8.40248 3.32964 8.66278 3.65073 8.66278H8.30188C8.62297 8.66278 8.88327 8.40248 8.88327 8.08139C8.88327 7.7603 8.62296 7.5 8.30187 7.5Z" fill="white"/>
<path d="M8.30187 10.6802H3.65073C3.32964 10.6802 3.06934 10.9405 3.06934 11.2616C3.06934 11.5827 3.32964 11.843 3.65073 11.843H8.30188C8.62297 11.843 8.88327 11.5827 8.88327 11.2616C8.88327 10.9405 8.62296 10.6802 8.30187 10.6802Z" fill="white"/>
<path d="M13.7384 0H2.26166C1.00939 0.00319 -0.00318248 1.02095 7.51667e-06 2.27321C7.51667e-06 2.27516 1.75167e-05 2.27711 2.75167e-05 2.27906V16.4592C-0.00115248 16.912 0.364908 17.28 0.817648 17.2812C0.968008 17.2815 1.11558 17.2406 1.24421 17.1627L3.38374 15.8778C3.44958 15.8368 3.53301 15.8368 3.59886 15.8778L5.97676 17.3023C6.10183 17.382 6.24705 17.4243 6.39536 17.4244C6.54459 17.4236 6.69099 17.3835 6.81978 17.3081L9.20931 15.8778C9.27515 15.8368 9.35858 15.8368 9.42443 15.8778L11.5523 17.1627C11.8068 17.3139 12.1235 17.3139 12.3779 17.1627C12.6325 17.0171 12.7899 16.7467 12.7907 16.4534V6.65114H14.6163C15.3791 6.64796 15.9968 6.03031 16 5.26742V2.27906C16.0064 1.02681 14.9965 0.00645 13.7442 2e-05C13.7423 1e-05 13.7403 0 13.7384 0ZM11.6279 15.8488L10.0232 14.8837C9.5878 14.6251 9.04591 14.6251 8.61046 14.8837L6.40117 16.2092L4.19769 14.8779C3.75683 14.6142 3.20616 14.6164 2.76746 14.8837L1.16281 15.8546V2.27906C1.15318 1.67227 1.63727 1.17256 2.24406 1.16292C2.24992 1.16283 2.25578 1.16278 2.26164 1.16278H11.8662C11.7127 1.45528 11.631 1.78012 11.6279 2.11045L11.6279 15.8488ZM14.8372 5.26742C14.8372 5.38944 14.7383 5.48835 14.6163 5.48835H12.7907V2.1279C12.7811 1.6046 13.1975 1.17258 13.7208 1.16295C13.7266 1.16284 13.7325 1.16279 13.7384 1.16279C14.3452 1.16279 14.8372 1.65475 14.8372 2.26162V5.26742Z" fill="white"/>
</g>
<defs>
<clipPath id="clip0_3490_2598">
<rect width="16" height="17.4244" fill="white"/>
</clipPath>
</defs>
</svg>
