<svg width="34" height="35" viewBox="0 0 34 35" fill="none" xmlns="http://www.w3.org/2000/svg">
<g clip-path="url(#clip0_3506_4705)">
<path d="M5.94531 2.0291V32.9709C5.94531 34.0915 6.85374 35 7.97443 35H25.1838C26.3044 35 27.2129 34.0916 27.2129 32.9709V2.02911C27.2128 0.908425 26.3044 0 25.1838 0H7.97436C6.85374 0 5.94531 0.908413 5.94531 2.0291Z" fill="#4B87A4"/>
<path d="M25.184 0H22.6353C23.7559 0 24.6644 0.908425 24.6644 2.0291V32.9709C24.6644 34.0915 23.7559 35 22.6353 35H25.184C26.3046 35 27.2131 34.0916 27.2131 32.9709V2.02911C27.213 0.908425 26.3046 0 25.184 0Z" fill="#3E768C"/>
<path d="M5.94531 32.5117V32.9711C5.94531 34.0917 6.85374 35.0002 7.97443 35.0002H25.1838C26.3044 35.0002 27.2129 34.0918 27.2129 32.9711V32.5117H5.94531Z" fill="#626E7B"/>
<path d="M27.2131 32.9711V32.5117H24.6644V32.9711C24.6644 34.0917 23.7559 35.0002 22.6353 35.0002H25.184C26.3046 35.0002 27.2131 34.0918 27.2131 32.9711Z" fill="#537983"/>
<path d="M14.582 0V1.25467C14.582 1.93607 15.1344 2.48849 15.8159 2.48849H17.3429C18.0243 2.48849 18.5767 1.93607 18.5767 1.25467V0H14.582Z" fill="#626E7B"/>
<path d="M2.01221 8.72572V26.2741C2.01221 26.6631 2.32748 26.9784 2.71644 26.9784H30.4416C30.8305 26.9784 31.1458 26.6631 31.1458 26.2741V8.72572C31.1458 8.33675 30.8305 8.02148 30.4416 8.02148H2.71644C2.32755 8.02148 2.01221 8.33675 2.01221 8.72572Z" fill="#626E7B"/>
<path d="M30.4415 8.02148H28.2329C28.6218 8.02148 28.9371 8.33675 28.9371 8.72572V26.2741C28.9371 26.663 28.6219 26.9784 28.2329 26.9784H30.4415C30.8305 26.9784 31.1458 26.6631 31.1458 26.2741V8.72572C31.1458 8.33675 30.8304 8.02148 30.4415 8.02148Z" fill="#537983"/>
<path d="M27.2129 11.4564V23.543C27.2129 23.8835 26.9369 24.1596 26.5963 24.1596H9.34857C9.18505 24.1596 9.02824 24.0946 8.91258 23.979L6.12591 21.1923C6.01025 21.0766 5.94531 20.9198 5.94531 20.7563V11.4564C5.94531 11.1159 6.22135 10.8398 6.56191 10.8398H26.5963C26.9369 10.8399 27.2129 11.1159 27.2129 11.4564Z" fill="#E8EDF2"/>
<path d="M25.2038 19.5022L24.408 15.3382C24.3515 15.0604 24.1144 14.8552 23.8313 14.8391C23.5486 14.8216 23.2893 15.0001 23.2019 15.2699C23.2 15.276 23.1981 15.282 23.1963 15.2882L22.4266 17.9882L21.6284 15.2829C21.6266 15.2766 21.6247 15.2704 21.6226 15.2641C21.5323 14.9953 21.2711 14.8218 20.9888 14.8398C20.7059 14.8587 20.4709 15.0663 20.416 15.3509L19.6657 19.5077C19.6139 19.7947 19.8046 20.0694 20.0917 20.1213C20.3782 20.1731 20.6534 19.9824 20.7053 19.6953L21.1317 17.3324L21.8357 19.7186C21.8376 19.7248 21.8395 19.731 21.8416 19.7372C21.9273 19.9923 22.1649 20.163 22.4337 20.163H22.4369C22.707 20.1616 22.9445 19.988 23.0278 19.7311C23.0298 19.725 23.0316 19.719 23.0334 19.7129L23.713 17.3289L24.1664 19.7006C24.2212 19.9872 24.498 20.1756 24.7843 20.1202C25.0708 20.0653 25.2587 19.7887 25.2038 19.5022Z" fill="#626E7B"/>
<path d="M18.2899 14.8379C17.9981 14.8379 17.7617 15.0744 17.7617 15.366V19.6346C17.7617 19.9263 17.9982 20.1627 18.2899 20.1627C18.5816 20.1627 18.818 19.9263 18.818 19.6346V15.366C18.8181 15.0743 18.5816 14.8379 18.2899 14.8379Z" fill="#626E7B"/>
<path d="M15.6628 17.0382C15.1376 16.8445 14.6487 16.6335 14.4996 16.5682C14.3807 16.4732 14.3847 16.3404 14.3926 16.2851C14.4036 16.2087 14.459 16.0221 14.7359 15.9387C15.3397 15.7568 15.8987 16.1977 15.9156 16.2113C16.1388 16.3966 16.4702 16.3671 16.6571 16.1446C16.8447 15.9213 16.816 15.5881 16.5926 15.4005C16.5524 15.3666 15.5948 14.5771 14.4313 14.9272C13.844 15.1042 13.4286 15.5669 13.347 16.135C13.2705 16.6678 13.5015 17.1805 13.9497 17.4726C13.9731 17.4879 13.9976 17.5013 14.023 17.5126C14.0477 17.5236 14.6354 17.7852 15.2972 18.0293C15.4857 18.0988 15.9177 18.2951 15.8603 18.6165C15.8173 18.8573 15.5247 19.1063 15.1093 19.1063C14.6837 19.1063 14.2739 18.9346 14.0132 18.6471C13.8173 18.4308 13.4832 18.4146 13.2672 18.6103C13.0511 18.8063 13.0347 19.1403 13.2305 19.3564C13.6881 19.8612 14.3905 20.1626 15.1094 20.1626C16.0063 20.1626 16.7595 19.5905 16.9003 18.8022C17.006 18.2091 16.7366 17.4343 15.6628 17.0382Z" fill="#626E7B"/>
<path d="M10.1161 15.4356C8.85996 15.4356 7.90833 16.5025 7.94538 17.6281L7.95174 17.8044C7.95461 19.1052 9.0137 20.1627 10.3152 20.1627C10.8381 20.1627 11.3079 19.9905 11.6738 19.6645C11.8916 19.4704 11.9109 19.1366 11.7169 18.9187C11.5228 18.701 11.1889 18.6816 10.9712 18.8757C10.7994 19.0287 10.5787 19.1064 10.3152 19.1064C9.80578 19.1064 9.3646 18.8128 9.14898 18.3866H11.7588C12.0506 18.3866 12.2869 18.1502 12.2869 17.8585V17.6066C12.2869 16.4094 11.3131 15.4356 10.1161 15.4356ZM9.03653 17.3303C9.16047 16.8488 9.59742 16.4919 10.1161 16.4919C10.6354 16.4919 11.0728 16.8488 11.196 17.3303H9.03653Z" fill="#626E7B"/>
<path d="M29.1338 10.6041V12.0641C29.1338 12.2586 29.2914 12.4162 29.4859 12.4162H32.8065C33.001 12.4162 33.1586 12.2586 33.1586 12.0641V10.6041C33.1586 10.4096 33.001 10.252 32.8065 10.252H29.4859C29.2914 10.252 29.1338 10.4096 29.1338 10.6041Z" fill="#B6BCC3"/>
<path d="M29.1338 14.7154V16.1754C29.1338 16.3699 29.2914 16.5275 29.4859 16.5275H32.8065C33.001 16.5275 33.1586 16.3699 33.1586 16.1754V14.7154C33.1586 14.5209 33.001 14.3633 32.8065 14.3633H29.4859C29.2914 14.3634 29.1338 14.521 29.1338 14.7154Z" fill="#B6BCC3"/>
<path d="M29.1338 18.8248V20.2848C29.1338 20.4793 29.2914 20.6369 29.4859 20.6369H32.8065C33.001 20.6369 33.1586 20.4793 33.1586 20.2848V18.8248C33.1586 18.6303 33.001 18.4727 32.8065 18.4727H29.4859C29.2914 18.4727 29.1338 18.6303 29.1338 18.8248Z" fill="#B6BCC3"/>
<path d="M29.1338 22.9361V24.3961C29.1338 24.5906 29.2914 24.7482 29.4859 24.7482H32.8065C33.001 24.7482 33.1586 24.5906 33.1586 24.3961V22.9361C33.1586 22.7416 33.001 22.584 32.8065 22.584H29.4859C29.2914 22.584 29.1338 22.7416 29.1338 22.9361Z" fill="#B6BCC3"/>
<path d="M0 10.6041V12.0641C0 12.2586 0.15764 12.4162 0.352123 12.4162H3.67274C3.86722 12.4162 4.02486 12.2586 4.02486 12.0641V10.6041C4.02486 10.4096 3.86722 10.252 3.67274 10.252H0.352053C0.15764 10.252 0 10.4096 0 10.6041Z" fill="#B6BCC3"/>
<path d="M0 14.7154V16.1754C0 16.3699 0.15764 16.5275 0.352123 16.5275H3.67274C3.86722 16.5275 4.02486 16.3699 4.02486 16.1754V14.7154C4.02486 14.5209 3.86722 14.3633 3.67274 14.3633H0.352053C0.15764 14.3634 0 14.521 0 14.7154Z" fill="#B6BCC3"/>
<path d="M0 18.8248V20.2848C0 20.4793 0.15764 20.6369 0.352123 20.6369H3.67274C3.86722 20.6369 4.02486 20.4793 4.02486 20.2848V18.8248C4.02486 18.6303 3.86722 18.4727 3.67274 18.4727H0.352053C0.15764 18.4727 0 18.6303 0 18.8248Z" fill="#B6BCC3"/>
<path d="M0 22.9361V24.3961C0 24.5906 0.15764 24.7482 0.352123 24.7482H3.67274C3.86722 24.7482 4.02486 24.5906 4.02486 24.3961V22.9361C4.02486 22.7416 3.86722 22.584 3.67274 22.584H0.352053C0.15764 22.584 0 22.7416 0 22.9361Z" fill="#B6BCC3"/>
</g>
<defs>
<clipPath id="clip0_3506_4705">
<rect width="33.1584" height="35" fill="white"/>
</clipPath>
</defs>
</svg>
