<svg width="126" height="34" viewBox="0 0 126 34" fill="none" xmlns="http://www.w3.org/2000/svg">
<rect x="0.666016" width="125" height="33.3333" rx="5" fill="#F9F9F9"/>
<rect x="1.16602" y="0.5" width="124" height="32.3333" rx="4.5" stroke="#333333" stroke-opacity="0.3"/>
<g clip-path="url(#clip0_4183_411)">
<path d="M90.6207 11.35C90.5835 11.5038 90.5482 11.6581 90.5088 11.8114C90.1749 13.2252 88.8626 14.1864 87.4139 14.0782C86.8258 14.0674 86.2425 13.9702 85.6828 13.7897C85.4662 13.7632 85.2465 13.7769 85.0349 13.83C84.7472 13.855 84.4597 13.9038 84.1721 13.9044C81.4688 13.9102 78.7655 13.9113 76.0621 13.9079H75.7666L75.9592 12.6353H79.3543C79.3331 12.6609 79.3501 12.6499 79.3499 12.6392C79.3359 11.8084 79.3269 10.9774 79.2995 10.147C79.2824 9.98754 79.2377 9.83227 79.1673 9.68814C78.9918 9.18705 78.5076 8.86113 77.9773 8.88716C77.5268 8.88551 77.0762 8.88661 76.6257 8.88649H76.3562C76.4158 8.46794 76.4666 8.08389 76.5302 7.70198C76.5511 7.64378 76.6003 7.60029 76.6606 7.5867C77.4229 7.56584 78.1858 7.5911 78.9451 7.66234C80.0798 7.85221 80.9501 8.77305 81.0757 9.91665C81.1353 10.3625 81.1664 10.8117 81.1688 11.2615C81.1837 11.695 81.1721 12.1295 81.1721 12.5801C81.2532 12.5863 81.319 12.5955 81.3847 12.5955C82.3622 12.5965 83.3397 12.5902 84.3171 12.6011C84.4551 12.6259 84.587 12.5341 84.6117 12.3962C84.6148 12.3789 84.6161 12.3614 84.6156 12.3439C84.6282 12.2224 84.6337 12.1003 84.632 11.9782C84.6333 11.161 84.6316 10.3439 84.633 9.52683C84.5473 8.68747 85.1074 7.9182 85.9325 7.74208C86.2937 7.62955 86.6741 7.57885 87.0458 7.5H87.8249C87.8822 7.51855 87.9406 7.53357 87.9998 7.54496C89.2036 7.67498 90.1969 8.54533 90.4839 9.72162C90.5356 9.91137 90.5754 10.1043 90.6207 10.2958L90.6207 11.35ZM86.3095 9.26401C86.3286 9.50315 86.3573 9.70546 86.3588 9.90797C86.3643 10.6784 86.3681 11.4489 86.356 12.2191C86.353 12.4087 86.4208 12.4785 86.5944 12.4901C86.8985 12.5104 87.2019 12.5504 87.5061 12.5563C88.1049 12.6143 88.6512 12.2117 88.773 11.6225C88.9324 11.0534 88.9342 10.4517 88.7783 9.88172C88.7162 9.53415 88.4757 9.24496 88.1452 9.12066C87.5359 8.9471 86.8845 8.99796 86.3095 9.26401Z" fill="black"/>
<path d="M75.126 7.61154L74.9294 8.89814H74.6554C73.5097 8.89814 72.364 8.89845 71.2183 8.89906C71.058 8.89666 70.8976 8.90405 70.7381 8.92119C70.3424 8.93015 70.0288 9.25821 70.0378 9.65395C70.0383 9.678 70.0401 9.70201 70.043 9.72587C70.0307 10.1329 70.3508 10.4729 70.7578 10.4852C70.771 10.4856 70.7842 10.4857 70.7974 10.4854C71.3774 10.5014 71.9583 10.4844 72.5386 10.4971C72.7978 10.4991 73.0563 10.5255 73.3105 10.5759C74.2449 10.7493 74.9087 11.5845 74.8668 12.5338C74.8652 12.7855 74.8351 13.0363 74.7769 13.2811C74.5982 13.9937 73.9925 14.5182 73.2616 14.593C72.8798 14.6673 72.4917 14.705 72.1026 14.7054C69.5593 14.7107 67.0157 14.7162 64.4725 14.6916C63.0316 14.7547 61.8123 13.6377 61.7492 12.1967C61.7473 12.1529 61.7465 12.109 61.7468 12.0651C61.6613 11.2894 61.7074 10.5048 61.8829 9.74435C62.1825 8.52487 63.2843 7.67366 64.5399 7.69159C65.3406 7.67738 66.1418 7.68897 66.96 7.68897L66.7681 8.99806C66.46 8.99806 66.1565 8.99741 65.853 8.99824C65.5551 8.99906 65.2569 8.99283 64.9595 9.00491C64.4534 8.99803 63.9967 9.30751 63.8156 9.78012C63.6969 10.0606 63.6286 10.3599 63.6138 10.6641C63.5826 11.2193 63.602 11.7762 63.672 12.3278C63.7354 12.922 64.2373 13.3723 64.8348 13.3711C65.5807 13.4161 66.3304 13.404 67.0785 13.4067C68.7206 13.4125 70.3628 13.4146 72.005 13.4131C72.1269 13.4159 72.2489 13.4076 72.3693 13.3881C72.8468 13.3159 73.1754 12.8703 73.1032 12.3928C73.0373 11.9567 72.6569 11.638 72.216 11.6494C71.4983 11.6369 70.7794 11.6532 70.0632 11.6161C69.2868 11.6163 68.6016 11.1086 68.3758 10.3658C68.1022 9.57772 68.3366 8.70244 68.9675 8.15657C69.4484 7.79455 70.0353 7.60116 70.6372 7.60635C72.1032 7.57983 73.5699 7.59209 75.0363 7.58954C75.0668 7.59403 75.0969 7.60139 75.126 7.61154Z" fill="black"/>
<path d="M90.6197 25.8332C90.0498 25.73 89.4813 25.6172 88.9089 25.5298C88.7428 25.5182 88.5758 25.5336 88.4145 25.5755C87.7299 25.7407 87.0169 25.7498 86.3283 25.6023C85.5479 25.4436 84.9904 24.7526 85.0005 23.9563C84.9046 23.1503 85.4305 22.4013 86.2212 22.2178C86.7313 22.0971 87.2513 22.0221 87.7747 21.994C88.1293 21.9611 88.4894 21.9877 88.8427 21.9877C89.0139 21.2612 88.6793 20.8079 87.9574 20.7952C87.17 20.7995 86.3896 20.9425 85.6519 21.2175C85.581 21.2419 85.5088 21.2623 85.4154 21.2914L85.2252 20.0033C86.418 19.5146 87.7175 19.3452 88.9956 19.512C89.8671 19.6165 90.5362 20.3345 90.5789 21.2112C90.5894 21.2706 90.603 21.3294 90.6196 21.3873L90.6197 25.8332ZM88.2108 23.0387L88.205 23.0107C87.8738 23.0381 87.5447 23.0874 87.22 23.1583C86.8996 23.2617 86.706 23.5873 86.7683 23.9182C86.7694 24.224 87.0036 24.4785 87.3083 24.5051C87.6543 24.5323 88.0025 24.5132 88.3436 24.4483C88.9108 24.3472 88.9108 24.3277 88.9055 23.746C88.9035 23.521 88.9619 23.2237 88.8443 23.0931C88.7406 22.9781 88.43 23.0496 88.2108 23.0387Z" fill="black"/>
<path d="M70.5722 25.6334H68.7746V25.3519C68.7745 24.2061 68.7744 23.0604 68.7739 21.9146C68.7762 21.7924 68.7713 21.6702 68.7592 21.5486C68.739 21.221 68.4819 20.9577 68.1549 20.9298C67.7673 20.8824 67.3742 20.9498 67.0245 21.1236C67.0363 21.6281 67.0545 22.1041 67.0571 22.5802C67.0622 23.512 67.0586 24.444 67.0586 25.3759V25.6336H65.2652V25.37C65.2652 24.2242 65.2544 23.0783 65.2686 21.9327C65.2796 21.0407 64.8798 20.8088 64.0446 20.9555C63.5438 21.0435 63.546 21.0565 63.546 21.5575V25.6256H61.7217V25.3494C61.7217 23.8675 61.7217 22.3857 61.7219 20.9038C61.7223 20.1524 61.913 19.8986 62.6413 19.6993C63.5272 19.4239 64.4656 19.3615 65.3802 19.5171C65.6319 19.5756 65.8746 19.6674 66.1021 19.7901C66.2022 19.8538 66.3279 19.862 66.4355 19.8119C67.293 19.4284 68.2531 19.3382 69.167 19.5551C69.954 19.6973 70.5285 20.3791 70.5352 21.1787C70.5774 22.3535 70.5631 23.5304 70.5719 24.7064C70.5742 25.0103 70.5722 25.3143 70.5722 25.6334Z" fill="black"/>
<path d="M82.171 19.6956V19.4281C82.1711 18.6799 82.1729 17.9317 82.1694 17.1835C82.1689 17.0638 82.1845 16.9813 82.3265 16.9585C82.8681 16.8718 83.4085 16.7774 83.9832 16.6802V16.9379C83.9832 19.3963 83.983 21.8547 83.9828 24.3131C83.9825 25.0172 83.8283 25.2323 83.1575 25.4385C82.2935 25.7056 81.3803 25.774 80.4862 25.6384C79.2047 25.4651 78.2387 24.3868 78.2069 23.0939C78.1502 22.5077 78.1929 21.9161 78.3334 21.3441C78.556 20.2421 79.5339 19.4563 80.6581 19.4761C81.0676 19.493 81.4753 19.5408 81.8777 19.6189C81.9769 19.6387 82.0748 19.6644 82.171 19.6956ZM82.171 22.6247V21.7323C82.171 21.1869 81.8953 20.8898 81.3439 20.8409C80.7557 20.7438 80.196 21.1287 80.0761 21.7127C79.9259 22.2759 79.9273 22.8688 80.0801 23.4313C80.1959 24.0216 80.74 24.4281 81.3388 24.3717C81.5357 24.3681 81.7315 24.3245 81.9285 24.3094C82.1143 24.2951 82.1832 24.2179 82.1762 24.0202C82.1598 23.5556 82.171 23.0899 82.171 22.6247Z" fill="black"/>
<path d="M75.4445 21.9897C75.5037 21.0728 75.2208 20.7707 74.3465 20.7952C73.6286 20.8264 72.9197 20.9675 72.2446 21.2135C72.1735 21.2381 72.1014 21.2595 71.9964 21.2929C71.9379 20.8831 71.8782 20.4867 71.8295 20.0889C71.8386 20.0353 71.8739 19.9897 71.9235 19.9676C72.8903 19.6048 73.9154 19.4223 74.948 19.4294C75.1083 19.4371 75.2679 19.4544 75.426 19.4812C76.4558 19.5408 77.2424 20.4238 77.1828 21.4536C77.1812 21.4825 77.1788 21.5113 77.1758 21.54C77.1867 22.915 77.1787 24.29 77.1784 25.665C77.1784 25.7103 77.1737 25.7556 77.1698 25.8267C76.9685 25.7924 76.774 25.7727 76.5866 25.725C75.8647 25.5304 75.1071 25.5089 74.3753 25.662C73.8329 25.7759 73.2697 25.7387 72.7471 25.5543C72.0394 25.3458 71.56 24.688 71.5781 23.9504C71.506 23.2152 71.9382 22.5237 72.6306 22.2664C73.1241 22.078 73.6489 21.9848 74.1771 21.9917C74.595 21.9816 75.0133 21.9897 75.4445 21.9897ZM75.4816 23.0842C74.9582 23.0842 74.4766 23.0529 74.0011 23.0934C73.61 23.1177 73.3126 23.4543 73.3368 23.8454C73.3376 23.8586 73.3388 23.8717 73.3403 23.8848C73.3437 24.2523 73.6443 24.5474 74.0118 24.5441C74.0332 24.5439 74.0545 24.5427 74.0758 24.5404C74.5141 24.4991 74.9492 24.4286 75.3782 24.3293C75.4298 24.3078 75.467 24.2617 75.4771 24.2067C75.4849 23.834 75.4816 23.4611 75.4816 23.0842Z" fill="black"/>
<path d="M58.9036 7.5H35.666V15.2H58.9036V7.5Z" fill="#269AD6"/>
<path d="M58.9036 17.9961H35.666V25.6961H58.9036V17.9961Z" fill="#84B741"/>
</g>
<defs>
<clipPath id="clip0_4183_411">
<rect width="54.9542" height="18.3333" fill="white" transform="translate(35.666 7.5)"/>
</clipPath>
</defs>
</svg>
