<svg width="21" height="22" viewBox="0 0 21 22" fill="none" xmlns="http://www.w3.org/2000/svg">
<g clip-path="url(#clip0_3505_2239)">
<path d="M9.96189 5.54199H15.981C16.3965 5.54199 16.7334 5.87065 16.7334 6.27606C16.7334 6.68146 16.3965 7.01012 15.981 7.01012H9.96187C9.54635 7.01012 9.20949 6.68146 9.20949 6.27606C9.20949 5.87065 9.54636 5.54199 9.96189 5.54199Z" fill="white"/>
<path d="M9.96189 9.46973H15.981C16.3965 9.46973 16.7334 9.79838 16.7334 10.2038C16.7334 10.6092 16.3965 10.9379 15.981 10.9379H9.96187C9.54635 10.9379 9.20949 10.6092 9.20949 10.2038C9.20949 9.79838 9.54636 9.46973 9.96189 9.46973Z" fill="white"/>
<path d="M9.96189 13.4844H15.981C16.3965 13.4844 16.7334 13.813 16.7334 14.2184C16.7334 14.6238 16.3965 14.9525 15.981 14.9525H9.96187C9.54635 14.9525 9.20949 14.6238 9.20949 14.2184C9.20949 13.813 9.54636 13.4844 9.96189 13.4844Z" fill="white"/>
<path d="M2.927 0H17.7792C19.3998 0.0040277 20.7102 1.28905 20.706 2.87016C20.706 2.87262 20.706 2.87508 20.706 2.87754V20.7815C20.7075 21.3531 20.2338 21.8177 19.6479 21.8192C19.4533 21.8197 19.2624 21.768 19.0959 21.6697L16.3271 20.0474C16.2419 19.9956 16.1339 19.9956 16.0487 20.0474L12.9714 21.8458C12.8096 21.9465 12.6216 22 12.4297 22C12.2366 21.999 12.0471 21.9484 11.8805 21.8532L8.78812 20.0474C8.70292 19.9956 8.59495 19.9956 8.50973 20.0474L5.75598 21.6697C5.42672 21.8605 5.01684 21.8605 4.68758 21.6697C4.35815 21.4859 4.15445 21.1444 4.15338 20.7741V8.39774H1.79088C0.803621 8.39372 0.0043087 7.61387 0.000179291 6.65065V2.87754C-0.00812721 1.29645 1.29887 0.00814378 2.91943 2.5252e-05C2.92195 1.2626e-05 2.92447 0 2.927 0ZM5.65818 20.0107L7.73479 18.7921C8.29831 18.4657 8.99958 18.4657 9.56311 18.7921L12.4222 20.4658L15.2738 18.7848C15.8443 18.4519 16.5569 18.4547 17.1246 18.7921L19.2012 20.018V2.87754C19.2137 2.11141 18.5872 1.48048 17.802 1.4683C17.7944 1.46819 17.7868 1.46813 17.7792 1.46813H5.34973C5.54843 1.83744 5.65416 2.24758 5.65821 2.66466L5.65818 20.0107ZM1.50498 6.65065C1.50498 6.80471 1.63298 6.9296 1.79089 6.9296H4.15339V2.68669C4.16586 2.02597 3.62699 1.4805 2.94977 1.46834C2.94218 1.4682 2.93459 1.46814 2.927 1.46814C2.14164 1.46814 1.50498 2.08929 1.50498 2.85552V6.65065Z" fill="white"/>
</g>
<defs>
<clipPath id="clip0_3505_2239">
<rect width="20.7059" height="22" fill="white" transform="matrix(-1 0 0 1 20.7061 0)"/>
</clipPath>
</defs>
</svg>
