<svg width="17" height="17" viewBox="0 0 17 17" fill="none" xmlns="http://www.w3.org/2000/svg">
<g clip-path="url(#clip0_4183_510)">
<path d="M16.25 14.7955C16.25 15.5987 15.5987 16.25 14.7955 16.25H1.70455C0.90128 16.25 0.25 15.5987 0.25 14.7955V1.70455C0.25 0.90127 0.90127 0.25 1.70455 0.25H14.7955C15.5987 0.25 16.25 0.90127 16.25 1.70455L16.25 14.7955Z" stroke="#626E7B" stroke-linecap="round" stroke-linejoin="round"/>
<path d="M13.341 13.341H3.15918V3.15918H10.7959L13.341 5.70463V13.341Z" stroke="#626E7B" stroke-linecap="round" stroke-linejoin="round"/>
<path d="M13.3408 0.25V1.70455" stroke="#626E7B" stroke-linecap="round" stroke-linejoin="round"/>
<path d="M10.7959 0.25V1.70455" stroke="#626E7B" stroke-linecap="round" stroke-linejoin="round"/>
<path d="M8.25 0.25V1.70455" stroke="#626E7B" stroke-linecap="round" stroke-linejoin="round"/>
<path d="M5.7041 0.25V1.70455" stroke="#626E7B" stroke-linecap="round" stroke-linejoin="round"/>
<path d="M3.15918 0.25V1.70455" stroke="#626E7B" stroke-linecap="round" stroke-linejoin="round"/>
<path d="M13.3408 14.7954V16.25" stroke="#626E7B" stroke-linecap="round" stroke-linejoin="round"/>
<path d="M10.7959 14.7954V16.25" stroke="#626E7B" stroke-linecap="round" stroke-linejoin="round"/>
<path d="M8.25 14.7954V16.25" stroke="#626E7B" stroke-linecap="round" stroke-linejoin="round"/>
<path d="M5.7041 14.7954V16.25" stroke="#626E7B" stroke-linecap="round" stroke-linejoin="round"/>
<path d="M3.15918 14.7954V16.25" stroke="#626E7B" stroke-linecap="round" stroke-linejoin="round"/>
<path d="M16.2504 13.3408H14.7959" stroke="#626E7B" stroke-linecap="round" stroke-linejoin="round"/>
<path d="M16.2504 10.7954H14.7959" stroke="#626E7B" stroke-linecap="round" stroke-linejoin="round"/>
<path d="M16.2504 8.25H14.7959" stroke="#626E7B" stroke-linecap="round" stroke-linejoin="round"/>
<path d="M16.2504 5.70459H14.7959" stroke="#626E7B" stroke-linecap="round" stroke-linejoin="round"/>
<path d="M16.2504 3.15918H14.7959" stroke="#626E7B" stroke-linecap="round" stroke-linejoin="round"/>
<path d="M1.70455 13.3408H0.25" stroke="#626E7B" stroke-linecap="round" stroke-linejoin="round"/>
<path d="M1.70455 10.7954H0.25" stroke="#626E7B" stroke-linecap="round" stroke-linejoin="round"/>
<path d="M1.70455 8.25H0.25" stroke="#626E7B" stroke-linecap="round" stroke-linejoin="round"/>
<path d="M1.70455 5.70459H0.25" stroke="#626E7B" stroke-linecap="round" stroke-linejoin="round"/>
<path d="M1.70455 3.15918H0.25" stroke="#626E7B" stroke-linecap="round" stroke-linejoin="round"/>
<path d="M10.1167 9.72204C9.73419 10.3653 9.04182 10.7955 8.25018 10.7955C7.04545 10.7955 6.06836 9.7984 6.06836 8.56822V7.93186C6.06836 6.70168 7.04545 5.70459 8.25018 5.70459C9.45491 5.70459 10.432 6.70168 10.432 7.93186V8.25004H6.06836" stroke="#626E7B" stroke-linecap="round" stroke-linejoin="round"/>
</g>
<defs>
<clipPath id="clip0_4183_510">
<rect width="16.5" height="16.5" fill="white"/>
</clipPath>
</defs>
</svg>
