<svg width="14" height="16" viewBox="0 0 14 16" fill="none" xmlns="http://www.w3.org/2000/svg">
<g clip-path="url(#clip0_3490_2478)">
<path fill-rule="evenodd" clip-rule="evenodd" d="M13.0232 1.30232V15.4418C13.0232 15.6486 12.9086 15.8384 12.7255 15.9351C12.5425 16.0319 12.3215 16.0193 12.1503 15.9024L10.2935 14.6351L8.53801 15.895C8.32739 16.0468 8.04014 16.0326 7.84516 15.8615L6.51159 14.6954L5.17802 15.8615C4.98304 16.0326 4.69579 16.0468 4.4852 15.895L2.72966 14.6351L0.87294 15.9024C0.70178 16.0192 0.48077 16.0319 0.29767 15.9351C0.1146 15.8384 0 15.6486 0 15.4418V1.30232C4e-05 0.58344 0.58272 0 1.30236 0H11.7209C12.4405 0 13.0232 0.58344 13.0232 1.30232ZM11.9069 1.30232C11.9069 1.19962 11.8236 1.11627 11.7209 1.11627H1.30236C1.19966 1.11627 1.11631 1.19962 1.11631 1.30232V14.385L2.42309 13.4928C2.61658 13.3603 2.87258 13.3633 3.06309 13.5002L4.77619 14.7303L6.14399 13.5337C6.35458 13.3491 6.66865 13.3491 6.87924 13.5337L8.24704 14.7303L9.96014 13.5002C10.1506 13.3633 10.4066 13.3603 10.6001 13.4928L11.9069 14.385L11.9069 1.30232Z" fill="#626E7B"/>
<path fill-rule="evenodd" clip-rule="evenodd" d="M3.5347 4.09284C3.22661 4.09284 2.97656 3.8428 2.97656 3.5347C2.97656 3.2266 3.2266 2.97656 3.5347 2.97656H9.48815C9.79624 2.97656 10.0463 3.2266 10.0463 3.5347C10.0463 3.8428 9.79625 4.09284 9.48815 4.09284H3.5347Z" fill="#626E7B"/>
<path fill-rule="evenodd" clip-rule="evenodd" d="M3.5347 7.06989C3.22661 7.06989 2.97656 6.81985 2.97656 6.51175C2.97656 6.20365 3.2266 5.95361 3.5347 5.95361H9.48815C9.79624 5.95361 10.0463 6.20365 10.0463 6.51175C10.0463 6.81985 9.79625 7.06989 9.48815 7.06989H3.5347Z" fill="#626E7B"/>
<path fill-rule="evenodd" clip-rule="evenodd" d="M3.5347 10.0465C3.22661 10.0465 2.97656 9.79642 2.97656 9.48832C2.97656 9.18022 3.2266 8.93018 3.5347 8.93018H6.51142C6.81951 8.93018 7.06956 9.18022 7.06956 9.48832C7.06956 9.79642 6.81952 10.0465 6.51142 10.0465H3.5347Z" fill="#626E7B"/>
</g>
<defs>
<clipPath id="clip0_3490_2478">
<rect width="13.0232" height="16" fill="white"/>
</clipPath>
</defs>
</svg>
