<svg width="30" height="30" viewBox="0 0 30 30" fill="none" xmlns="http://www.w3.org/2000/svg">
<g clip-path="url(#clip0_3501_695)">
<path d="M26.625 0H3.375C1.51104 0 0 1.51104 0 3.375V26.625C0 28.489 1.51104 30 3.375 30H26.625C28.489 30 30 28.489 30 26.625V3.375C30 1.51104 28.489 0 26.625 0Z" fill="#626E7B"/>
<path d="M23.4532 19.24C23.4067 19.2032 20.0333 16.7716 19.1074 16.9461C18.6654 17.0243 18.4127 17.3258 17.9055 17.9293C17.8239 18.0268 17.6278 18.2602 17.4754 18.4263C17.1549 18.3217 16.8422 18.1945 16.5398 18.0455C14.979 17.2856 13.7178 16.0244 12.9579 14.4636C12.8088 14.1612 12.6816 13.8486 12.5771 13.528C12.7437 13.375 12.9772 13.1789 13.0769 13.0951C13.6776 12.5907 13.9796 12.338 14.0578 11.8949C14.2182 10.9769 11.7883 7.58027 11.7628 7.54967C11.5396 7.23074 11.1849 7.02895 10.7967 7C9.8118 7 7 10.6476 7 11.2619C7 11.2976 7.05157 14.9265 11.5265 19.4786C16.074 23.9484 19.7024 24 19.7381 24C20.3529 24 24 21.1882 24 20.2033C23.9714 19.8165 23.7707 19.4629 23.4532 19.24Z" fill="white"/>
</g>
<defs>
<clipPath id="clip0_3501_695">
<rect width="30" height="30" fill="white"/>
</clipPath>
</defs>
</svg>
