<svg width="340" height="242" viewBox="0 0 340 242" fill="none" xmlns="http://www.w3.org/2000/svg">
<g filter="url(#filter0_d_3489_607)">
<rect x="40" y="28" width="60" height="80" rx="24" fill="#F1F3F6"/>
<rect x="43" y="31" width="54" height="74" rx="21" stroke="white" stroke-width="6"/>
</g>
<g filter="url(#filter1_d_3489_607)">
<rect x="140" y="28" width="60" height="80" rx="24" fill="#F1F3F6"/>
<rect x="143" y="31" width="54" height="74" rx="21" stroke="white" stroke-width="6"/>
</g>
<g filter="url(#filter2_d_3489_607)">
<rect x="240" y="28" width="60" height="80" rx="24" fill="#F1F3F6"/>
<rect x="243" y="31" width="54" height="74" rx="21" stroke="white" stroke-width="6"/>
</g>
<path d="M144.384 133.701L145.942 132.638C146.372 132.346 146.482 131.747 146.194 131.305L136.155 116.134C135.867 115.692 135.279 115.574 134.849 115.865L133.291 116.929C132.861 117.22 132.75 117.819 133.039 118.261L143.077 133.432C143.366 133.874 143.954 133.993 144.384 133.701Z" fill="#4B87A4"/>
<path d="M150.039 140.825C150.469 134.834 150.67 127.918 148.193 129.513C145.717 131.107 145.273 133.179 141.193 128.304C137.114 123.43 133.951 122.252 135.324 127.797C136.698 133.342 141.679 137.992 146.432 141.719C151.184 145.446 150.039 140.825 150.039 140.825Z" fill="#F1F3F6"/>
<path d="M192.76 205.408L182.475 235.129H158.85" stroke="#D9DEE4" stroke-width="12" stroke-linecap="round" stroke-linejoin="round"/>
<path d="M174.448 172.288L125.162 186.702C113.327 190.163 109.691 205.148 118.624 213.649L129.5 224L133 221.935L124.536 201.935C125.974 198.51 129.292 196.246 133 196.166L193.142 193.102L174.448 172.288Z" fill="#626E7B"/>
<path d="M167.25 173.643L124.593 177.705C117.269 178.403 111.365 184.004 110.284 191.281L103.875 234.393H107.625L123.538 200.956C125.244 197.657 128.732 195.665 132.435 195.881H184.226L167.25 173.643Z" fill="#B6BCC4"/>
<path d="M185.625 198.552L202.242 141.277C195.617 142.527 179.925 147.552 178.125 155.052C175.875 164.427 164.625 170.427 160.125 177.927C156.525 183.927 175.625 194.177 185.625 198.552Z" fill="#DBE8EB"/>
<g opacity="0.6" filter="url(#filter3_f_3489_607)">
<ellipse cx="182.709" cy="173.227" rx="8.23844" ry="12.5" transform="rotate(99.7011 182.709 173.227)" fill="#A6C5CD"/>
</g>
<path d="M225 86.6299V106.741C225 109.561 224.503 112.36 223.531 115.008L193.761 196.139C192.028 200.864 187.529 204.005 182.496 204.005H132" stroke="#4B87A4" stroke-width="20" stroke-linecap="round"/>
<path d="M149 164C164.486 164 182.623 165.427 196.493 167.681C203.47 168.814 207.197 176.077 204.652 182.67C202.215 188.987 199.726 195.422 197.696 200.756C195.901 205.472 191.391 208.625 186.345 208.625H152" stroke="#F1F3F6" stroke-width="14" stroke-linecap="round"/>
<mask id="mask0_3489_607" style="mask-type:alpha" maskUnits="userSpaceOnUse" x="142" y="157" width="71" height="59">
<path fill-rule="evenodd" clip-rule="evenodd" d="M197.616 160.771C183.348 158.454 164.835 157 149 157C145.134 157 142 160.134 142 164C142 167.866 145.134 171 149 171C164.137 171 181.897 172.401 195.371 174.59C197.524 174.94 199.228 177.282 198.122 180.151C197.742 181.133 197.362 182.12 196.981 183.105C194.921 188.442 192.873 193.747 191.154 198.266C190.377 200.306 188.443 201.625 186.345 201.625H152C148.134 201.625 145 204.759 145 208.625C145 212.491 148.134 215.625 152 215.625H186.345C194.339 215.625 201.425 210.637 204.238 203.245C205.945 198.761 207.978 193.493 210.039 188.155C210.42 187.167 210.802 186.178 211.183 185.19C215.165 174.871 209.415 162.688 197.616 160.771Z" fill="#DBE8EB"/>
</mask>
<g mask="url(#mask0_3489_607)">
<g opacity="0.4" filter="url(#filter4_f_3489_607)">
<ellipse cx="179.481" cy="159.564" rx="3.90157" ry="21.361" transform="rotate(108.759 179.481 159.564)" fill="#4B87A4"/>
</g>
</g>
<path d="M207.793 102C207.768 102.029 207.745 102.06 207.723 102.092C207.132 102.866 202.879 108.407 198.356 113.625C187.856 116.625 178.856 148.5 178.856 148.5C178.856 148.5 148.856 136.125 147.043 137.625C145.23 139.125 142.543 140.25 153.356 148.125C165.36 156.867 181.856 165 186.731 165.75C191.606 166.5 197.231 166.875 203.981 148.5C210.731 130.125 211.856 124.125 209.981 115.125C208.511 108.066 206.619 103.675 207.723 102.092C207.769 102.031 207.793 102 207.793 102Z" fill="#DBE8EB"/>
<path d="M109.324 230.495L110.234 237.938C110.39 239.169 109.384 240.25 108.09 240.25L82.0744 240.146C80.9006 240.146 80.5772 238.594 81.6671 238.156L104.485 229L109.324 230.495Z" fill="#4B87A4"/>
<path d="M132.397 220.672L138.675 224.772C139.716 225.446 139.894 226.913 139.061 227.902L132.824 235.242C131.394 236.924 129.529 238.18 127.432 238.871C125.51 239.504 123.291 240.236 122.5 240.5C121 241 120.348 240.644 120.716 239.529L124.283 235.082L128.135 223.408L132.397 220.672Z" fill="#4B87A4"/>
<path d="M181.786 84.2591C181.786 84.2591 181.998 89.0332 182.673 91.7626C183.347 94.4919 183.572 95.4017 183.11 97.4465C182.648 99.4912 182.186 101.536 183.547 103.13C184.908 104.725 187.405 107.004 187.63 107.914C187.855 108.823 187.938 112.62 191.121 113.764C194.305 114.908 198.996 114.139 203.56 109.77C208.129 104.78 210.644 99.8141 210.644 99.8141L209.563 83.1881L195.693 77.9271L183.845 80.8543L181.786 84.2591Z" fill="#F1F3F6"/>
<path d="M207.339 100.445C209.134 101.526 208.687 105.903 209.599 105.678C210.51 105.453 211.421 105.228 212.12 100.229C212.819 95.2293 214.296 85.5472 211.045 80.2224C207.794 74.8976 203.979 72.8807 197.636 72.9168C191.294 72.9529 183.043 76.7029 179.41 77.4201C177.532 77.7908 175.104 77.1044 173.196 76.3546C172.264 75.9885 171.432 76.9302 172.101 77.6746C172.632 78.2661 173.266 78.8861 174 79.4628C174.459 79.8243 172.928 80.9522 172.36 81.0924C171.73 81.2481 173.088 81.7802 173.699 81.9998L176.137 82.8759C176.861 83.1362 176.932 84.1326 176.251 84.4926C175.592 84.8418 175.642 85.7784 176.349 86.0162C177.269 86.3252 178.405 86.6521 179.379 86.7693C179.883 86.8299 179.707 88.2468 179.347 88.6038C178.937 89.0102 179.908 89.5364 180.483 89.5878C182.464 89.7649 185.628 89.619 188.711 87.6711C188.711 87.6711 193.043 85.6355 194.167 90.1844C195.291 94.7333 194.829 96.7781 195.965 97.4627C197.101 98.1473 198.699 96.7872 199.847 93.6075C200.996 90.4278 202.818 89.9775 204.866 90.437C206.913 90.8964 206.901 94.7607 206.215 95.8957C205.528 97.0306 204.842 98.1656 204.842 98.1656C204.842 98.1656 206.202 99.76 207.339 100.445Z" fill="#4B87A4"/>
<path d="M73.4908 61.269C76.3076 51.8632 85.0403 45 95.3866 45H97.7328V90.4995C95.8235 94.9139 91.4269 98 86.3109 98C79.4807 98 73.9345 92.4987 73.8807 85.6959C73.1143 85.8435 72.3277 85.9241 71.521 85.9241C68.7983 85.9241 66.2908 85.0385 64.2403 83.5625C62.674 84.6292 60.7849 85.2532 58.7479 85.2532C53.363 85.2532 49 80.8991 49 75.5253C49 70.1515 53.363 65.7975 58.7479 65.7975C59.7025 65.7975 60.6235 65.9384 61.4908 66.1933C63.7563 63.1139 67.4 61.1013 71.521 61.1013C72.1933 61.1013 72.8454 61.1684 73.4908 61.269Z" fill="url(#paint0_linear_3489_607)"/>
<path d="M286.934 78.8911C286.571 74.4734 282.887 71 278.395 71C274.515 71 271.24 73.5899 270.184 77.1392C269.942 77.1013 269.697 77.0759 269.445 77.0759C267.9 77.0759 266.534 77.8354 265.684 78.9975C265.359 78.9013 265.013 78.8481 264.655 78.8481C262.636 78.8481 261 80.4911 261 82.519C261 84.5468 262.636 86.1899 264.655 86.1899C265.419 86.1899 266.128 85.9544 266.715 85.5519C267.484 86.1089 268.424 86.443 269.445 86.443C269.748 86.443 270.043 86.4127 270.33 86.357C270.35 88.9241 272.43 91 274.992 91C276.91 91 278.559 89.8354 279.275 88.1696C280.651 88.0278 281.932 87.5595 283.039 86.8405C283.881 87.6911 285.048 88.2152 286.336 88.2152C288.913 88.2152 291 86.119 291 83.5316C291 81.1494 289.228 79.1873 286.934 78.8911Z" fill="url(#paint1_linear_3489_607)"/>
<defs>
<filter id="filter0_d_3489_607" x="0" y="0" width="140" height="160" filterUnits="userSpaceOnUse" color-interpolation-filters="sRGB">
<feFlood flood-opacity="0" result="BackgroundImageFix"/>
<feColorMatrix in="SourceAlpha" type="matrix" values="0 0 0 0 0 0 0 0 0 0 0 0 0 0 0 0 0 0 127 0" result="hardAlpha"/>
<feOffset dy="12"/>
<feGaussianBlur stdDeviation="20"/>
<feColorMatrix type="matrix" values="0 0 0 0 0.849244 0 0 0 0 0.869846 0 0 0 0 0.89388 0 0 0 1 0"/>
<feBlend mode="normal" in2="BackgroundImageFix" result="effect1_dropShadow_3489_607"/>
<feBlend mode="normal" in="SourceGraphic" in2="effect1_dropShadow_3489_607" result="shape"/>
</filter>
<filter id="filter1_d_3489_607" x="100" y="0" width="140" height="160" filterUnits="userSpaceOnUse" color-interpolation-filters="sRGB">
<feFlood flood-opacity="0" result="BackgroundImageFix"/>
<feColorMatrix in="SourceAlpha" type="matrix" values="0 0 0 0 0 0 0 0 0 0 0 0 0 0 0 0 0 0 127 0" result="hardAlpha"/>
<feOffset dy="12"/>
<feGaussianBlur stdDeviation="20"/>
<feColorMatrix type="matrix" values="0 0 0 0 0.849244 0 0 0 0 0.869846 0 0 0 0 0.89388 0 0 0 1 0"/>
<feBlend mode="normal" in2="BackgroundImageFix" result="effect1_dropShadow_3489_607"/>
<feBlend mode="normal" in="SourceGraphic" in2="effect1_dropShadow_3489_607" result="shape"/>
</filter>
<filter id="filter2_d_3489_607" x="200" y="0" width="140" height="160" filterUnits="userSpaceOnUse" color-interpolation-filters="sRGB">
<feFlood flood-opacity="0" result="BackgroundImageFix"/>
<feColorMatrix in="SourceAlpha" type="matrix" values="0 0 0 0 0 0 0 0 0 0 0 0 0 0 0 0 0 0 127 0" result="hardAlpha"/>
<feOffset dy="12"/>
<feGaussianBlur stdDeviation="20"/>
<feColorMatrix type="matrix" values="0 0 0 0 0.849244 0 0 0 0 0.869846 0 0 0 0 0.89388 0 0 0 1 0"/>
<feBlend mode="normal" in2="BackgroundImageFix" result="effect1_dropShadow_3489_607"/>
<feBlend mode="normal" in="SourceGraphic" in2="effect1_dropShadow_3489_607" result="shape"/>
</filter>
<filter id="filter3_f_3489_607" x="158.309" y="152.836" width="48.8008" height="40.7822" filterUnits="userSpaceOnUse" color-interpolation-filters="sRGB">
<feFlood flood-opacity="0" result="BackgroundImageFix"/>
<feBlend mode="normal" in="SourceGraphic" in2="BackgroundImageFix" result="shape"/>
<feGaussianBlur stdDeviation="6" result="effect1_foregroundBlur_3489_607"/>
</filter>
<filter id="filter4_f_3489_607" x="147.215" y="139.763" width="64.5317" height="39.6025" filterUnits="userSpaceOnUse" color-interpolation-filters="sRGB">
<feFlood flood-opacity="0" result="BackgroundImageFix"/>
<feBlend mode="normal" in="SourceGraphic" in2="BackgroundImageFix" result="shape"/>
<feGaussianBlur stdDeviation="6" result="effect1_foregroundBlur_3489_607"/>
</filter>
<linearGradient id="paint0_linear_3489_607" x1="73.3664" y1="45" x2="73.3664" y2="81.5" gradientUnits="userSpaceOnUse">
<stop stop-color="white"/>
<stop offset="1" stop-color="white" stop-opacity="0"/>
</linearGradient>
<linearGradient id="paint1_linear_3489_607" x1="276" y1="71" x2="276" y2="84.7736" gradientUnits="userSpaceOnUse">
<stop stop-color="white"/>
<stop offset="1" stop-color="white" stop-opacity="0"/>
</linearGradient>
</defs>
</svg>
