<svg width="52" height="40" viewBox="0 0 52 40" fill="none" xmlns="http://www.w3.org/2000/svg">
<g clip-path="url(#clip0_3506_3380)">
<path d="M46.814 0H19.5767C17.23 0 15.3208 1.90914 15.3208 4.25587V21.2793C15.3208 23.6259 17.2299 25.5352 19.5767 25.5352H32.8872L42.8645 33.8496C43.4091 34.3034 44.2606 33.9009 44.2606 33.1957V25.5351H46.8141C49.1607 25.5351 51.07 23.626 51.07 21.2793V4.25587C51.0699 1.90914 49.1607 0 46.814 0Z" fill="#4B87A4"/>
<path d="M17.8743 21.2793V4.25587C17.8743 1.90925 19.7834 0 22.1302 0H19.5767C17.23 0 15.3208 1.90914 15.3208 4.25587V21.2793C15.3208 23.6259 17.2299 25.5352 19.5767 25.5352H22.1302C19.7834 25.535 17.8743 23.626 17.8743 21.2793Z" fill="#6C97A8"/>
<path d="M35.4412 25.5352H32.8877L42.865 33.8496C43.4095 34.3035 44.2611 33.9009 44.2611 33.1957V32.885L35.4412 25.5352Z" fill="#6C97A8"/>
<path d="M43.4096 7.66126H35.7491C35.279 7.66126 34.8979 7.28013 34.8979 6.81012C34.8979 6.34002 35.2791 5.95898 35.7491 5.95898H43.4096C43.8797 5.95898 44.2607 6.34011 44.2607 6.81012C44.2607 7.28013 43.8797 7.66126 43.4096 7.66126Z" fill="white"/>
<path d="M36.6002 14.4699H22.9815C22.5114 14.4699 22.1304 14.0887 22.1304 13.6187C22.1304 13.1486 22.5115 12.7676 22.9815 12.7676H36.6002C37.0703 12.7676 37.4513 13.1487 37.4513 13.6187C37.4514 14.0887 37.0703 14.4699 36.6002 14.4699Z" fill="white"/>
<path d="M40.0049 21.2784H22.9815C22.5114 21.2784 22.1304 20.8973 22.1304 20.4273C22.1304 19.9572 22.5115 19.5762 22.9815 19.5762H40.0049C40.475 19.5762 40.8561 19.9573 40.8561 20.4273C40.8561 20.8973 40.4749 21.2784 40.0049 21.2784Z" fill="white"/>
<path d="M43.4097 14.4699H39.1539C38.6838 14.4699 38.3027 14.0887 38.3027 13.6187C38.3027 13.1486 38.6839 12.7676 39.1539 12.7676H43.4097C43.8798 12.7676 44.2609 13.1487 44.2609 13.6187C44.2609 14.0887 43.8798 14.4699 43.4097 14.4699Z" fill="white"/>
<path d="M31.4932 5.95898H4.25587C1.90914 5.95898 0 7.86813 0 10.2148V27.2382C0 29.5848 1.90914 31.494 4.25587 31.494H5.95824V39.1546C5.95824 39.8598 6.80978 40.2622 7.35439 39.8085L17.3317 31.494H31.4934C33.84 31.494 35.7493 29.5849 35.7493 27.2382V10.2148C35.7491 7.86813 33.8399 5.95898 31.4932 5.95898Z" fill="#626E7B"/>
<path d="M8.51165 31.4941H6.80938C4.46274 31.4941 2.5535 29.585 2.5535 27.2383V10.2149C2.5535 7.86822 4.46265 5.95898 6.80938 5.95898H4.25587C1.90914 5.95898 0 7.86822 0 10.2149V27.2383C0 29.5849 1.90914 31.4941 4.25587 31.4941H5.95824V39.1546C5.95824 39.8599 6.80978 40.2623 7.35439 39.8086L8.51175 38.8441L8.51165 31.4941Z" fill="#6D7984"/>
<path d="M10.2141 21.2789C11.6244 21.2789 12.7677 20.1356 12.7677 18.7254C12.7677 17.3151 11.6244 16.1719 10.2141 16.1719C8.80389 16.1719 7.66064 17.3151 7.66064 18.7254C7.66064 20.1356 8.80389 21.2789 10.2141 21.2789Z" fill="white"/>
<path d="M17.8743 21.2789C19.2846 21.2789 20.4278 20.1356 20.4278 18.7254C20.4278 17.3151 19.2846 16.1719 17.8743 16.1719C16.464 16.1719 15.3208 17.3151 15.3208 18.7254C15.3208 20.1356 16.464 21.2789 17.8743 21.2789Z" fill="white"/>
<path d="M25.5349 21.2789C26.9452 21.2789 28.0885 20.1356 28.0885 18.7254C28.0885 17.3151 26.9452 16.1719 25.5349 16.1719C24.1247 16.1719 22.9814 17.3151 22.9814 18.7254C22.9814 20.1356 24.1247 21.2789 25.5349 21.2789Z" fill="white"/>
</g>
<defs>
<clipPath id="clip0_3506_3380">
<rect width="51.0702" height="40" fill="white"/>
</clipPath>
</defs>
</svg>
