<svg width="49" height="50" viewBox="0 0 49 50" fill="none" xmlns="http://www.w3.org/2000/svg">
<g clip-path="url(#clip0_3506_3397)">
<path d="M26.6826 14.6806H26.6592L26.6733 12.7931H26.6795C27.7014 12.7931 29.0217 10.8884 29.9873 9.4962C30.2952 9.05245 30.5951 8.6212 30.8842 8.23682C33.6405 4.58682 37.3248 2.0337 39.6998 2.1337C40.5248 2.17275 41.192 2.54152 41.5764 3.16962L39.9702 4.15555C39.9483 4.12117 39.8936 4.03212 39.6092 4.01805C38.1608 3.95867 34.9561 5.9743 32.3905 9.3743C32.1155 9.73835 31.8311 10.1477 31.5389 10.5712C30.203 12.4977 28.6889 14.6806 26.6826 14.6806Z" fill="#626E7B"/>
<path d="M12.5563 25.7762C11.6156 24.5637 10.2984 23.6746 8.90158 22.7355C7.61096 21.8668 6.27658 20.9668 5.19688 19.759C2.29843 16.509 1.81876 11.2293 4.03126 6.91992L5.70938 7.78087C3.84688 11.4137 4.21406 15.8215 6.60781 18.5027C7.52811 19.534 8.70781 20.3277 9.95623 21.1699C11.4141 22.1512 12.9219 23.1668 14.0484 24.6199L12.5563 25.7762Z" fill="#626E7B"/>
<path d="M36.8298 48.9238L36.1579 47.1613C38.9579 46.0941 40.8923 44.3457 41.7501 42.1051C42.7361 39.5285 42.2892 36.2848 40.4595 32.7238C39.6126 31.0801 38.3392 29.8223 37.1095 28.6066C34.8986 26.4223 32.6126 24.166 32.7142 19.7832L34.6002 19.827C34.5158 23.3957 36.3314 25.1879 38.4345 27.2645C39.772 28.5848 41.1533 29.9504 42.1377 31.8613C44.222 35.9129 44.6986 39.6895 43.5127 42.7817C42.4548 45.5363 40.1439 47.6613 36.8298 48.9238Z" fill="#626E7B"/>
<path d="M24.1563 0C10.8142 0 0.00634766 10.8078 0.00634766 24.15C0.00634766 37.4922 10.8141 48.3 24.1563 48.3C37.4986 48.3 48.3063 37.4922 48.3063 24.15C48.3063 10.8078 37.4985 0 24.1563 0ZM24.1563 35.9938C17.6204 35.9938 12.3282 30.6875 12.3282 24.1516C12.3282 17.6156 17.6204 12.3234 24.1563 12.3234C30.6923 12.3234 35.9985 17.6156 35.9985 24.1516C36.0001 30.6859 30.6923 35.9938 24.1563 35.9938Z" fill="#4B87A4"/>
<path d="M39.2812 5.32812C41.7188 9.10938 43.125 13.6094 43.125 18.4531C43.125 31.9219 32.2188 42.8281 18.75 42.8281C13.4531 42.8281 8.54688 41.1406 4.54688 38.25C8.92188 44.3438 16.0781 48.2969 24.1563 48.2969C37.5 48.2969 48.3125 37.5 48.3125 24.1563C48.3125 16.5469 44.7969 9.75 39.2812 5.32812Z" fill="#4B87A4"/>
<path d="M14.6577 1.94375L19.9093 13.1203C21.228 12.6125 22.6562 12.3234 24.1562 12.3234C25.6546 12.3234 27.0827 12.6125 28.403 13.1203L33.6546 1.94375C30.739 0.695325 27.5296 0 24.1562 0C20.7827 0 17.5733 0.6953 14.6577 1.94375Z" fill="#E9EFF4"/>
<path d="M12.3282 24.1508C12.3282 22.6508 12.6188 21.2227 13.1266 19.9039L1.9501 14.6523C0.701673 17.568 0.00634766 20.7773 0.00634766 24.1508C0.00634766 27.5242 0.701648 30.7336 1.9501 33.6492L13.1251 28.3977C12.6188 27.0774 12.3282 25.6492 12.3282 24.1508Z" fill="#E9EFF4"/>
<path d="M33.6547 46.3555L28.4078 35.1914C27.0859 35.7008 25.6562 35.993 24.1562 35.993C22.6547 35.993 21.225 35.7008 19.9031 35.1914L14.6562 46.357C17.5719 47.6055 20.7812 48.3008 24.1547 48.3008C27.5297 48.2992 30.7391 47.6039 33.6547 46.3555Z" fill="#E9EFF4"/>
<path d="M35.9999 24.1508C35.9999 25.6508 35.7093 27.0805 35.1983 28.4024L46.3624 33.6492C47.6108 30.7336 48.3062 27.5242 48.3062 24.1508C48.3062 20.7773 47.6109 17.568 46.3624 14.6523L35.1968 19.8992C35.7077 21.2195 35.9999 22.6508 35.9999 24.1508Z" fill="#E9EFF4"/>
<path d="M26.6592 14.681C24.4717 14.6622 23.2671 12.2981 21.8733 9.56221C19.678 5.25596 17.4061 0.801282 11.3968 2.71846C9.04989 3.46691 6.97801 5.31221 5.70926 7.78096L4.03271 6.92001C5.52644 4.00753 7.99986 1.82158 10.8217 0.921583C18.3639 -1.48467 21.3608 4.40596 23.5545 8.70596C24.6248 10.8028 25.6342 12.7857 26.6748 12.7935L26.6592 14.681Z" fill="#626E7B"/>
<path d="M34.5984 19.8246L32.7124 19.7809C32.8108 15.5793 36.6062 9.4918 38.6015 6.86055C38.6983 6.73085 38.8124 6.58867 38.9343 6.43867C39.4843 5.7543 40.3155 4.71992 39.9702 4.15742L41.5765 3.16992C42.6186 4.86367 41.2327 6.59022 40.4046 7.61992L40.1062 7.99962C38.0187 10.7543 34.678 16.3996 34.5984 19.8246Z" fill="#626E7B"/>
<path d="M24.1561 48.2996C27.5296 48.2996 30.7389 47.6043 33.6546 46.3559L30.5608 39.7715C27.0608 41.7137 23.0374 42.8262 18.7499 42.8262C17.9483 42.8262 17.1577 42.7746 16.3749 42.6996L14.6577 46.3559C17.5733 47.6043 20.7827 48.2996 24.1561 48.2996Z" fill="#D3D9DD"/>
<path d="M48.3063 24.1508C48.3063 20.7773 47.611 17.5679 46.3625 14.6523L43.0125 16.2258C43.0797 16.9601 43.125 17.7008 43.125 18.4539C43.125 22.882 41.9281 27.0211 39.8672 30.5976L46.3625 33.6492C47.6109 30.7336 48.3063 27.5242 48.3063 24.1508Z" fill="#D3D9DD"/>
<path d="M30.0375 50.0008C25.0031 50.0008 19.4031 48.5055 16.7562 44.843C14.6344 41.9039 14.5875 38.3148 14.5437 34.8445C14.5015 31.4461 14.4594 28.2367 12.5547 25.7773L14.0469 24.6211C16.3391 27.5805 16.3859 31.2602 16.4297 34.8195C16.4719 38.143 16.5125 41.282 18.2859 43.7383C21.6484 48.393 31.2937 49.0117 36.1547 47.1617L36.8265 48.9242C35.0234 49.6133 32.6047 50.0008 30.0375 50.0008Z" fill="#626E7B"/>
<path opacity="0.15" d="M34.125 12.1875C34.125 13.8281 33.9375 15.4375 33.5625 16.9844C31.4219 14.1562 28 12.3281 24.1562 12.3281C17.625 12.3281 12.3281 17.6094 12.3281 24.1562C12.3281 28.3594 14.5156 32.0469 17.8281 34.1406C13.875 35.7969 9.42187 36.7188 4.70312 36.7188C4.3125 36.7188 3.90625 36.7188 3.51562 36.6875C1.28125 33.0469 0 28.75 0 24.1562C0 10.8125 10.8125 0 24.1562 0C26.4844 0 28.7344 0.328125 30.8594 0.953125C32.9531 4.32812 34.125 8.14062 34.125 12.1875Z" fill="white"/>
</g>
<defs>
<clipPath id="clip0_3506_3397">
<rect width="48.3125" height="50" fill="white"/>
</clipPath>
</defs>
</svg>
