<svg width="40" height="40" viewBox="0 0 40 40" fill="none" xmlns="http://www.w3.org/2000/svg">
<g clip-path="url(#clip0_3506_3370)">
<path fill-rule="evenodd" clip-rule="evenodd" d="M30 40H10C4.47726 39.9998 0.00024 35.5227 0 30V10C0.00024 4.47726 4.47726 0.00024 10 0H30C35.5229 0 40 4.47715 40 10V30C40 35.5229 35.5229 40 30 40Z" fill="#00D264"/>
<path fill-rule="evenodd" clip-rule="evenodd" d="M18.75 11.25H30C33.1068 11.2498 35.6252 8.73109 35.625 5.62428C35.6249 2.74037 33.4438 0.323704 30.575 0.028752C30.3838 0.018128 30.1944 0 30 0H10C4.47726 0.00024 0.00024 4.47726 0 10V30C0.00024 19.6448 8.39476 11.2502 18.75 11.25Z" fill="#00EB78"/>
<path fill-rule="evenodd" clip-rule="evenodd" d="M30 20C24.4772 20 20 24.4772 20 30C20 35.5228 24.4772 40 30 40C35.5228 40 40 35.5228 40 30V10C40 15.5228 35.5228 20 30 20Z" fill="#00B950"/>
<path fill-rule="evenodd" clip-rule="evenodd" d="M13.5454 29.4333C13.8818 29.3377 14.2428 29.3871 14.5411 29.5696C20.1696 32.923 27.451 31.0786 30.8044 25.45C34.1578 19.8214 32.3134 12.54 26.6848 9.18663C21.0562 5.83323 13.7749 7.67763 10.4215 13.3062C8.19027 17.0512 8.19275 21.7182 10.4279 25.4608C10.6098 25.7582 10.6587 26.1182 10.5629 26.4533C10.2148 27.6852 9.3748 30.6252 9.3748 30.6252C9.3748 30.6252 12.3148 29.7852 13.5454 29.4333ZM8.26168 26.709C4.21084 19.8805 6.46257 11.061 13.2911 7.01021C20.1195 2.95938 28.939 5.21111 32.9898 12.0396C37.0406 18.8681 34.7889 27.6875 27.9604 31.7383C23.4385 34.4208 17.8129 34.4208 13.2911 31.7383C13.2911 31.7383 9.30543 32.8771 7.33167 33.4415C6.99928 33.5361 6.65314 33.3433 6.55855 33.0109C6.52669 32.8989 6.52669 32.7803 6.55855 32.6683C7.12292 30.6946 8.26168 26.709 8.26168 26.709Z" fill="white"/>
<path fill-rule="evenodd" clip-rule="evenodd" d="M13.7379 15.4922C14.1398 21.2768 18.7215 25.8925 24.5029 26.3372H24.5042C25.4079 26.4071 26.2971 26.0783 26.9379 25.4372L27.3742 25.0009C27.5801 24.7948 27.6959 24.5154 27.696 24.2241V23.2978C27.696 23.061 27.5622 22.8445 27.3504 22.7384C26.6923 22.4097 25.2635 21.6953 24.5635 21.3453C24.3228 21.2249 24.0321 21.272 23.8417 21.4622C23.4929 21.8109 22.9417 22.3628 22.6292 22.6747C22.4815 22.8224 22.2697 22.8867 22.0648 22.8459L22.0592 22.8447C19.5849 22.3498 17.6509 20.4158 17.1561 17.9416L17.1548 17.9359C17.1141 17.731 17.1783 17.5193 17.3261 17.3716C17.6379 17.0591 18.1898 16.5078 18.5386 16.1591C18.7287 15.9686 18.7758 15.6779 18.6554 15.4372C18.3054 14.7372 17.5911 13.3084 17.2623 12.6503C17.1563 12.4385 16.9398 12.3047 16.7029 12.3047H15.9154C15.5373 12.3048 15.1768 12.4651 14.9235 12.7459C14.7979 12.8859 14.6535 13.0459 14.5085 13.2072C13.9572 13.8191 13.6779 14.6286 13.7348 15.4503C13.736 15.4641 13.7367 15.4778 13.7379 15.4922Z" fill="white"/>
</g>
<defs>
<clipPath id="clip0_3506_3370">
<rect width="40" height="40" fill="white"/>
</clipPath>
</defs>
</svg>
