<svg width="126" height="34" viewBox="0 0 126 34" fill="none" xmlns="http://www.w3.org/2000/svg">
<rect x="0.666016" y="0.333008" width="125" height="33.3333" rx="5" fill="#5AFEAE"/>
<path d="M82.867 12.5336L79.7654 24.3797V24.4171H82.1944L85.296 12.571H82.867L82.867 12.5336ZM44.5263 19.2601C44.1667 19.4389 43.7693 19.5287 43.3678 19.5217C42.5083 19.5217 42.0225 19.3722 41.9478 18.6622V14.8132V12.6084L39.7804 12.87C41.0648 12.6767 42.0255 11.5899 42.0599 10.2915V9.58154H39.6309V12.9073L39.4815 12.9447V19.0733C39.4778 20.6053 40.7168 21.8502 42.2488 21.8538C42.348 21.854 42.4471 21.849 42.5457 21.8386C43.2152 21.8397 43.8773 21.6996 44.4889 21.4275L44.5263 19.2601Z" fill="#292929"/>
<path d="M44.8999 12.0854L38.0986 13.1317V14.8507L44.8999 13.8044V12.0854ZM44.8999 14.6265L38.0986 15.6728V17.3171L44.8999 16.2707V14.6265ZM52.5232 15.4112C52.5568 13.7476 51.2353 12.3717 49.5717 12.3381C49.4717 12.3361 49.3717 12.339 49.2721 12.347C48.2237 12.316 47.2237 12.7883 46.5815 13.6175C45.8863 14.6385 45.545 15.8593 45.6099 17.0929C45.545 18.3264 45.8863 19.5472 46.5815 20.5682C47.2284 21.3874 48.2293 21.8461 49.2721 21.8014C50.9186 21.9448 52.3696 20.7264 52.5131 19.0799C52.523 18.966 52.5264 18.8515 52.5232 18.7371V21.6145H54.9522V12.5712L52.5232 12.9449V15.4112ZM52.6727 17.0929C52.6727 18.7745 51.7758 19.8955 50.3932 19.8955C48.9732 19.8955 48.1137 18.8492 48.1137 17.0929C48.1137 15.3365 48.9731 14.2902 50.3932 14.2902C51.046 14.2722 51.6692 14.563 52.0748 15.0749C52.4876 15.6649 52.6975 16.3732 52.6727 17.0929ZM62.015 12.347C60.3685 12.2035 58.9175 13.4219 58.774 15.0684C58.7641 15.1824 58.7607 15.2969 58.7639 15.4112V9.91797L56.3349 10.2917V21.6145H58.7639V18.7371C58.718 20.3892 60.0201 21.7656 61.6722 21.8115C61.7865 21.8147 61.901 21.8113 62.015 21.8014C64.2945 21.8014 65.6772 20.045 65.6772 17.0928C65.6772 14.1407 64.2945 12.347 62.015 12.347ZM60.9312 19.8955C59.5486 19.8955 58.6517 18.8118 58.6517 17.0929C58.6269 16.3732 58.8368 15.6649 59.2496 15.0749C59.6501 14.5566 60.2767 14.2641 60.9312 14.2902C62.3512 14.2902 63.2107 15.3365 63.2107 17.0929C63.2107 18.8492 62.3513 19.8955 60.9312 19.8955ZM72.2541 12.347C70.6076 12.2035 69.1566 13.4219 69.0131 15.0684C69.0032 15.1824 68.9998 15.2969 69.003 15.4112V9.91797L66.574 10.2917V21.6145H69.003V18.7371C68.9571 20.3892 70.2592 21.7656 71.9113 21.8115C72.0256 21.8147 72.1401 21.8113 72.2541 21.8014C74.5336 21.8014 75.9163 20.045 75.9163 17.0928C75.9163 14.1407 74.5336 12.347 72.2541 12.347ZM71.1703 19.8955C69.7877 19.8955 68.8908 18.8118 68.8908 17.0929C68.866 16.3732 69.0759 15.6649 69.4887 15.0749C69.8892 14.5566 70.5158 14.2641 71.1703 14.2902C72.5903 14.2902 73.4498 15.3365 73.4498 17.0929C73.4498 18.8492 72.5904 19.8955 71.1703 19.8955ZM75.9162 12.5338H78.4947L80.5874 21.6145H78.2705L75.9162 12.5338ZM87.2765 13.468V12.758H86.9775V12.6086H87.7623V12.7581H87.4633V13.4681L87.2765 13.468ZM87.7996 13.468V12.5712H88.0986L88.2481 12.9822C88.2854 13.0943 88.3228 13.1317 88.3228 13.1691C88.3228 13.1317 88.3601 13.0943 88.3975 12.9822L88.547 12.5712H88.8459V13.468H88.6592V12.758L88.3977 13.468H88.2108L87.9866 12.758V13.468H87.7996Z" fill="#292929"/>
</svg>
