<svg width="126" height="34" viewBox="0 0 126 34" fill="none" xmlns="http://www.w3.org/2000/svg">
<rect x="0.666016" y="0.666992" width="125" height="33.3333" rx="5" fill="#4F008C"/>
<g clip-path="url(#clip0_4183_451)">
<path d="M71.5801 21.2987V12.4881H73.0852V13.1856C73.5625 12.5982 74.2967 12.2678 75.0309 12.3045C76.7563 12.3045 77.9677 13.6628 77.9677 15.6452C77.9677 17.6276 76.7196 19.0226 75.0309 19.0226C74.26 19.0226 73.5625 18.7289 73.0852 18.1415V21.2987H71.5801ZM73.0485 14.8376V16.4528C73.3422 17.1503 74.003 17.5909 74.7372 17.5909C75.7284 17.5909 76.3892 16.8567 76.3892 15.6452C76.3892 14.4337 75.7284 13.7362 74.7372 13.7362C74.003 13.7362 73.3055 14.1768 73.0485 14.8743" fill="#00C48C"/>
<path d="M78.9222 17.0399C78.8854 16.012 79.6564 15.131 80.6843 15.0943L83.2173 14.7639V14.4335C83.254 14.1398 83.0705 13.8828 82.7768 13.8461C82.7401 13.8461 82.7034 13.8461 82.6667 13.8461H79.4728V12.4878H82.7401C84.0249 12.4878 84.7224 13.1119 84.7224 14.2499V18.8387H83.2173V18.0678C82.7401 18.7286 81.9324 19.0957 81.1248 19.0223C79.8032 19.0223 78.9222 18.2147 78.9222 17.0399ZM81.5286 17.8108C82.2628 17.8108 82.9236 17.407 83.254 16.7462V15.9386L81.3084 16.1956C80.7577 16.269 80.464 16.5627 80.464 17.0032C80.464 17.4437 80.8311 17.7741 81.4919 17.7741" fill="#00C48C"/>
<path d="M85.824 19.9405H86.9253C87.2924 19.9405 87.5861 19.7202 87.6595 19.3898L87.843 18.8391L85.5303 12.5249H87.0721L88.5038 16.9302H88.5406L89.8988 12.5249H91.4774L88.9444 19.7936C88.614 20.7848 88.1367 21.3355 87.0354 21.3355H85.824V19.9772V19.9405Z" fill="#00C48C"/>
<path d="M40.3029 25.6672C42.0283 25.6672 43.46 25.1165 44.4145 24.1987C45.1487 23.4645 45.5158 22.51 45.5158 21.4821C45.5158 20.5277 45.1487 19.6466 44.4879 18.9491C43.6803 18.2149 42.6891 17.7009 41.6245 17.5541L39.6421 17.1503C38.7978 17.0034 38.3572 16.5996 38.3572 16.0122C38.3572 15.4249 39.0915 14.7274 40.2662 14.7274C40.927 14.7274 41.5511 14.9476 42.0283 15.3882C42.2853 15.6818 42.4688 16.0489 42.5055 16.4528L45.369 15.792C45.2956 14.9843 44.8917 14.2134 44.3044 13.626C43.2031 12.5981 41.6979 12.0475 40.1928 12.0842C38.7978 12.0475 37.4395 12.5247 36.3749 13.4425C35.6039 14.1767 35.1634 15.1679 35.1634 16.2325C35.1634 17.1136 35.4571 17.9946 36.0812 18.6187C36.8521 19.3162 37.7699 19.7934 38.7978 20.0137L40.7801 20.4909C41.7713 20.7112 42.2119 21.0783 42.2119 21.7391C42.2119 22.3999 41.4776 23.024 40.3029 23.024C39.5687 23.0607 38.8345 22.8037 38.3205 22.2898C37.9901 21.9594 37.8066 21.5556 37.8066 21.115L34.833 21.7758C34.9064 22.6569 35.3102 23.4645 35.9343 24.0519C36.9255 25.0798 38.5041 25.7039 40.3029 25.7039M62.1825 25.6672C63.7978 25.7039 65.413 25.1165 66.5878 23.9785C67.322 23.2442 67.8727 22.3632 68.1296 21.372L65.1194 20.3441C64.7522 21.6657 63.5408 22.5467 62.1825 22.51C61.3381 22.51 60.4938 22.1796 59.9064 21.5556C59.2456 20.8213 58.8785 19.8669 58.9152 18.8757C58.8785 17.8845 59.2089 16.93 59.9064 16.1958C60.5305 15.6084 61.3381 15.278 62.1825 15.278C62.9534 15.278 63.6876 15.535 64.2383 16.0489C64.6054 16.4528 64.8624 16.8933 65.0092 17.4072L68.0929 16.3793C67.8359 15.4249 67.322 14.5438 66.6245 13.8096C65.413 12.6348 63.7611 12.0108 62.1091 12.0842C60.347 12.0842 58.6583 12.745 57.4101 13.9931C56.1619 15.278 55.4644 17.0401 55.4644 18.8757C55.4644 20.7112 56.1619 22.4733 57.4468 23.7582C58.695 25.0064 60.4204 25.6672 62.1825 25.6672ZM51.7199 25.6672C53.0782 25.6672 54.0327 25.2633 54.4365 24.8962V22.1062C53.9226 22.4366 53.2985 22.6202 52.7111 22.6202C52.2339 22.6202 51.7566 22.51 51.4263 22.2163C51.1326 21.8492 50.9857 21.372 51.0224 20.9315V9.00049H47.6083V12.488H54.4732V15.792H47.6083V21.6657C47.5716 22.6936 47.9387 23.7215 48.6362 24.4924C49.3705 25.2266 50.4351 25.5937 51.7566 25.5937" fill="white"/>
</g>
<defs>
<clipPath id="clip0_4183_451">
<rect width="56.6446" height="16.6667" fill="white" transform="translate(34.833 9.00049)"/>
</clipPath>
</defs>
</svg>
