<svg width="125" height="34" viewBox="0 0 125 34" fill="none" xmlns="http://www.w3.org/2000/svg">
<rect y="0.666504" width="125" height="33.3333" rx="5" fill="#016FD0"/>
<g clip-path="url(#clip0_4183_424)">
<path d="M42.4697 13.1149H44.1441L43.3124 10.981L42.4697 13.1149Z" fill="white"/>
<path d="M51.377 20.2607V21.2566H54.1894V22.3181H51.377V23.4562H54.4958L55.9403 21.8585L54.5724 20.2607H51.377Z" fill="white"/>
<path d="M73.3733 10.981L72.4541 13.1149H74.205L73.3733 10.981Z" fill="white"/>
<path d="M59.5188 24.0691V19.7246L57.5381 21.8586L59.5188 24.0691Z" fill="white"/>
<path d="M63.2509 20.9502C63.1743 20.4906 62.8679 20.2607 62.4083 20.2607H60.8105V21.6287H62.4849C62.9445 21.6287 63.2509 21.3988 63.2509 20.9392V20.9502Z" fill="white"/>
<path d="M68.5695 21.4752C68.7227 21.3986 68.7993 21.1688 68.7993 20.939C68.8759 20.6326 68.7227 20.4794 68.5695 20.4028C68.4163 20.3262 68.1865 20.3262 67.9567 20.3262H66.4355V21.5409H67.9567C68.1865 21.5409 68.4163 21.5409 68.5695 21.4643V21.4752Z" fill="white"/>
<path d="M79.5346 9V9.90829L79.075 9H75.4965V9.90829L75.0369 9H70.1671C69.3354 9 68.646 9.15321 68.0332 9.45962V9H64.6079V9.45962C64.2249 9.15321 63.7762 9 63.1634 9H50.9178L50.0752 10.9041L49.2435 9H45.3586V9.90829L44.9756 9H41.6269L40.1058 12.5785L38.3658 16.4524L38.333 16.529H42.2945L42.3273 16.4524L42.7869 15.3143H43.7718L44.2315 16.529H48.6416V15.6207L49.0246 16.529H51.2352L51.6182 15.6207V16.529H62.2004V14.5483H62.3536C62.4557 14.5483 62.5068 14.6249 62.5068 14.7781V16.4524H67.9894V15.9928C68.449 16.2226 69.1275 16.4524 70.0467 16.4524H72.3339L72.7935 15.2377H73.855L74.3146 16.4524H78.7248V15.3143L79.4142 16.4524H82.9927V9H79.5674H79.5346ZM53.7412 15.3909H52.5265V11.2105L52.4499 11.3856L50.6771 15.3909H49.5608L47.7333 11.2105V15.3909H45.1507L44.6145 14.2528H42.0318L41.4956 15.3909H40.1605L42.393 10.0615H44.2971L46.4311 15.1611V10.0615H48.4446L48.4775 10.1381L49.4405 12.2283L50.1299 13.7932L50.1518 13.7166L51.6729 10.0615H53.7302V15.3909H53.7412ZM58.983 11.2105H56.0174V12.1954H58.9064V13.2569H56.0174V14.3184H58.983V15.4566H54.7261V10.0615H58.983V11.1996V11.2105ZM64.4109 13.1694C64.4438 13.2022 64.4656 13.2351 64.4875 13.2569C64.6298 13.443 64.7502 13.7275 64.7611 14.1543C64.7611 14.1543 64.7611 14.1652 64.7611 14.1762C64.7611 14.1762 64.7611 14.1762 64.7611 14.1871C64.7611 14.2309 64.7611 14.2747 64.7611 14.3184V15.38H63.623V14.7671C63.623 14.4607 63.623 14.0011 63.3932 13.7056C63.3166 13.629 63.2509 13.5852 63.1743 13.5524C63.0649 13.4758 62.846 13.4758 62.4849 13.4758H61.117V15.38H59.8257V10.0615H62.7147C63.4041 10.0615 63.8528 10.0615 64.2358 10.2913C64.6079 10.5102 64.8377 10.8822 64.8377 11.4732C64.8158 12.283 64.3015 12.7317 63.9294 12.8739C63.9294 12.8739 64.1811 12.9286 64.4109 13.1585V13.1694ZM66.9717 15.3909H65.6803V10.0615H66.9717V15.3909ZM81.8108 15.3909H80.1365L77.707 11.3528V14.7015V15.3909H76.4267H75.1354L74.6758 14.2528H72.0165L71.5569 15.4675H70.1124C69.4996 15.4675 68.7445 15.3143 68.2849 14.8547C67.8252 14.3951 67.5954 13.7932 67.5954 12.7973C67.5954 11.8015 67.7486 11.2762 68.2849 10.6634C68.6679 10.2038 69.3464 10.0506 70.189 10.0506H71.4037V11.1887H70.189C69.7294 11.1887 69.4996 11.2653 69.2041 11.4951C68.9743 11.7249 68.8211 12.1845 68.8211 12.7098C68.8211 13.2351 68.8977 13.6947 69.2041 14.0011C69.4339 14.2309 69.7403 14.3075 70.1124 14.3075H70.6486L72.3995 10.1272H74.3037L76.4376 15.2267V10.1381H78.3418L80.5523 13.8698V10.1381H81.8436V15.3909H81.8108Z" fill="white"/>
<path d="M63.3277 12.2829C63.3496 12.261 63.3715 12.2282 63.3825 12.2063C63.4481 12.0969 63.5357 11.8999 63.4919 11.6372C63.4919 11.6154 63.4919 11.5935 63.4809 11.5716C63.4809 11.5716 63.4809 11.5606 63.4809 11.5497C63.4481 11.4184 63.3496 11.3418 63.2511 11.2871C63.0979 11.2104 62.8681 11.2104 62.6383 11.2104H61.1172V12.4252H62.6383C62.8681 12.4252 63.0979 12.4252 63.2511 12.3486C63.273 12.3376 63.2949 12.3267 63.3168 12.3048C63.3168 12.3048 63.3168 12.3048 63.3387 12.2829H63.3277Z" fill="white"/>
<path d="M86.3085 22.9966C86.3085 22.4603 86.1553 21.9351 85.9255 21.552V18.1268V17.897H82.2595C81.7889 17.897 81.2089 18.3566 81.2089 18.3566V17.897H77.7071C77.1708 17.897 76.4924 18.0502 76.1859 18.3566V17.897H69.9483V18.3566C69.4886 17.9736 68.6569 17.897 68.2739 17.897H64.1702V18.3566C63.7872 17.9736 62.8789 17.897 62.4193 17.897H57.8559L56.7944 19.0351L55.8095 17.897H48.959V25.5792H55.6563L56.7616 24.4739L57.7136 25.5792H61.9706V23.8282H62.3536C62.8898 23.8282 63.5683 23.8282 64.1045 23.5984V25.6558H67.5298V23.675H67.683C67.8362 23.675 67.9128 23.7516 67.9128 23.9049V25.6558H78.2652C78.9546 25.6558 79.6331 25.5026 80.0161 25.1962V25.6558H83.2882C83.9776 25.6558 84.6561 25.5792 85.1157 25.2728C85.8161 24.8569 86.2538 24.1128 86.3195 23.2264C86.3195 23.2045 86.3195 23.1716 86.3195 23.1498C86.3195 23.095 86.3195 23.0513 86.3195 22.9966H86.3085ZM62.3317 22.5479H60.8106V24.5286H58.3046L56.8491 22.8543L56.7835 22.7777L55.1091 24.5286H50.2394V19.1992H55.1857L56.5318 20.6766L56.8163 20.983L56.8601 20.9392L58.4578 19.1883H62.4959C63.2838 19.1883 64.1592 19.3853 64.4875 20.1732C64.5313 20.3264 64.5532 20.5015 64.5532 20.7094C64.5532 22.2305 63.4917 22.5369 62.3427 22.5369L62.3317 22.5479ZM69.9483 22.4713C70.1015 22.7011 70.1781 23.0075 70.1781 23.4562V24.5177H68.8868V23.8282C68.8868 23.5218 68.8868 22.9966 68.6569 22.7667C68.5037 22.5369 68.1973 22.5369 67.7487 22.5369H66.3807V24.5177H65.0894V19.1117H67.9785C68.5913 19.1117 69.1166 19.1117 69.4996 19.3415C69.8826 19.5713 70.189 19.9543 70.189 20.5562C70.189 21.1581 69.6528 21.8475 69.2807 22.0007C69.6637 22.1539 69.8935 22.3071 69.9701 22.4603L69.9483 22.4713ZM75.1901 20.2607H72.2245V21.2456H75.1135V22.3071H72.2245V23.3686H75.1901V24.5067H70.9332V19.1007H75.1901V20.2388V20.2607ZM78.3856 24.5286H75.9452V23.3905H78.3856C78.6154 23.3905 78.7686 23.3905 78.9218 23.2373C78.9984 23.1607 79.075 23.0075 79.075 22.8543C79.075 22.7011 78.9984 22.5479 78.9218 22.4713C78.8452 22.3947 78.692 22.3181 78.4622 22.3181C77.2474 22.2415 75.8029 22.3181 75.8029 20.6437C75.8029 18.9694 76.2626 19.046 77.6305 19.046H80.1365V20.3373H77.7727C77.5429 20.3373 77.3897 20.3373 77.2365 20.4139C77.0833 20.4905 77.0833 20.6437 77.0833 20.797C77.0833 21.0268 77.2365 21.1034 77.3897 21.18C77.5429 21.2566 77.6961 21.2566 77.8493 21.2566H78.5388C79.2282 21.2566 79.6769 21.4098 79.9833 21.7162C80.2131 21.946 80.3663 22.329 80.3663 22.8543C80.3663 23.9924 79.6769 24.5286 78.3856 24.5286ZM84.9297 23.9924C84.6232 24.2988 84.098 24.5286 83.3319 24.5286H80.9025V23.3905H83.3319C83.5617 23.3905 83.7149 23.3905 83.8682 23.2373C83.9448 23.1607 84.0214 23.0075 84.0214 22.8543C84.0214 22.7011 83.9448 22.5479 83.8682 22.4713C83.7915 22.3947 83.6383 22.3181 83.4085 22.3181C82.1938 22.2415 80.7493 22.3181 80.7493 20.6437C80.7493 18.9694 81.1652 19.2649 82.1829 19.0679C82.3033 19.046 82.4346 19.0351 82.5768 19.0351H85.0829V20.3264H82.7191C82.4893 20.3264 82.3361 20.3264 82.1829 20.403C82.1063 20.4796 82.0297 20.6328 82.0297 20.786C82.0297 21.0158 82.1063 21.0924 82.3361 21.169C82.4893 21.2456 82.6425 21.2456 82.7957 21.2456H83.4851C83.8134 21.2456 84.0651 21.2894 84.2949 21.366C84.5029 21.4426 85.2032 21.749 85.3564 22.5698C85.3674 22.6573 85.3783 22.7449 85.3783 22.8433C85.3783 23.303 85.2251 23.675 84.9187 23.9815L84.9297 23.9924Z" fill="white"/>
</g>
<defs>
<clipPath id="clip0_4183_424">
<rect width="47.9755" height="16.6667" fill="white" transform="translate(38.333 9)"/>
</clipPath>
</defs>
</svg>
