<svg width="16" height="16" viewBox="0 0 16 16" fill="none" xmlns="http://www.w3.org/2000/svg">
<g clip-path="url(#clip0_488_7289)">
<path d="M8.46706 2.93336C8.46706 2.6388 8.22828 2.40002 7.93372 2.40002C7.63916 2.40002 7.40039 2.6388 7.40039 2.93336V6.66669C7.40039 6.96125 7.63916 7.20002 7.93372 7.20002C8.22828 7.20002 8.46706 6.96125 8.46706 6.66669V2.93336Z" fill="white"/>
<path d="M10.5997 2.40002C10.8943 2.40002 11.1331 2.6388 11.1331 2.93336V6.66669C11.1331 6.96125 10.8943 7.20002 10.5997 7.20002C10.3052 7.20002 10.0664 6.96125 10.0664 6.66669V2.93336C10.0664 2.6388 10.3052 2.40002 10.5997 2.40002Z" fill="white"/>
<path d="M5.80007 4.53333C5.80007 4.23877 5.56129 4 5.26673 4C4.97217 4 4.7334 4.23877 4.7334 4.53333V6.66667C4.7334 6.96123 4.97217 7.2 5.26673 7.2C5.56129 7.2 5.80007 6.96123 5.80007 6.66667V4.53333Z" fill="white"/>
<path fill-rule="evenodd" clip-rule="evenodd" d="M11.1333 0C13.1952 0 14.8667 1.67147 14.8667 3.73333V12.2667C14.8667 14.3285 13.1952 16 11.1333 16H4.73333C2.67147 16 1 14.3285 1 12.2667V5.91968C1 4.88776 1.42713 3.90184 2.17995 3.19608L4.51205 1.00973C5.204 0.361016 6.11693 0 7.06544 0H11.1333ZM13.8 3.73333C13.8 2.26059 12.6061 1.06667 11.1333 1.06667H7.06544C6.38795 1.06667 5.73584 1.32454 5.2416 1.7879L2.90949 3.97424C2.37176 4.47837 2.06667 5.18259 2.06667 5.91968V12.2667C2.06667 13.7394 3.26059 14.9333 4.73333 14.9333H11.1333C12.6061 14.9333 13.8 13.7394 13.8 12.2667V3.73333Z" fill="white"/>
</g>
<defs>
<clipPath id="clip0_488_7289">
<rect width="13.8667" height="16" fill="white" transform="translate(1)"/>
</clipPath>
</defs>
</svg>
