<svg width="125" height="34" viewBox="0 0 125 34" fill="none" xmlns="http://www.w3.org/2000/svg">
<rect width="125" height="33.3333" rx="5" fill="#F9F9F9"/>
<rect x="0.5" y="0.5" width="124" height="32.3333" rx="4.5" stroke="#333333" stroke-opacity="0.3"/>
<g clip-path="url(#clip0_4183_407)">
<path d="M58.6626 25.526H54.0519L56.9335 7.81644H61.5447L58.6626 25.526ZM50.1731 7.81644L45.7774 19.9972L45.2573 17.3742L45.2577 17.3751L43.7063 9.411C43.5139 8.38457 42.5552 7.68565 41.5191 7.81644H34.2522L34.167 8.11631C35.8682 8.54195 37.4945 9.22453 38.9899 10.1405L42.9957 25.5265H47.7997L55.1353 7.81644H50.1731ZM86.4387 25.526H90.6724L86.9811 7.81597H83.2748C82.3534 7.7446 81.492 8.2787 81.1463 9.13575L74.2698 25.526H79.0762L80.0374 22.8954H85.8987L86.4387 25.526ZM81.3652 19.2615L83.7878 12.6342L85.1507 19.2615H81.3652ZM74.6303 12.0752L75.2884 8.27216C73.9559 7.79595 72.556 7.53529 71.1414 7.5C68.8533 7.5 63.4198 8.49999 63.4198 13.3628C63.4198 17.938 69.797 17.9948 69.797 20.398C69.797 22.8012 64.0768 22.3706 62.189 20.8551L61.5036 24.8315C63.1506 25.5209 64.9227 25.8614 66.7079 25.8315C69.8543 25.8315 74.601 24.2024 74.601 19.7684C74.601 15.1638 68.1665 14.7351 68.1665 12.7331C68.1669 10.7307 72.6573 10.988 74.6303 12.0752Z" fill="#2566AF"/>
</g>
<defs>
<clipPath id="clip0_4183_407">
<rect width="56.5054" height="18.3333" fill="white" transform="translate(34.167 7.5)"/>
</clipPath>
</defs>
</svg>
