<svg width="30" height="30" viewBox="0 0 30 30" fill="none" xmlns="http://www.w3.org/2000/svg">
<g clip-path="url(#clip0_3501_708)">
<path d="M26.625 0H3.375C1.51104 0 0 1.51104 0 3.375V26.625C0 28.489 1.51104 30 3.375 30H26.625C28.489 30 30 28.489 30 26.625V3.375C30 1.51104 28.489 0 26.625 0Z" fill="#626E7B"/>
<g clip-path="url(#clip1_3501_708)">
<path d="M21.3254 8.61392C19.6344 6.92931 17.385 6.00096 14.9909 6C12.6022 6 10.3492 6.92752 8.64715 8.61173C6.94208 10.2988 6.00219 12.5408 6 14.9166V14.921C6.00028 16.359 6.37807 17.8096 7.0952 19.1337L6.02458 24L10.9469 22.8804C12.1935 23.5086 13.5846 23.8399 14.9875 23.8404H14.9911C17.3794 23.8404 19.6324 22.9128 21.3347 21.2284C23.0413 19.54 23.9816 17.3008 23.9827 14.9235C23.9834 12.563 23.0398 10.3222 21.3254 8.61392ZM14.9909 22.4355H14.9878C13.7281 22.435 12.4799 22.1187 11.3784 21.5207L11.1456 21.3943L7.87248 22.1388L8.58343 18.9077L8.44638 18.6713C7.76495 17.4962 7.40487 16.199 7.40487 14.9195C7.40748 10.7781 10.8102 7.40487 14.9907 7.40487C17.0102 7.4057 18.9078 8.18861 20.3339 9.60914C21.7814 11.0516 22.5784 12.9388 22.5777 14.9231C22.576 19.0655 19.1726 22.4355 14.9909 22.4355Z" fill="white"/>
<path d="M12.5442 10.9873H12.1501C12.0129 10.9873 11.7901 11.0387 11.6017 11.2437C11.4132 11.4489 10.8818 11.9448 10.8818 12.9533C10.8818 13.9618 11.6189 14.9363 11.7216 15.0733C11.8245 15.21 13.1443 17.3458 15.2348 18.1674C16.9721 18.8502 17.3257 18.7144 17.7027 18.6802C18.0798 18.6462 18.9196 18.1845 19.091 17.7059C19.2624 17.2273 19.2623 16.8169 19.211 16.7312C19.1595 16.6458 19.0223 16.5946 18.8167 16.4922C18.611 16.3896 17.603 15.8853 17.4145 15.8168C17.2259 15.7485 17.0889 15.7143 16.9517 15.9196C16.8145 16.1245 16.4106 16.5986 16.2906 16.7354C16.1707 16.8723 16.0506 16.8894 15.8449 16.7869C15.6392 16.684 14.9836 16.4637 14.1979 15.7655C13.5864 15.2221 13.1621 14.5292 13.042 14.324C12.9221 14.119 13.0293 14.008 13.1324 13.9057C13.2248 13.814 13.3497 13.6884 13.4525 13.5688C13.5552 13.4491 13.5845 13.3636 13.6532 13.2269C13.7217 13.0901 13.6873 12.9703 13.636 12.8679C13.5845 12.7653 13.1898 11.7517 13.0069 11.3463C12.8528 11.0049 12.6907 10.9933 12.5442 10.9873Z" fill="white"/>
</g>
</g>
<defs>
<clipPath id="clip0_3501_708">
<rect width="30" height="30" fill="white"/>
</clipPath>
<clipPath id="clip1_3501_708">
<rect width="17.9827" height="18" fill="white" transform="translate(6 6)"/>
</clipPath>
</defs>
</svg>
