<svg width="30" height="30" viewBox="0 0 30 30" fill="none" xmlns="http://www.w3.org/2000/svg">
<g clip-path="url(#clip0_3501_627)">
<path d="M16.0107 14.4647L22.7618 24.1212H19.9911L14.482 16.2415L13.6732 15.0843L7.23779 5.87891H10.0085L15.2019 13.308L16.0107 14.4647Z" fill="#626E7B"/>
<path d="M26.7584 0H3.24156C1.45134 0 0 1.45134 0 3.24156V26.7584C0 28.5486 1.45134 30 3.24156 30H26.7584C28.5486 30 30 28.5486 30 26.7584V3.24156C30 1.45134 28.5487 0 26.7584 0ZM19.135 25.4406L13.5601 17.3271L6.58042 25.4406H4.77651L12.7591 16.1618L4.77653 4.54401H10.865L16.144 12.2269L22.7533 4.54401H24.5572L16.9452 13.3924L25.2235 25.4406H19.135Z" fill="#626E7B"/>
</g>
<defs>
<clipPath id="clip0_3501_627">
<rect width="30" height="30" fill="white"/>
</clipPath>
</defs>
</svg>
